solid OpenSCAD_Model
  facet normal 0 0 -1
    outer loop
      vertex -4.5 0 0
      vertex -4.40166 0.935603 0
      vertex -4.40166 -0.935603 0
    endloop
  endfacet
  facet normal 0 0 -1
    outer loop
      vertex -4.40166 -0.935603 0
      vertex -4.40166 0.935603 0
      vertex -4.11095 1.83031 0
    endloop
  endfacet
  facet normal 0 0 -1
    outer loop
      vertex -4.40166 -0.935603 0
      vertex -4.11095 1.83031 0
      vertex -3.64058 2.64503 0
    endloop
  endfacet
  facet normal 0 0 -1
    outer loop
      vertex -4.40166 -0.935603 0
      vertex -3.64058 2.64503 0
      vertex -3.01109 3.34415 0
    endloop
  endfacet
  facet normal 0 0 -1
    outer loop
      vertex -4.40166 -0.935603 0
      vertex -3.01109 3.34415 0
      vertex -2.25 3.89711 0
    endloop
  endfacet
  facet normal 0 0 -1
    outer loop
      vertex -4.40166 -0.935603 0
      vertex -2.25 3.89711 0
      vertex -1.39058 4.27975 0
    endloop
  endfacet
  facet normal 0 0 -1
    outer loop
      vertex -4.40166 -0.935603 0
      vertex -1.39058 4.27975 0
      vertex -0.470378 4.47535 0
    endloop
  endfacet
  facet normal 0 0 -1
    outer loop
      vertex -4.40166 -0.935603 0
      vertex -0.470378 4.47535 0
      vertex 0.470378 4.47535 0
    endloop
  endfacet
  facet normal 0 0 -1
    outer loop
      vertex -0.772542 2.37764 0
      vertex 0.470378 4.47535 0
      vertex 1.39058 4.27975 0
    endloop
  endfacet
  facet normal 0 0 -1
    outer loop
      vertex 0.261321 2.4863 0
      vertex 1.39058 4.27975 0
      vertex 2.25 3.89711 0
    endloop
  endfacet
  facet normal 0 0 -1
    outer loop
      vertex 0.772542 2.37764 0
      vertex 2.25 3.89711 0
      vertex 3.01109 3.34415 0
    endloop
  endfacet
  facet normal 0 0 -1
    outer loop
      vertex 1.67283 1.85786 0
      vertex 3.01109 3.34415 0
      vertex 3.64058 2.64503 0
    endloop
  endfacet
  facet normal 0 0 -1
    outer loop
      vertex 2.02254 1.46946 0
      vertex 3.64058 2.64503 0
      vertex 4.11095 1.83031 0
    endloop
  endfacet
  facet normal 0 0 -1
    outer loop
      vertex 2.28386 1.01684 0
      vertex 4.11095 1.83031 0
      vertex 4.40166 0.935603 0
    endloop
  endfacet
  facet normal 0 0 -1
    outer loop
      vertex 2.5 0 0
      vertex 4.40166 0.935603 0
      vertex 4.5 0 0
    endloop
  endfacet
  facet normal 0 0 -1
    outer loop
      vertex 2.44537 -0.519779 0
      vertex 4.5 0 0
      vertex 4.40166 -0.935603 0
    endloop
  endfacet
  facet normal 0 0 -1
    outer loop
      vertex 2.02254 -1.46946 0
      vertex 4.40166 -0.935603 0
      vertex 4.11095 -1.83031 0
    endloop
  endfacet
  facet normal 0 0 -1
    outer loop
      vertex 1.67283 -1.85786 0
      vertex 4.11095 -1.83031 0
      vertex 3.64058 -2.64503 0
    endloop
  endfacet
  facet normal 0 0 -1
    outer loop
      vertex 0.772542 -2.37764 0
      vertex 3.64058 -2.64503 0
      vertex 3.01109 -3.34415 0
    endloop
  endfacet
  facet normal 0 0 -1
    outer loop
      vertex -0.261321 -2.4863 0
      vertex 3.01109 -3.34415 0
      vertex 2.25 -3.89711 0
    endloop
  endfacet
  facet normal 0 0 -1
    outer loop
      vertex -4.40166 -0.935603 0
      vertex 2.25 -3.89711 0
      vertex 1.39058 -4.27975 0
    endloop
  endfacet
  facet normal 0 0 -1
    outer loop
      vertex -4.40166 -0.935603 0
      vertex 1.39058 -4.27975 0
      vertex 0.470378 -4.47535 0
    endloop
  endfacet
  facet normal 0 0 -1
    outer loop
      vertex -4.40166 -0.935603 0
      vertex 0.470378 -4.47535 0
      vertex -0.470378 -4.47535 0
    endloop
  endfacet
  facet normal 0 0 -1
    outer loop
      vertex -4.40166 -0.935603 0
      vertex -0.470378 -4.47535 0
      vertex -1.39058 -4.27975 0
    endloop
  endfacet
  facet normal 0 0 -1
    outer loop
      vertex -4.40166 -0.935603 0
      vertex -1.39058 -4.27975 0
      vertex -2.25 -3.89711 0
    endloop
  endfacet
  facet normal 0 0 -1
    outer loop
      vertex -4.40166 -0.935603 0
      vertex -2.25 -3.89711 0
      vertex -3.01109 -3.34415 0
    endloop
  endfacet
  facet normal 0 0 -1
    outer loop
      vertex -4.40166 -0.935603 0
      vertex -3.01109 -3.34415 0
      vertex -3.64058 -2.64503 0
    endloop
  endfacet
  facet normal 0 0 -1
    outer loop
      vertex -4.40166 -0.935603 0
      vertex -3.64058 -2.64503 0
      vertex -4.11095 -1.83031 0
    endloop
  endfacet
  facet normal 0 0 -1
    outer loop
      vertex -2.44537 -0.519779 0
      vertex -4.40166 -0.935603 0
      vertex -2.5 0 0
    endloop
  endfacet
  facet normal 0 0 -1
    outer loop
      vertex 2.28386 1.01684 0
      vertex 4.40166 0.935603 0
      vertex 2.44537 0.519779 0
    endloop
  endfacet
  facet normal 0 0 -1
    outer loop
      vertex -2.28386 -1.01684 0
      vertex -4.40166 -0.935603 0
      vertex -2.44537 -0.519779 0
    endloop
  endfacet
  facet normal 0 0 -1
    outer loop
      vertex -2.02254 -1.46946 0
      vertex -4.40166 -0.935603 0
      vertex -2.28386 -1.01684 0
    endloop
  endfacet
  facet normal 0 0 -1
    outer loop
      vertex -1.67283 -1.85786 0
      vertex -4.40166 -0.935603 0
      vertex -2.02254 -1.46946 0
    endloop
  endfacet
  facet normal 0 0 -1
    outer loop
      vertex -0.261321 -2.4863 0
      vertex 2.25 -3.89711 0
      vertex -0.772542 -2.37764 0
    endloop
  endfacet
  facet normal 0 0 -1
    outer loop
      vertex -4.40166 -0.935603 0
      vertex -1.67283 -1.85786 0
      vertex -1.25 -2.16506 0
    endloop
  endfacet
  facet normal 0 0 -1
    outer loop
      vertex -4.40166 -0.935603 0
      vertex -1.25 -2.16506 0
      vertex 2.25 -3.89711 0
    endloop
  endfacet
  facet normal 0 0 -1
    outer loop
      vertex -1.25 -2.16506 0
      vertex -0.772542 -2.37764 0
      vertex 2.25 -3.89711 0
    endloop
  endfacet
  facet normal 0 0 -1
    outer loop
      vertex 0.261321 -2.4863 0
      vertex 3.01109 -3.34415 0
      vertex -0.261321 -2.4863 0
    endloop
  endfacet
  facet normal 0 0 -1
    outer loop
      vertex 0.772542 -2.37764 0
      vertex 3.01109 -3.34415 0
      vertex 0.261321 -2.4863 0
    endloop
  endfacet
  facet normal 0 0 -1
    outer loop
      vertex 1.25 -2.16506 0
      vertex 3.64058 -2.64503 0
      vertex 0.772542 -2.37764 0
    endloop
  endfacet
  facet normal 0 0 -1
    outer loop
      vertex 1.67283 -1.85786 0
      vertex 3.64058 -2.64503 0
      vertex 1.25 -2.16506 0
    endloop
  endfacet
  facet normal 0 0 -1
    outer loop
      vertex 2.28386 -1.01684 0
      vertex 4.40166 -0.935603 0
      vertex 2.02254 -1.46946 0
    endloop
  endfacet
  facet normal 0 0 -1
    outer loop
      vertex 2.44537 -0.519779 0
      vertex 4.40166 -0.935603 0
      vertex 2.28386 -1.01684 0
    endloop
  endfacet
  facet normal 0 0 -1
    outer loop
      vertex 2.02254 -1.46946 0
      vertex 4.11095 -1.83031 0
      vertex 1.67283 -1.85786 0
    endloop
  endfacet
  facet normal 0 0 -1
    outer loop
      vertex 2.44537 0.519779 0
      vertex 4.40166 0.935603 0
      vertex 2.5 0 0
    endloop
  endfacet
  facet normal 0 0 -1
    outer loop
      vertex 2.02254 1.46946 0
      vertex 4.11095 1.83031 0
      vertex 2.28386 1.01684 0
    endloop
  endfacet
  facet normal 0 0 -1
    outer loop
      vertex 1.25 2.16506 0
      vertex 3.01109 3.34415 0
      vertex 1.67283 1.85786 0
    endloop
  endfacet
  facet normal 0 0 -1
    outer loop
      vertex 0.772542 2.37764 0
      vertex 3.01109 3.34415 0
      vertex 1.25 2.16506 0
    endloop
  endfacet
  facet normal 0 0 -1
    outer loop
      vertex 1.67283 1.85786 0
      vertex 3.64058 2.64503 0
      vertex 2.02254 1.46946 0
    endloop
  endfacet
  facet normal 0 0 -1
    outer loop
      vertex -0.261321 2.4863 0
      vertex 1.39058 4.27975 0
      vertex 0.261321 2.4863 0
    endloop
  endfacet
  facet normal 0 0 -1
    outer loop
      vertex -1.25 2.16506 0
      vertex 0.470378 4.47535 0
      vertex -0.772542 2.37764 0
    endloop
  endfacet
  facet normal 0 0 -1
    outer loop
      vertex -2.28386 1.01684 0
      vertex -4.40166 -0.935603 0
      vertex -2.02254 1.46946 0
    endloop
  endfacet
  facet normal 0 0 -1
    outer loop
      vertex -1.67283 1.85786 0
      vertex 0.470378 4.47535 0
      vertex -1.25 2.16506 0
    endloop
  endfacet
  facet normal 0 0 -1
    outer loop
      vertex -4.40166 -0.935603 0
      vertex 0.470378 4.47535 0
      vertex -1.67283 1.85786 0
    endloop
  endfacet
  facet normal 0 0 -1
    outer loop
      vertex -4.40166 -0.935603 0
      vertex -1.67283 1.85786 0
      vertex -2.02254 1.46946 0
    endloop
  endfacet
  facet normal 0 0 -1
    outer loop
      vertex -2.44537 0.519779 0
      vertex -4.40166 -0.935603 0
      vertex -2.28386 1.01684 0
    endloop
  endfacet
  facet normal 0 0 -1
    outer loop
      vertex -2.5 0 0
      vertex -4.40166 -0.935603 0
      vertex -2.44537 0.519779 0
    endloop
  endfacet
  facet normal 0 0 -1
    outer loop
      vertex -0.772542 2.37764 0
      vertex 1.39058 4.27975 0
      vertex -0.261321 2.4863 0
    endloop
  endfacet
  facet normal 0 0 -1
    outer loop
      vertex 0.261321 2.4863 0
      vertex 2.25 3.89711 0
      vertex 0.772542 2.37764 0
    endloop
  endfacet
  facet normal 0 0 -1
    outer loop
      vertex 2.5 0 0
      vertex 4.5 0 0
      vertex 2.44537 -0.519779 0
    endloop
  endfacet
  facet normal -0.994522 0.104529 0
    outer loop
      vertex -4.5 0 0
      vertex -4.5 0 55
      vertex -4.40166 0.935603 0
    endloop
  endfacet
  facet normal -0.994522 0.104529 0
    outer loop
      vertex -4.40166 0.935603 0
      vertex -4.5 0 55
      vertex -4.40166 0.935603 55
    endloop
  endfacet
  facet normal -0.994522 -0.104529 0
    outer loop
      vertex -4.5 0 0
      vertex -4.40166 -0.935603 0
      vertex -4.5 0 55
    endloop
  endfacet
  facet normal -0.994522 -0.104529 0
    outer loop
      vertex -4.5 0 55
      vertex -4.40166 -0.935603 0
      vertex -4.40166 -0.935603 55
    endloop
  endfacet
  facet normal -0.951057 -0.309016 0
    outer loop
      vertex -4.40166 -0.935603 0
      vertex -4.11095 -1.83031 0
      vertex -4.40166 -0.935603 55
    endloop
  endfacet
  facet normal -0.951057 -0.309016 0
    outer loop
      vertex -4.40166 -0.935603 55
      vertex -4.11095 -1.83031 0
      vertex -4.11095 -1.83031 55
    endloop
  endfacet
  facet normal -0.866025 -0.500001 0
    outer loop
      vertex -4.11095 -1.83031 0
      vertex -3.64058 -2.64503 0
      vertex -4.11095 -1.83031 55
    endloop
  endfacet
  facet normal -0.866025 -0.500001 0
    outer loop
      vertex -4.11095 -1.83031 55
      vertex -3.64058 -2.64503 0
      vertex -3.64058 -2.64503 55
    endloop
  endfacet
  facet normal -0.743145 -0.66913 0
    outer loop
      vertex -3.64058 -2.64503 0
      vertex -3.01109 -3.34415 0
      vertex -3.64058 -2.64503 55
    endloop
  endfacet
  facet normal -0.743145 -0.66913 0
    outer loop
      vertex -3.64058 -2.64503 55
      vertex -3.01109 -3.34415 0
      vertex -3.01109 -3.34415 55
    endloop
  endfacet
  facet normal -0.587785 -0.809017 0
    outer loop
      vertex -3.01109 -3.34415 55
      vertex -3.01109 -3.34415 0
      vertex -2.25 -3.89711 0
    endloop
  endfacet
  facet normal -0.587785 -0.809017 0
    outer loop
      vertex -2.25 -3.89711 55
      vertex -3.01109 -3.34415 55
      vertex -2.25 -3.89711 0
    endloop
  endfacet
  facet normal -0.406736 -0.913546 0
    outer loop
      vertex -2.25 -3.89711 55
      vertex -2.25 -3.89711 0
      vertex -1.39058 -4.27975 0
    endloop
  endfacet
  facet normal -0.406736 -0.913546 0
    outer loop
      vertex -1.39058 -4.27975 55
      vertex -2.25 -3.89711 55
      vertex -1.39058 -4.27975 0
    endloop
  endfacet
  facet normal -0.207913 -0.978147 0
    outer loop
      vertex -1.39058 -4.27975 55
      vertex -1.39058 -4.27975 0
      vertex -0.470378 -4.47535 0
    endloop
  endfacet
  facet normal -0.207913 -0.978147 0
    outer loop
      vertex -0.470378 -4.47535 55
      vertex -1.39058 -4.27975 55
      vertex -0.470378 -4.47535 0
    endloop
  endfacet
  facet normal 0 -1 0
    outer loop
      vertex -0.470378 -4.47535 55
      vertex -0.470378 -4.47535 0
      vertex 0.470378 -4.47535 0
    endloop
  endfacet
  facet normal 0 -1 0
    outer loop
      vertex 0.470378 -4.47535 55
      vertex -0.470378 -4.47535 55
      vertex 0.470378 -4.47535 0
    endloop
  endfacet
  facet normal 0.207913 -0.978147 0
    outer loop
      vertex 0.470378 -4.47535 55
      vertex 0.470378 -4.47535 0
      vertex 1.39058 -4.27975 0
    endloop
  endfacet
  facet normal 0.207913 -0.978147 0
    outer loop
      vertex 1.39058 -4.27975 55
      vertex 0.470378 -4.47535 55
      vertex 1.39058 -4.27975 0
    endloop
  endfacet
  facet normal 0.406736 -0.913546 0
    outer loop
      vertex 1.39058 -4.27975 55
      vertex 1.39058 -4.27975 0
      vertex 2.25 -3.89711 0
    endloop
  endfacet
  facet normal 0.406736 -0.913546 0
    outer loop
      vertex 2.25 -3.89711 55
      vertex 1.39058 -4.27975 55
      vertex 2.25 -3.89711 0
    endloop
  endfacet
  facet normal 0.587785 -0.809017 0
    outer loop
      vertex 2.25 -3.89711 55
      vertex 2.25 -3.89711 0
      vertex 3.01109 -3.34415 0
    endloop
  endfacet
  facet normal 0.587785 -0.809017 0
    outer loop
      vertex 3.01109 -3.34415 55
      vertex 2.25 -3.89711 55
      vertex 3.01109 -3.34415 0
    endloop
  endfacet
  facet normal 0.743145 -0.66913 0
    outer loop
      vertex 3.01109 -3.34415 55
      vertex 3.01109 -3.34415 0
      vertex 3.64058 -2.64503 0
    endloop
  endfacet
  facet normal 0.743145 -0.66913 0
    outer loop
      vertex 3.64058 -2.64503 55
      vertex 3.01109 -3.34415 55
      vertex 3.64058 -2.64503 0
    endloop
  endfacet
  facet normal 0.866025 -0.500001 0
    outer loop
      vertex 3.64058 -2.64503 55
      vertex 3.64058 -2.64503 0
      vertex 4.11095 -1.83031 0
    endloop
  endfacet
  facet normal 0.866025 -0.500001 0
    outer loop
      vertex 4.11095 -1.83031 55
      vertex 3.64058 -2.64503 55
      vertex 4.11095 -1.83031 0
    endloop
  endfacet
  facet normal 0.951057 -0.309016 0
    outer loop
      vertex 4.11095 -1.83031 55
      vertex 4.11095 -1.83031 0
      vertex 4.40166 -0.935603 0
    endloop
  endfacet
  facet normal 0.951057 -0.309016 0
    outer loop
      vertex 4.40166 -0.935603 55
      vertex 4.11095 -1.83031 55
      vertex 4.40166 -0.935603 0
    endloop
  endfacet
  facet normal 0.994522 -0.104529 0
    outer loop
      vertex 4.40166 -0.935603 55
      vertex 4.40166 -0.935603 0
      vertex 4.5 0 0
    endloop
  endfacet
  facet normal 0.994522 -0.104529 0
    outer loop
      vertex 4.5 0 55
      vertex 4.40166 -0.935603 55
      vertex 4.5 0 0
    endloop
  endfacet
  facet normal 0.994522 0.104529 0
    outer loop
      vertex 4.5 0 0
      vertex 4.40166 0.935603 0
      vertex 4.40166 0.935603 55
    endloop
  endfacet
  facet normal 0.994522 0.104529 0
    outer loop
      vertex 4.5 0 55
      vertex 4.5 0 0
      vertex 4.40166 0.935603 55
    endloop
  endfacet
  facet normal 0.951057 0.309016 0
    outer loop
      vertex 4.40166 0.935603 0
      vertex 4.11095 1.83031 0
      vertex 4.11095 1.83031 55
    endloop
  endfacet
  facet normal 0.951057 0.309016 0
    outer loop
      vertex 4.40166 0.935603 55
      vertex 4.40166 0.935603 0
      vertex 4.11095 1.83031 55
    endloop
  endfacet
  facet normal 0.866025 0.500001 0
    outer loop
      vertex 4.11095 1.83031 0
      vertex 3.64058 2.64503 0
      vertex 3.64058 2.64503 55
    endloop
  endfacet
  facet normal 0.866025 0.500001 0
    outer loop
      vertex 4.11095 1.83031 55
      vertex 4.11095 1.83031 0
      vertex 3.64058 2.64503 55
    endloop
  endfacet
  facet normal 0.743145 0.66913 0
    outer loop
      vertex 3.64058 2.64503 0
      vertex 3.01109 3.34415 0
      vertex 3.01109 3.34415 55
    endloop
  endfacet
  facet normal 0.743145 0.66913 0
    outer loop
      vertex 3.64058 2.64503 55
      vertex 3.64058 2.64503 0
      vertex 3.01109 3.34415 55
    endloop
  endfacet
  facet normal 0.587785 0.809017 0
    outer loop
      vertex 2.25 3.89711 0
      vertex 2.25 3.89711 55
      vertex 3.01109 3.34415 0
    endloop
  endfacet
  facet normal 0.587785 0.809017 0
    outer loop
      vertex 3.01109 3.34415 0
      vertex 2.25 3.89711 55
      vertex 3.01109 3.34415 55
    endloop
  endfacet
  facet normal 0.406736 0.913546 0
    outer loop
      vertex 1.39058 4.27975 0
      vertex 1.39058 4.27975 55
      vertex 2.25 3.89711 0
    endloop
  endfacet
  facet normal 0.406736 0.913546 0
    outer loop
      vertex 2.25 3.89711 0
      vertex 1.39058 4.27975 55
      vertex 2.25 3.89711 55
    endloop
  endfacet
  facet normal 0.207913 0.978147 0
    outer loop
      vertex 0.470378 4.47535 0
      vertex 0.470378 4.47535 55
      vertex 1.39058 4.27975 0
    endloop
  endfacet
  facet normal 0.207913 0.978147 0
    outer loop
      vertex 1.39058 4.27975 0
      vertex 0.470378 4.47535 55
      vertex 1.39058 4.27975 55
    endloop
  endfacet
  facet normal 0 1 0
    outer loop
      vertex -0.470378 4.47535 0
      vertex -0.470378 4.47535 55
      vertex 0.470378 4.47535 0
    endloop
  endfacet
  facet normal 0 1 0
    outer loop
      vertex 0.470378 4.47535 0
      vertex -0.470378 4.47535 55
      vertex 0.470378 4.47535 55
    endloop
  endfacet
  facet normal -0.207913 0.978147 0
    outer loop
      vertex -1.39058 4.27975 0
      vertex -1.39058 4.27975 55
      vertex -0.470378 4.47535 0
    endloop
  endfacet
  facet normal -0.207913 0.978147 0
    outer loop
      vertex -0.470378 4.47535 0
      vertex -1.39058 4.27975 55
      vertex -0.470378 4.47535 55
    endloop
  endfacet
  facet normal -0.406736 0.913546 0
    outer loop
      vertex -2.25 3.89711 0
      vertex -2.25 3.89711 55
      vertex -1.39058 4.27975 0
    endloop
  endfacet
  facet normal -0.406736 0.913546 0
    outer loop
      vertex -1.39058 4.27975 0
      vertex -2.25 3.89711 55
      vertex -1.39058 4.27975 55
    endloop
  endfacet
  facet normal -0.587785 0.809017 0
    outer loop
      vertex -3.01109 3.34415 0
      vertex -3.01109 3.34415 55
      vertex -2.25 3.89711 0
    endloop
  endfacet
  facet normal -0.587785 0.809017 0
    outer loop
      vertex -2.25 3.89711 0
      vertex -3.01109 3.34415 55
      vertex -2.25 3.89711 55
    endloop
  endfacet
  facet normal -0.743145 0.66913 0
    outer loop
      vertex -3.64058 2.64503 0
      vertex -3.64058 2.64503 55
      vertex -3.01109 3.34415 0
    endloop
  endfacet
  facet normal -0.743145 0.66913 0
    outer loop
      vertex -3.01109 3.34415 0
      vertex -3.64058 2.64503 55
      vertex -3.01109 3.34415 55
    endloop
  endfacet
  facet normal -0.866025 0.500001 0
    outer loop
      vertex -4.11095 1.83031 0
      vertex -4.11095 1.83031 55
      vertex -3.64058 2.64503 0
    endloop
  endfacet
  facet normal -0.866025 0.500001 0
    outer loop
      vertex -3.64058 2.64503 0
      vertex -4.11095 1.83031 55
      vertex -3.64058 2.64503 55
    endloop
  endfacet
  facet normal -0.951057 0.309016 0
    outer loop
      vertex -4.40166 0.935603 0
      vertex -4.40166 0.935603 55
      vertex -4.11095 1.83031 0
    endloop
  endfacet
  facet normal -0.951057 0.309016 0
    outer loop
      vertex -4.11095 1.83031 0
      vertex -4.40166 0.935603 55
      vertex -4.11095 1.83031 55
    endloop
  endfacet
  facet normal 0.994522 0.104529 0
    outer loop
      vertex -2.5 0 55
      vertex -2.44537 -0.519779 55
      vertex -2.44537 -0.519779 0
    endloop
  endfacet
  facet normal 0.994522 0.104529 0
    outer loop
      vertex -2.5 0 0
      vertex -2.5 0 55
      vertex -2.44537 -0.519779 0
    endloop
  endfacet
  facet normal 0.994522 -0.104529 0
    outer loop
      vertex -2.44537 0.519779 0
      vertex -2.44537 0.519779 55
      vertex -2.5 0 55
    endloop
  endfacet
  facet normal 0.994522 -0.104529 0
    outer loop
      vertex -2.5 0 0
      vertex -2.44537 0.519779 0
      vertex -2.5 0 55
    endloop
  endfacet
  facet normal 0.951057 -0.309016 0
    outer loop
      vertex -2.28386 1.01684 0
      vertex -2.28386 1.01684 55
      vertex -2.44537 0.519779 55
    endloop
  endfacet
  facet normal 0.951057 -0.309016 0
    outer loop
      vertex -2.44537 0.519779 0
      vertex -2.28386 1.01684 0
      vertex -2.44537 0.519779 55
    endloop
  endfacet
  facet normal 0.866024 -0.500002 0
    outer loop
      vertex -2.02254 1.46946 0
      vertex -2.02254 1.46946 55
      vertex -2.28386 1.01684 55
    endloop
  endfacet
  facet normal 0.866024 -0.500002 0
    outer loop
      vertex -2.28386 1.01684 0
      vertex -2.02254 1.46946 0
      vertex -2.28386 1.01684 55
    endloop
  endfacet
  facet normal 0.743146 -0.66913 0
    outer loop
      vertex -1.67283 1.85786 0
      vertex -1.67283 1.85786 55
      vertex -2.02254 1.46946 55
    endloop
  endfacet
  facet normal 0.743146 -0.66913 0
    outer loop
      vertex -2.02254 1.46946 0
      vertex -1.67283 1.85786 0
      vertex -2.02254 1.46946 55
    endloop
  endfacet
  facet normal 0.587786 -0.809017 0
    outer loop
      vertex -1.25 2.16506 0
      vertex -1.25 2.16506 55
      vertex -1.67283 1.85786 55
    endloop
  endfacet
  facet normal 0.587786 -0.809017 0
    outer loop
      vertex -1.67283 1.85786 0
      vertex -1.25 2.16506 0
      vertex -1.67283 1.85786 55
    endloop
  endfacet
  facet normal 0.406735 -0.913546 0
    outer loop
      vertex -0.772542 2.37764 0
      vertex -0.772542 2.37764 55
      vertex -1.25 2.16506 55
    endloop
  endfacet
  facet normal 0.406735 -0.913546 0
    outer loop
      vertex -1.25 2.16506 0
      vertex -0.772542 2.37764 0
      vertex -1.25 2.16506 55
    endloop
  endfacet
  facet normal 0.207913 -0.978147 0
    outer loop
      vertex -0.261321 2.4863 0
      vertex -0.261321 2.4863 55
      vertex -0.772542 2.37764 55
    endloop
  endfacet
  facet normal 0.207913 -0.978147 0
    outer loop
      vertex -0.772542 2.37764 0
      vertex -0.261321 2.4863 0
      vertex -0.772542 2.37764 55
    endloop
  endfacet
  facet normal 0 -1 0
    outer loop
      vertex 0.261321 2.4863 0
      vertex 0.261321 2.4863 55
      vertex -0.261321 2.4863 55
    endloop
  endfacet
  facet normal 0 -1 0
    outer loop
      vertex -0.261321 2.4863 0
      vertex 0.261321 2.4863 0
      vertex -0.261321 2.4863 55
    endloop
  endfacet
  facet normal -0.207913 -0.978147 0
    outer loop
      vertex 0.772542 2.37764 0
      vertex 0.772542 2.37764 55
      vertex 0.261321 2.4863 55
    endloop
  endfacet
  facet normal -0.207913 -0.978147 0
    outer loop
      vertex 0.261321 2.4863 0
      vertex 0.772542 2.37764 0
      vertex 0.261321 2.4863 55
    endloop
  endfacet
  facet normal -0.406735 -0.913546 0
    outer loop
      vertex 1.25 2.16506 0
      vertex 1.25 2.16506 55
      vertex 0.772542 2.37764 55
    endloop
  endfacet
  facet normal -0.406735 -0.913546 0
    outer loop
      vertex 0.772542 2.37764 0
      vertex 1.25 2.16506 0
      vertex 0.772542 2.37764 55
    endloop
  endfacet
  facet normal -0.587786 -0.809017 0
    outer loop
      vertex 1.67283 1.85786 0
      vertex 1.67283 1.85786 55
      vertex 1.25 2.16506 55
    endloop
  endfacet
  facet normal -0.587786 -0.809017 0
    outer loop
      vertex 1.25 2.16506 0
      vertex 1.67283 1.85786 0
      vertex 1.25 2.16506 55
    endloop
  endfacet
  facet normal -0.743146 -0.66913 0
    outer loop
      vertex 2.02254 1.46946 55
      vertex 1.67283 1.85786 55
      vertex 2.02254 1.46946 0
    endloop
  endfacet
  facet normal -0.743146 -0.66913 0
    outer loop
      vertex 2.02254 1.46946 0
      vertex 1.67283 1.85786 55
      vertex 1.67283 1.85786 0
    endloop
  endfacet
  facet normal -0.866024 -0.500002 0
    outer loop
      vertex 2.28386 1.01684 55
      vertex 2.02254 1.46946 55
      vertex 2.28386 1.01684 0
    endloop
  endfacet
  facet normal -0.866024 -0.500002 0
    outer loop
      vertex 2.28386 1.01684 0
      vertex 2.02254 1.46946 55
      vertex 2.02254 1.46946 0
    endloop
  endfacet
  facet normal -0.951057 -0.309016 0
    outer loop
      vertex 2.44537 0.519779 55
      vertex 2.28386 1.01684 55
      vertex 2.44537 0.519779 0
    endloop
  endfacet
  facet normal -0.951057 -0.309016 0
    outer loop
      vertex 2.44537 0.519779 0
      vertex 2.28386 1.01684 55
      vertex 2.28386 1.01684 0
    endloop
  endfacet
  facet normal -0.994522 -0.104529 0
    outer loop
      vertex 2.5 0 55
      vertex 2.44537 0.519779 55
      vertex 2.5 0 0
    endloop
  endfacet
  facet normal -0.994522 -0.104529 0
    outer loop
      vertex 2.5 0 0
      vertex 2.44537 0.519779 55
      vertex 2.44537 0.519779 0
    endloop
  endfacet
  facet normal -0.994522 0.104529 0
    outer loop
      vertex 2.5 0 55
      vertex 2.5 0 0
      vertex 2.44537 -0.519779 55
    endloop
  endfacet
  facet normal -0.994522 0.104529 0
    outer loop
      vertex 2.44537 -0.519779 55
      vertex 2.5 0 0
      vertex 2.44537 -0.519779 0
    endloop
  endfacet
  facet normal -0.951057 0.309016 0
    outer loop
      vertex 2.44537 -0.519779 55
      vertex 2.44537 -0.519779 0
      vertex 2.28386 -1.01684 55
    endloop
  endfacet
  facet normal -0.951057 0.309016 0
    outer loop
      vertex 2.28386 -1.01684 55
      vertex 2.44537 -0.519779 0
      vertex 2.28386 -1.01684 0
    endloop
  endfacet
  facet normal -0.866024 0.500002 0
    outer loop
      vertex 2.28386 -1.01684 55
      vertex 2.28386 -1.01684 0
      vertex 2.02254 -1.46946 55
    endloop
  endfacet
  facet normal -0.866024 0.500002 0
    outer loop
      vertex 2.02254 -1.46946 55
      vertex 2.28386 -1.01684 0
      vertex 2.02254 -1.46946 0
    endloop
  endfacet
  facet normal -0.743146 0.66913 0
    outer loop
      vertex 2.02254 -1.46946 55
      vertex 2.02254 -1.46946 0
      vertex 1.67283 -1.85786 55
    endloop
  endfacet
  facet normal -0.743146 0.66913 0
    outer loop
      vertex 1.67283 -1.85786 55
      vertex 2.02254 -1.46946 0
      vertex 1.67283 -1.85786 0
    endloop
  endfacet
  facet normal -0.587786 0.809017 0
    outer loop
      vertex 1.67283 -1.85786 55
      vertex 1.67283 -1.85786 0
      vertex 1.25 -2.16506 55
    endloop
  endfacet
  facet normal -0.587786 0.809017 0
    outer loop
      vertex 1.25 -2.16506 55
      vertex 1.67283 -1.85786 0
      vertex 1.25 -2.16506 0
    endloop
  endfacet
  facet normal -0.406735 0.913546 0
    outer loop
      vertex 1.25 -2.16506 55
      vertex 1.25 -2.16506 0
      vertex 0.772542 -2.37764 55
    endloop
  endfacet
  facet normal -0.406735 0.913546 0
    outer loop
      vertex 0.772542 -2.37764 55
      vertex 1.25 -2.16506 0
      vertex 0.772542 -2.37764 0
    endloop
  endfacet
  facet normal -0.207913 0.978147 0
    outer loop
      vertex 0.772542 -2.37764 55
      vertex 0.772542 -2.37764 0
      vertex 0.261321 -2.4863 55
    endloop
  endfacet
  facet normal -0.207913 0.978147 0
    outer loop
      vertex 0.261321 -2.4863 55
      vertex 0.772542 -2.37764 0
      vertex 0.261321 -2.4863 0
    endloop
  endfacet
  facet normal 0 1 0
    outer loop
      vertex 0.261321 -2.4863 55
      vertex 0.261321 -2.4863 0
      vertex -0.261321 -2.4863 55
    endloop
  endfacet
  facet normal 0 1 0
    outer loop
      vertex -0.261321 -2.4863 55
      vertex 0.261321 -2.4863 0
      vertex -0.261321 -2.4863 0
    endloop
  endfacet
  facet normal 0.207913 0.978147 0
    outer loop
      vertex -0.261321 -2.4863 55
      vertex -0.261321 -2.4863 0
      vertex -0.772542 -2.37764 55
    endloop
  endfacet
  facet normal 0.207913 0.978147 0
    outer loop
      vertex -0.772542 -2.37764 55
      vertex -0.261321 -2.4863 0
      vertex -0.772542 -2.37764 0
    endloop
  endfacet
  facet normal 0.406735 0.913546 0
    outer loop
      vertex -0.772542 -2.37764 55
      vertex -0.772542 -2.37764 0
      vertex -1.25 -2.16506 55
    endloop
  endfacet
  facet normal 0.406735 0.913546 0
    outer loop
      vertex -1.25 -2.16506 55
      vertex -0.772542 -2.37764 0
      vertex -1.25 -2.16506 0
    endloop
  endfacet
  facet normal 0.587786 0.809017 0
    outer loop
      vertex -1.25 -2.16506 55
      vertex -1.25 -2.16506 0
      vertex -1.67283 -1.85786 55
    endloop
  endfacet
  facet normal 0.587786 0.809017 0
    outer loop
      vertex -1.67283 -1.85786 55
      vertex -1.25 -2.16506 0
      vertex -1.67283 -1.85786 0
    endloop
  endfacet
  facet normal 0.743146 0.66913 0
    outer loop
      vertex -2.02254 -1.46946 55
      vertex -1.67283 -1.85786 55
      vertex -1.67283 -1.85786 0
    endloop
  endfacet
  facet normal 0.743146 0.66913 0
    outer loop
      vertex -2.02254 -1.46946 0
      vertex -2.02254 -1.46946 55
      vertex -1.67283 -1.85786 0
    endloop
  endfacet
  facet normal 0.866024 0.500002 0
    outer loop
      vertex -2.28386 -1.01684 55
      vertex -2.02254 -1.46946 55
      vertex -2.02254 -1.46946 0
    endloop
  endfacet
  facet normal 0.866024 0.500002 0
    outer loop
      vertex -2.28386 -1.01684 0
      vertex -2.28386 -1.01684 55
      vertex -2.02254 -1.46946 0
    endloop
  endfacet
  facet normal 0.951057 0.309016 0
    outer loop
      vertex -2.44537 -0.519779 55
      vertex -2.28386 -1.01684 55
      vertex -2.28386 -1.01684 0
    endloop
  endfacet
  facet normal 0.951057 0.309016 0
    outer loop
      vertex -2.44537 -0.519779 0
      vertex -2.44537 -0.519779 55
      vertex -2.28386 -1.01684 0
    endloop
  endfacet
  facet normal 0 0 1
    outer loop
      vertex -4.40166 0.935603 55
      vertex -4.5 0 55
      vertex -4.40166 -0.935603 55
    endloop
  endfacet
  facet normal 0 0 1
    outer loop
      vertex -3.64058 -2.64503 55
      vertex -4.40166 0.935603 55
      vertex -4.11095 -1.83031 55
    endloop
  endfacet
  facet normal 0 0 1
    outer loop
      vertex -4.11095 -1.83031 55
      vertex -4.40166 0.935603 55
      vertex -4.40166 -0.935603 55
    endloop
  endfacet
  facet normal 0 0 1
    outer loop
      vertex -3.01109 -3.34415 55
      vertex -4.40166 0.935603 55
      vertex -3.64058 -2.64503 55
    endloop
  endfacet
  facet normal 0 0 1
    outer loop
      vertex -2.25 -3.89711 55
      vertex -4.40166 0.935603 55
      vertex -3.01109 -3.34415 55
    endloop
  endfacet
  facet normal 0 0 1
    outer loop
      vertex -1.39058 -4.27975 55
      vertex -4.40166 0.935603 55
      vertex -2.25 -3.89711 55
    endloop
  endfacet
  facet normal 0 0 1
    outer loop
      vertex -0.470378 -4.47535 55
      vertex -4.40166 0.935603 55
      vertex -1.39058 -4.27975 55
    endloop
  endfacet
  facet normal 0 0 1
    outer loop
      vertex 0.470378 -4.47535 55
      vertex -4.40166 0.935603 55
      vertex -0.470378 -4.47535 55
    endloop
  endfacet
  facet normal 0 0 1
    outer loop
      vertex -1.67283 -1.85786 55
      vertex -4.40166 0.935603 55
      vertex 0.470378 -4.47535 55
    endloop
  endfacet
  facet normal 0 0 1
    outer loop
      vertex 1.25 -2.16506 55
      vertex 0.772542 -2.37764 55
      vertex 3.01109 -3.34415 55
    endloop
  endfacet
  facet normal 0 0 1
    outer loop
      vertex 2.28386 1.01684 55
      vertex 2.44537 0.519779 55
      vertex 4.40166 0.935603 55
    endloop
  endfacet
  facet normal 0 0 1
    outer loop
      vertex 0.261321 2.4863 55
      vertex 0.772542 2.37764 55
      vertex 3.01109 3.34415 55
    endloop
  endfacet
  facet normal 0 0 1
    outer loop
      vertex 1.25 2.16506 55
      vertex 1.67283 1.85786 55
      vertex 3.64058 2.64503 55
    endloop
  endfacet
  facet normal 0 0 1
    outer loop
      vertex 1.39058 4.27975 55
      vertex -4.40166 0.935603 55
      vertex 2.25 3.89711 55
    endloop
  endfacet
  facet normal 0 0 1
    outer loop
      vertex 0.470378 4.47535 55
      vertex -4.40166 0.935603 55
      vertex 1.39058 4.27975 55
    endloop
  endfacet
  facet normal 0 0 1
    outer loop
      vertex -0.470378 4.47535 55
      vertex -4.40166 0.935603 55
      vertex 0.470378 4.47535 55
    endloop
  endfacet
  facet normal 0 0 1
    outer loop
      vertex -1.39058 4.27975 55
      vertex -4.40166 0.935603 55
      vertex -0.470378 4.47535 55
    endloop
  endfacet
  facet normal 0 0 1
    outer loop
      vertex -2.25 3.89711 55
      vertex -4.40166 0.935603 55
      vertex -1.39058 4.27975 55
    endloop
  endfacet
  facet normal 0 0 1
    outer loop
      vertex -3.01109 3.34415 55
      vertex -4.40166 0.935603 55
      vertex -2.25 3.89711 55
    endloop
  endfacet
  facet normal 0 0 1
    outer loop
      vertex -3.64058 2.64503 55
      vertex -4.40166 0.935603 55
      vertex -3.01109 3.34415 55
    endloop
  endfacet
  facet normal 0 0 1
    outer loop
      vertex -4.11095 1.83031 55
      vertex -4.40166 0.935603 55
      vertex -3.64058 2.64503 55
    endloop
  endfacet
  facet normal 0 0 1
    outer loop
      vertex -2.02254 -1.46946 55
      vertex -2.28386 -1.01684 55
      vertex -4.40166 0.935603 55
    endloop
  endfacet
  facet normal 0 0 1
    outer loop
      vertex -2.5 0 55
      vertex -2.44537 0.519779 55
      vertex -4.40166 0.935603 55
    endloop
  endfacet
  facet normal 0 0 1
    outer loop
      vertex 2.44537 0.519779 55
      vertex 2.5 0 55
      vertex 4.5 0 55
    endloop
  endfacet
  facet normal 0 0 1
    outer loop
      vertex -0.772542 2.37764 55
      vertex -0.261321 2.4863 55
      vertex 2.25 3.89711 55
    endloop
  endfacet
  facet normal 0 0 1
    outer loop
      vertex 1.67283 1.85786 55
      vertex 2.02254 1.46946 55
      vertex 4.11095 1.83031 55
    endloop
  endfacet
  facet normal 0 0 1
    outer loop
      vertex -1.25 2.16506 55
      vertex -4.40166 0.935603 55
      vertex -1.67283 1.85786 55
    endloop
  endfacet
  facet normal 0 0 1
    outer loop
      vertex 2.25 3.89711 55
      vertex -4.40166 0.935603 55
      vertex -1.25 2.16506 55
    endloop
  endfacet
  facet normal 0 0 1
    outer loop
      vertex 2.25 3.89711 55
      vertex -1.25 2.16506 55
      vertex -0.772542 2.37764 55
    endloop
  endfacet
  facet normal 0 0 1
    outer loop
      vertex 2.25 3.89711 55
      vertex -0.261321 2.4863 55
      vertex 3.01109 3.34415 55
    endloop
  endfacet
  facet normal 0 0 1
    outer loop
      vertex -0.261321 2.4863 55
      vertex 0.261321 2.4863 55
      vertex 3.01109 3.34415 55
    endloop
  endfacet
  facet normal 0 0 1
    outer loop
      vertex 3.01109 3.34415 55
      vertex 0.772542 2.37764 55
      vertex 3.64058 2.64503 55
    endloop
  endfacet
  facet normal 0 0 1
    outer loop
      vertex 0.772542 2.37764 55
      vertex 1.25 2.16506 55
      vertex 3.64058 2.64503 55
    endloop
  endfacet
  facet normal 0 0 1
    outer loop
      vertex 3.64058 2.64503 55
      vertex 1.67283 1.85786 55
      vertex 4.11095 1.83031 55
    endloop
  endfacet
  facet normal 0 0 1
    outer loop
      vertex -2.02254 1.46946 55
      vertex -1.67283 1.85786 55
      vertex -4.40166 0.935603 55
    endloop
  endfacet
  facet normal 0 0 1
    outer loop
      vertex 4.11095 1.83031 55
      vertex 2.02254 1.46946 55
      vertex 4.40166 0.935603 55
    endloop
  endfacet
  facet normal 0 0 1
    outer loop
      vertex 2.02254 1.46946 55
      vertex 2.28386 1.01684 55
      vertex 4.40166 0.935603 55
    endloop
  endfacet
  facet normal 0 0 1
    outer loop
      vertex 4.40166 0.935603 55
      vertex 2.44537 0.519779 55
      vertex 4.5 0 55
    endloop
  endfacet
  facet normal 0 0 1
    outer loop
      vertex 2.02254 -1.46946 55
      vertex 1.67283 -1.85786 55
      vertex 3.64058 -2.64503 55
    endloop
  endfacet
  facet normal 0 0 1
    outer loop
      vertex 4.5 0 55
      vertex 2.5 0 55
      vertex 4.40166 -0.935603 55
    endloop
  endfacet
  facet normal 0 0 1
    outer loop
      vertex -2.28386 1.01684 55
      vertex -2.02254 1.46946 55
      vertex -4.40166 0.935603 55
    endloop
  endfacet
  facet normal 0 0 1
    outer loop
      vertex 2.5 0 55
      vertex 2.44537 -0.519779 55
      vertex 4.40166 -0.935603 55
    endloop
  endfacet
  facet normal 0 0 1
    outer loop
      vertex 4.40166 -0.935603 55
      vertex 2.28386 -1.01684 55
      vertex 4.11095 -1.83031 55
    endloop
  endfacet
  facet normal 0 0 1
    outer loop
      vertex 4.11095 -1.83031 55
      vertex 2.02254 -1.46946 55
      vertex 3.64058 -2.64503 55
    endloop
  endfacet
  facet normal 0 0 1
    outer loop
      vertex 2.44537 -0.519779 55
      vertex 2.28386 -1.01684 55
      vertex 4.40166 -0.935603 55
    endloop
  endfacet
  facet normal 0 0 1
    outer loop
      vertex 3.64058 -2.64503 55
      vertex 1.67283 -1.85786 55
      vertex 3.01109 -3.34415 55
    endloop
  endfacet
  facet normal 0 0 1
    outer loop
      vertex 1.67283 -1.85786 55
      vertex 1.25 -2.16506 55
      vertex 3.01109 -3.34415 55
    endloop
  endfacet
  facet normal 0 0 1
    outer loop
      vertex 3.01109 -3.34415 55
      vertex 0.772542 -2.37764 55
      vertex 2.25 -3.89711 55
    endloop
  endfacet
  facet normal 0 0 1
    outer loop
      vertex 0.772542 -2.37764 55
      vertex 0.261321 -2.4863 55
      vertex 2.25 -3.89711 55
    endloop
  endfacet
  facet normal 0 0 1
    outer loop
      vertex 2.25 -3.89711 55
      vertex 0.261321 -2.4863 55
      vertex 1.39058 -4.27975 55
    endloop
  endfacet
  facet normal 0 0 1
    outer loop
      vertex 0.261321 -2.4863 55
      vertex -0.261321 -2.4863 55
      vertex 1.39058 -4.27975 55
    endloop
  endfacet
  facet normal 0 0 1
    outer loop
      vertex 1.39058 -4.27975 55
      vertex -0.772542 -2.37764 55
      vertex 0.470378 -4.47535 55
    endloop
  endfacet
  facet normal 0 0 1
    outer loop
      vertex -0.772542 -2.37764 55
      vertex -1.25 -2.16506 55
      vertex 0.470378 -4.47535 55
    endloop
  endfacet
  facet normal 0 0 1
    outer loop
      vertex -1.25 -2.16506 55
      vertex -1.67283 -1.85786 55
      vertex 0.470378 -4.47535 55
    endloop
  endfacet
  facet normal 0 0 1
    outer loop
      vertex -2.02254 -1.46946 55
      vertex -4.40166 0.935603 55
      vertex -1.67283 -1.85786 55
    endloop
  endfacet
  facet normal 0 0 1
    outer loop
      vertex -0.261321 -2.4863 55
      vertex -0.772542 -2.37764 55
      vertex 1.39058 -4.27975 55
    endloop
  endfacet
  facet normal 0 0 1
    outer loop
      vertex -2.28386 -1.01684 55
      vertex -2.44537 -0.519779 55
      vertex -4.40166 0.935603 55
    endloop
  endfacet
  facet normal 0 0 1
    outer loop
      vertex -2.44537 -0.519779 55
      vertex -2.5 0 55
      vertex -4.40166 0.935603 55
    endloop
  endfacet
  facet normal 0 0 1
    outer loop
      vertex 2.28386 -1.01684 55
      vertex 2.02254 -1.46946 55
      vertex 4.11095 -1.83031 55
    endloop
  endfacet
  facet normal 0 0 1
    outer loop
      vertex -2.44537 0.519779 55
      vertex -2.28386 1.01684 55
      vertex -4.40166 0.935603 55
    endloop
  endfacet
endsolid OpenSCAD_Model
