solid OpenSCAD_Model
  facet normal 0 0 -1
    outer loop
      vertex -4.5 0 0
      vertex -4.40166 0.935603 0
      vertex -4.40166 -0.935603 0
    endloop
  endfacet
  facet normal 0 0 -1
    outer loop
      vertex -4.40166 -0.935603 0
      vertex -4.40166 0.935603 0
      vertex -4.11095 1.83031 0
    endloop
  endfacet
  facet normal 0 0 -1
    outer loop
      vertex -4.40166 -0.935603 0
      vertex -4.11095 1.83031 0
      vertex -3.64058 2.64503 0
    endloop
  endfacet
  facet normal 0 0 -1
    outer loop
      vertex -4.40166 -0.935603 0
      vertex -3.64058 2.64503 0
      vertex -3.01109 3.34415 0
    endloop
  endfacet
  facet normal 0 0 -1
    outer loop
      vertex -4.40166 -0.935603 0
      vertex -3.01109 3.34415 0
      vertex -2.25 3.89711 0
    endloop
  endfacet
  facet normal 0 0 -1
    outer loop
      vertex -4.40166 -0.935603 0
      vertex -2.25 3.89711 0
      vertex -1.39058 4.27975 0
    endloop
  endfacet
  facet normal 0 0 -1
    outer loop
      vertex -4.40166 -0.935603 0
      vertex -1.39058 4.27975 0
      vertex -0.470378 4.47535 0
    endloop
  endfacet
  facet normal 0 0 -1
    outer loop
      vertex -1.5 2.59808 0
      vertex -0.470378 4.47535 0
      vertex 0.470378 4.47535 0
    endloop
  endfacet
  facet normal 0 0 -1
    outer loop
      vertex -0.313585 2.98357 0
      vertex 0.470378 4.47535 0
      vertex 1.39058 4.27975 0
    endloop
  endfacet
  facet normal 0 0 -1
    outer loop
      vertex 0.313585 2.98357 0
      vertex 1.39058 4.27975 0
      vertex 2.25 3.89711 0
    endloop
  endfacet
  facet normal 0 0 -1
    outer loop
      vertex 1.5 2.59808 0
      vertex 2.25 3.89711 0
      vertex 3.01109 3.34415 0
    endloop
  endfacet
  facet normal 0 0 -1
    outer loop
      vertex 2.00739 2.22943 0
      vertex 3.01109 3.34415 0
      vertex 3.64058 2.64503 0
    endloop
  endfacet
  facet normal 0 0 -1
    outer loop
      vertex 2.42705 1.76336 0
      vertex 3.64058 2.64503 0
      vertex 4.11095 1.83031 0
    endloop
  endfacet
  facet normal 0 0 -1
    outer loop
      vertex 2.74064 1.22021 0
      vertex 4.11095 1.83031 0
      vertex 4.40166 0.935603 0
    endloop
  endfacet
  facet normal 0 0 -1
    outer loop
      vertex 3 0 0
      vertex 4.40166 0.935603 0
      vertex 4.5 0 0
    endloop
  endfacet
  facet normal 0 0 -1
    outer loop
      vertex 2.93444 -0.623735 0
      vertex 4.5 0 0
      vertex 4.40166 -0.935603 0
    endloop
  endfacet
  facet normal 0 0 -1
    outer loop
      vertex 2.74064 -1.22021 0
      vertex 4.40166 -0.935603 0
      vertex 4.11095 -1.83031 0
    endloop
  endfacet
  facet normal 0 0 -1
    outer loop
      vertex 2.00739 -2.22943 0
      vertex 4.11095 -1.83031 0
      vertex 3.64058 -2.64503 0
    endloop
  endfacet
  facet normal 0 0 -1
    outer loop
      vertex 1.5 -2.59808 0
      vertex 3.64058 -2.64503 0
      vertex 3.01109 -3.34415 0
    endloop
  endfacet
  facet normal 0 0 -1
    outer loop
      vertex 0.313585 -2.98357 0
      vertex 3.01109 -3.34415 0
      vertex 2.25 -3.89711 0
    endloop
  endfacet
  facet normal 0 0 -1
    outer loop
      vertex -0.927051 -2.85317 0
      vertex 2.25 -3.89711 0
      vertex 1.39058 -4.27975 0
    endloop
  endfacet
  facet normal 0 0 -1
    outer loop
      vertex -4.40166 -0.935603 0
      vertex 1.39058 -4.27975 0
      vertex 0.470378 -4.47535 0
    endloop
  endfacet
  facet normal 0 0 -1
    outer loop
      vertex -4.40166 -0.935603 0
      vertex 0.470378 -4.47535 0
      vertex -0.470378 -4.47535 0
    endloop
  endfacet
  facet normal 0 0 -1
    outer loop
      vertex -4.40166 -0.935603 0
      vertex -0.470378 -4.47535 0
      vertex -1.39058 -4.27975 0
    endloop
  endfacet
  facet normal 0 0 -1
    outer loop
      vertex -4.40166 -0.935603 0
      vertex -1.39058 -4.27975 0
      vertex -2.25 -3.89711 0
    endloop
  endfacet
  facet normal 0 0 -1
    outer loop
      vertex -4.40166 -0.935603 0
      vertex -2.25 -3.89711 0
      vertex -3.01109 -3.34415 0
    endloop
  endfacet
  facet normal 0 0 -1
    outer loop
      vertex -4.40166 -0.935603 0
      vertex -3.01109 -3.34415 0
      vertex -3.64058 -2.64503 0
    endloop
  endfacet
  facet normal 0 0 -1
    outer loop
      vertex -4.40166 -0.935603 0
      vertex -3.64058 -2.64503 0
      vertex -4.11095 -1.83031 0
    endloop
  endfacet
  facet normal 0 0 -1
    outer loop
      vertex -2.93444 -0.623735 0
      vertex -4.40166 -0.935603 0
      vertex -3 0 0
    endloop
  endfacet
  facet normal 0 0 -1
    outer loop
      vertex 3 0 0
      vertex 4.5 0 0
      vertex 2.93444 -0.623735 0
    endloop
  endfacet
  facet normal 0 0 -1
    outer loop
      vertex -2.74064 -1.22021 0
      vertex -4.40166 -0.935603 0
      vertex -2.93444 -0.623735 0
    endloop
  endfacet
  facet normal 0 0 -1
    outer loop
      vertex -2.42705 -1.76336 0
      vertex -4.40166 -0.935603 0
      vertex -2.74064 -1.22021 0
    endloop
  endfacet
  facet normal 0 0 -1
    outer loop
      vertex -2.00739 -2.22943 0
      vertex -4.40166 -0.935603 0
      vertex -2.42705 -1.76336 0
    endloop
  endfacet
  facet normal 0 0 -1
    outer loop
      vertex -0.927051 -2.85317 0
      vertex 1.39058 -4.27975 0
      vertex -1.5 -2.59808 0
    endloop
  endfacet
  facet normal 0 0 -1
    outer loop
      vertex -4.40166 -0.935603 0
      vertex -2.00739 -2.22943 0
      vertex -1.5 -2.59808 0
    endloop
  endfacet
  facet normal 0 0 -1
    outer loop
      vertex -4.40166 -0.935603 0
      vertex -1.5 -2.59808 0
      vertex 1.39058 -4.27975 0
    endloop
  endfacet
  facet normal 0 0 -1
    outer loop
      vertex -0.313585 -2.98357 0
      vertex 2.25 -3.89711 0
      vertex -0.927051 -2.85317 0
    endloop
  endfacet
  facet normal 0 0 -1
    outer loop
      vertex 0.313585 -2.98357 0
      vertex 2.25 -3.89711 0
      vertex -0.313585 -2.98357 0
    endloop
  endfacet
  facet normal 0 0 -1
    outer loop
      vertex 0.927051 -2.85317 0
      vertex 3.01109 -3.34415 0
      vertex 0.313585 -2.98357 0
    endloop
  endfacet
  facet normal 0 0 -1
    outer loop
      vertex 1.5 -2.59808 0
      vertex 3.01109 -3.34415 0
      vertex 0.927051 -2.85317 0
    endloop
  endfacet
  facet normal 0 0 -1
    outer loop
      vertex 2.42705 -1.76336 0
      vertex 4.11095 -1.83031 0
      vertex 2.00739 -2.22943 0
    endloop
  endfacet
  facet normal 0 0 -1
    outer loop
      vertex 2.74064 -1.22021 0
      vertex 4.11095 -1.83031 0
      vertex 2.42705 -1.76336 0
    endloop
  endfacet
  facet normal 0 0 -1
    outer loop
      vertex 2.00739 -2.22943 0
      vertex 3.64058 -2.64503 0
      vertex 1.5 -2.59808 0
    endloop
  endfacet
  facet normal 0 0 -1
    outer loop
      vertex 2.93444 0.623735 0
      vertex 4.40166 0.935603 0
      vertex 3 0 0
    endloop
  endfacet
  facet normal 0 0 -1
    outer loop
      vertex 2.42705 1.76336 0
      vertex 4.11095 1.83031 0
      vertex 2.74064 1.22021 0
    endloop
  endfacet
  facet normal 0 0 -1
    outer loop
      vertex 2.74064 1.22021 0
      vertex 4.40166 0.935603 0
      vertex 2.93444 0.623735 0
    endloop
  endfacet
  facet normal 0 0 -1
    outer loop
      vertex 0.927051 2.85317 0
      vertex 2.25 3.89711 0
      vertex 1.5 2.59808 0
    endloop
  endfacet
  facet normal 0 0 -1
    outer loop
      vertex 0.313585 2.98357 0
      vertex 2.25 3.89711 0
      vertex 0.927051 2.85317 0
    endloop
  endfacet
  facet normal 0 0 -1
    outer loop
      vertex 1.5 2.59808 0
      vertex 3.01109 3.34415 0
      vertex 2.00739 2.22943 0
    endloop
  endfacet
  facet normal 0 0 -1
    outer loop
      vertex -0.927051 2.85317 0
      vertex 0.470378 4.47535 0
      vertex -0.313585 2.98357 0
    endloop
  endfacet
  facet normal 0 0 -1
    outer loop
      vertex -2.00739 2.22943 0
      vertex -0.470378 4.47535 0
      vertex -1.5 2.59808 0
    endloop
  endfacet
  facet normal 0 0 -1
    outer loop
      vertex -2.74064 1.22021 0
      vertex -4.40166 -0.935603 0
      vertex -2.42705 1.76336 0
    endloop
  endfacet
  facet normal 0 0 -1
    outer loop
      vertex -2.42705 1.76336 0
      vertex -0.470378 4.47535 0
      vertex -2.00739 2.22943 0
    endloop
  endfacet
  facet normal 0 0 -1
    outer loop
      vertex -4.40166 -0.935603 0
      vertex -0.470378 4.47535 0
      vertex -2.42705 1.76336 0
    endloop
  endfacet
  facet normal 0 0 -1
    outer loop
      vertex -2.93444 0.623735 0
      vertex -4.40166 -0.935603 0
      vertex -2.74064 1.22021 0
    endloop
  endfacet
  facet normal 0 0 -1
    outer loop
      vertex 2.00739 2.22943 0
      vertex 3.64058 2.64503 0
      vertex 2.42705 1.76336 0
    endloop
  endfacet
  facet normal 0 0 -1
    outer loop
      vertex -3 0 0
      vertex -4.40166 -0.935603 0
      vertex -2.93444 0.623735 0
    endloop
  endfacet
  facet normal 0 0 -1
    outer loop
      vertex -1.5 2.59808 0
      vertex 0.470378 4.47535 0
      vertex -0.927051 2.85317 0
    endloop
  endfacet
  facet normal 0 0 -1
    outer loop
      vertex -0.313585 2.98357 0
      vertex 1.39058 4.27975 0
      vertex 0.313585 2.98357 0
    endloop
  endfacet
  facet normal 0 0 -1
    outer loop
      vertex 2.93444 -0.623735 0
      vertex 4.40166 -0.935603 0
      vertex 2.74064 -1.22021 0
    endloop
  endfacet
  facet normal -0.994522 0.104529 0
    outer loop
      vertex -4.5 0 0
      vertex -4.5 0 55
      vertex -4.40166 0.935603 0
    endloop
  endfacet
  facet normal -0.994522 0.104529 0
    outer loop
      vertex -4.40166 0.935603 0
      vertex -4.5 0 55
      vertex -4.40166 0.935603 55
    endloop
  endfacet
  facet normal -0.994522 -0.104529 0
    outer loop
      vertex -4.5 0 0
      vertex -4.40166 -0.935603 0
      vertex -4.5 0 55
    endloop
  endfacet
  facet normal -0.994522 -0.104529 0
    outer loop
      vertex -4.5 0 55
      vertex -4.40166 -0.935603 0
      vertex -4.40166 -0.935603 55
    endloop
  endfacet
  facet normal -0.951057 -0.309016 0
    outer loop
      vertex -4.40166 -0.935603 0
      vertex -4.11095 -1.83031 0
      vertex -4.40166 -0.935603 55
    endloop
  endfacet
  facet normal -0.951057 -0.309016 0
    outer loop
      vertex -4.40166 -0.935603 55
      vertex -4.11095 -1.83031 0
      vertex -4.11095 -1.83031 55
    endloop
  endfacet
  facet normal -0.866025 -0.500001 0
    outer loop
      vertex -4.11095 -1.83031 0
      vertex -3.64058 -2.64503 0
      vertex -4.11095 -1.83031 55
    endloop
  endfacet
  facet normal -0.866025 -0.500001 0
    outer loop
      vertex -4.11095 -1.83031 55
      vertex -3.64058 -2.64503 0
      vertex -3.64058 -2.64503 55
    endloop
  endfacet
  facet normal -0.743145 -0.66913 0
    outer loop
      vertex -3.64058 -2.64503 0
      vertex -3.01109 -3.34415 0
      vertex -3.64058 -2.64503 55
    endloop
  endfacet
  facet normal -0.743145 -0.66913 0
    outer loop
      vertex -3.64058 -2.64503 55
      vertex -3.01109 -3.34415 0
      vertex -3.01109 -3.34415 55
    endloop
  endfacet
  facet normal -0.587785 -0.809017 0
    outer loop
      vertex -3.01109 -3.34415 55
      vertex -3.01109 -3.34415 0
      vertex -2.25 -3.89711 0
    endloop
  endfacet
  facet normal -0.587785 -0.809017 0
    outer loop
      vertex -2.25 -3.89711 55
      vertex -3.01109 -3.34415 55
      vertex -2.25 -3.89711 0
    endloop
  endfacet
  facet normal -0.406736 -0.913546 0
    outer loop
      vertex -2.25 -3.89711 55
      vertex -2.25 -3.89711 0
      vertex -1.39058 -4.27975 0
    endloop
  endfacet
  facet normal -0.406736 -0.913546 0
    outer loop
      vertex -1.39058 -4.27975 55
      vertex -2.25 -3.89711 55
      vertex -1.39058 -4.27975 0
    endloop
  endfacet
  facet normal -0.207913 -0.978147 0
    outer loop
      vertex -1.39058 -4.27975 55
      vertex -1.39058 -4.27975 0
      vertex -0.470378 -4.47535 0
    endloop
  endfacet
  facet normal -0.207913 -0.978147 0
    outer loop
      vertex -0.470378 -4.47535 55
      vertex -1.39058 -4.27975 55
      vertex -0.470378 -4.47535 0
    endloop
  endfacet
  facet normal 0 -1 0
    outer loop
      vertex -0.470378 -4.47535 55
      vertex -0.470378 -4.47535 0
      vertex 0.470378 -4.47535 0
    endloop
  endfacet
  facet normal 0 -1 0
    outer loop
      vertex 0.470378 -4.47535 55
      vertex -0.470378 -4.47535 55
      vertex 0.470378 -4.47535 0
    endloop
  endfacet
  facet normal 0.207913 -0.978147 0
    outer loop
      vertex 0.470378 -4.47535 55
      vertex 0.470378 -4.47535 0
      vertex 1.39058 -4.27975 0
    endloop
  endfacet
  facet normal 0.207913 -0.978147 0
    outer loop
      vertex 1.39058 -4.27975 55
      vertex 0.470378 -4.47535 55
      vertex 1.39058 -4.27975 0
    endloop
  endfacet
  facet normal 0.406736 -0.913546 0
    outer loop
      vertex 1.39058 -4.27975 55
      vertex 1.39058 -4.27975 0
      vertex 2.25 -3.89711 0
    endloop
  endfacet
  facet normal 0.406736 -0.913546 0
    outer loop
      vertex 2.25 -3.89711 55
      vertex 1.39058 -4.27975 55
      vertex 2.25 -3.89711 0
    endloop
  endfacet
  facet normal 0.587785 -0.809017 0
    outer loop
      vertex 2.25 -3.89711 55
      vertex 2.25 -3.89711 0
      vertex 3.01109 -3.34415 0
    endloop
  endfacet
  facet normal 0.587785 -0.809017 0
    outer loop
      vertex 3.01109 -3.34415 55
      vertex 2.25 -3.89711 55
      vertex 3.01109 -3.34415 0
    endloop
  endfacet
  facet normal 0.743145 -0.66913 0
    outer loop
      vertex 3.01109 -3.34415 55
      vertex 3.01109 -3.34415 0
      vertex 3.64058 -2.64503 0
    endloop
  endfacet
  facet normal 0.743145 -0.66913 0
    outer loop
      vertex 3.64058 -2.64503 55
      vertex 3.01109 -3.34415 55
      vertex 3.64058 -2.64503 0
    endloop
  endfacet
  facet normal 0.866025 -0.500001 0
    outer loop
      vertex 3.64058 -2.64503 55
      vertex 3.64058 -2.64503 0
      vertex 4.11095 -1.83031 0
    endloop
  endfacet
  facet normal 0.866025 -0.500001 0
    outer loop
      vertex 4.11095 -1.83031 55
      vertex 3.64058 -2.64503 55
      vertex 4.11095 -1.83031 0
    endloop
  endfacet
  facet normal 0.951057 -0.309016 0
    outer loop
      vertex 4.11095 -1.83031 55
      vertex 4.11095 -1.83031 0
      vertex 4.40166 -0.935603 0
    endloop
  endfacet
  facet normal 0.951057 -0.309016 0
    outer loop
      vertex 4.40166 -0.935603 55
      vertex 4.11095 -1.83031 55
      vertex 4.40166 -0.935603 0
    endloop
  endfacet
  facet normal 0.994522 -0.104529 0
    outer loop
      vertex 4.40166 -0.935603 55
      vertex 4.40166 -0.935603 0
      vertex 4.5 0 0
    endloop
  endfacet
  facet normal 0.994522 -0.104529 0
    outer loop
      vertex 4.5 0 55
      vertex 4.40166 -0.935603 55
      vertex 4.5 0 0
    endloop
  endfacet
  facet normal 0.994522 0.104529 0
    outer loop
      vertex 4.5 0 0
      vertex 4.40166 0.935603 0
      vertex 4.40166 0.935603 55
    endloop
  endfacet
  facet normal 0.994522 0.104529 0
    outer loop
      vertex 4.5 0 55
      vertex 4.5 0 0
      vertex 4.40166 0.935603 55
    endloop
  endfacet
  facet normal 0.951057 0.309016 0
    outer loop
      vertex 4.40166 0.935603 0
      vertex 4.11095 1.83031 0
      vertex 4.11095 1.83031 55
    endloop
  endfacet
  facet normal 0.951057 0.309016 0
    outer loop
      vertex 4.40166 0.935603 55
      vertex 4.40166 0.935603 0
      vertex 4.11095 1.83031 55
    endloop
  endfacet
  facet normal 0.866025 0.500001 0
    outer loop
      vertex 4.11095 1.83031 0
      vertex 3.64058 2.64503 0
      vertex 3.64058 2.64503 55
    endloop
  endfacet
  facet normal 0.866025 0.500001 0
    outer loop
      vertex 4.11095 1.83031 55
      vertex 4.11095 1.83031 0
      vertex 3.64058 2.64503 55
    endloop
  endfacet
  facet normal 0.743145 0.66913 0
    outer loop
      vertex 3.64058 2.64503 0
      vertex 3.01109 3.34415 0
      vertex 3.01109 3.34415 55
    endloop
  endfacet
  facet normal 0.743145 0.66913 0
    outer loop
      vertex 3.64058 2.64503 55
      vertex 3.64058 2.64503 0
      vertex 3.01109 3.34415 55
    endloop
  endfacet
  facet normal 0.587785 0.809017 0
    outer loop
      vertex 2.25 3.89711 0
      vertex 2.25 3.89711 55
      vertex 3.01109 3.34415 0
    endloop
  endfacet
  facet normal 0.587785 0.809017 0
    outer loop
      vertex 3.01109 3.34415 0
      vertex 2.25 3.89711 55
      vertex 3.01109 3.34415 55
    endloop
  endfacet
  facet normal 0.406736 0.913546 0
    outer loop
      vertex 1.39058 4.27975 0
      vertex 1.39058 4.27975 55
      vertex 2.25 3.89711 0
    endloop
  endfacet
  facet normal 0.406736 0.913546 0
    outer loop
      vertex 2.25 3.89711 0
      vertex 1.39058 4.27975 55
      vertex 2.25 3.89711 55
    endloop
  endfacet
  facet normal 0.207913 0.978147 0
    outer loop
      vertex 0.470378 4.47535 0
      vertex 0.470378 4.47535 55
      vertex 1.39058 4.27975 0
    endloop
  endfacet
  facet normal 0.207913 0.978147 0
    outer loop
      vertex 1.39058 4.27975 0
      vertex 0.470378 4.47535 55
      vertex 1.39058 4.27975 55
    endloop
  endfacet
  facet normal 0 1 0
    outer loop
      vertex -0.470378 4.47535 0
      vertex -0.470378 4.47535 55
      vertex 0.470378 4.47535 0
    endloop
  endfacet
  facet normal 0 1 0
    outer loop
      vertex 0.470378 4.47535 0
      vertex -0.470378 4.47535 55
      vertex 0.470378 4.47535 55
    endloop
  endfacet
  facet normal -0.207913 0.978147 0
    outer loop
      vertex -1.39058 4.27975 0
      vertex -1.39058 4.27975 55
      vertex -0.470378 4.47535 0
    endloop
  endfacet
  facet normal -0.207913 0.978147 0
    outer loop
      vertex -0.470378 4.47535 0
      vertex -1.39058 4.27975 55
      vertex -0.470378 4.47535 55
    endloop
  endfacet
  facet normal -0.406736 0.913546 0
    outer loop
      vertex -2.25 3.89711 0
      vertex -2.25 3.89711 55
      vertex -1.39058 4.27975 0
    endloop
  endfacet
  facet normal -0.406736 0.913546 0
    outer loop
      vertex -1.39058 4.27975 0
      vertex -2.25 3.89711 55
      vertex -1.39058 4.27975 55
    endloop
  endfacet
  facet normal -0.587785 0.809017 0
    outer loop
      vertex -3.01109 3.34415 0
      vertex -3.01109 3.34415 55
      vertex -2.25 3.89711 0
    endloop
  endfacet
  facet normal -0.587785 0.809017 0
    outer loop
      vertex -2.25 3.89711 0
      vertex -3.01109 3.34415 55
      vertex -2.25 3.89711 55
    endloop
  endfacet
  facet normal -0.743145 0.66913 0
    outer loop
      vertex -3.64058 2.64503 0
      vertex -3.64058 2.64503 55
      vertex -3.01109 3.34415 0
    endloop
  endfacet
  facet normal -0.743145 0.66913 0
    outer loop
      vertex -3.01109 3.34415 0
      vertex -3.64058 2.64503 55
      vertex -3.01109 3.34415 55
    endloop
  endfacet
  facet normal -0.866025 0.500001 0
    outer loop
      vertex -4.11095 1.83031 0
      vertex -4.11095 1.83031 55
      vertex -3.64058 2.64503 0
    endloop
  endfacet
  facet normal -0.866025 0.500001 0
    outer loop
      vertex -3.64058 2.64503 0
      vertex -4.11095 1.83031 55
      vertex -3.64058 2.64503 55
    endloop
  endfacet
  facet normal -0.951057 0.309016 0
    outer loop
      vertex -4.40166 0.935603 0
      vertex -4.40166 0.935603 55
      vertex -4.11095 1.83031 0
    endloop
  endfacet
  facet normal -0.951057 0.309016 0
    outer loop
      vertex -4.11095 1.83031 0
      vertex -4.40166 0.935603 55
      vertex -4.11095 1.83031 55
    endloop
  endfacet
  facet normal 0.994522 0.104528 0
    outer loop
      vertex -3 0 55
      vertex -2.93444 -0.623735 55
      vertex -2.93444 -0.623735 0
    endloop
  endfacet
  facet normal 0.994522 0.104528 0
    outer loop
      vertex -3 0 0
      vertex -3 0 55
      vertex -2.93444 -0.623735 0
    endloop
  endfacet
  facet normal 0.994522 -0.104528 0
    outer loop
      vertex -2.93444 0.623735 0
      vertex -2.93444 0.623735 55
      vertex -3 0 55
    endloop
  endfacet
  facet normal 0.994522 -0.104528 0
    outer loop
      vertex -3 0 0
      vertex -2.93444 0.623735 0
      vertex -3 0 55
    endloop
  endfacet
  facet normal 0.951056 -0.309018 0
    outer loop
      vertex -2.74064 1.22021 0
      vertex -2.74064 1.22021 55
      vertex -2.93444 0.623735 55
    endloop
  endfacet
  facet normal 0.951056 -0.309018 0
    outer loop
      vertex -2.93444 0.623735 0
      vertex -2.74064 1.22021 0
      vertex -2.93444 0.623735 55
    endloop
  endfacet
  facet normal 0.866026 -0.499999 0
    outer loop
      vertex -2.42705 1.76336 0
      vertex -2.42705 1.76336 55
      vertex -2.74064 1.22021 55
    endloop
  endfacet
  facet normal 0.866026 -0.499999 0
    outer loop
      vertex -2.74064 1.22021 0
      vertex -2.42705 1.76336 0
      vertex -2.74064 1.22021 55
    endloop
  endfacet
  facet normal 0.743144 -0.669131 0
    outer loop
      vertex -2.00739 2.22943 0
      vertex -2.00739 2.22943 55
      vertex -2.42705 1.76336 55
    endloop
  endfacet
  facet normal 0.743144 -0.669131 0
    outer loop
      vertex -2.42705 1.76336 0
      vertex -2.00739 2.22943 0
      vertex -2.42705 1.76336 55
    endloop
  endfacet
  facet normal 0.587785 -0.809017 0
    outer loop
      vertex -1.5 2.59808 0
      vertex -1.5 2.59808 55
      vertex -2.00739 2.22943 55
    endloop
  endfacet
  facet normal 0.587785 -0.809017 0
    outer loop
      vertex -2.00739 2.22943 0
      vertex -1.5 2.59808 0
      vertex -2.00739 2.22943 55
    endloop
  endfacet
  facet normal 0.406738 -0.913545 0
    outer loop
      vertex -0.927051 2.85317 0
      vertex -0.927051 2.85317 55
      vertex -1.5 2.59808 55
    endloop
  endfacet
  facet normal 0.406738 -0.913545 0
    outer loop
      vertex -1.5 2.59808 0
      vertex -0.927051 2.85317 0
      vertex -1.5 2.59808 55
    endloop
  endfacet
  facet normal 0.207911 -0.978148 0
    outer loop
      vertex -0.313585 2.98357 0
      vertex -0.313585 2.98357 55
      vertex -0.927051 2.85317 55
    endloop
  endfacet
  facet normal 0.207911 -0.978148 0
    outer loop
      vertex -0.927051 2.85317 0
      vertex -0.313585 2.98357 0
      vertex -0.927051 2.85317 55
    endloop
  endfacet
  facet normal 0 -1 0
    outer loop
      vertex 0.313585 2.98357 0
      vertex 0.313585 2.98357 55
      vertex -0.313585 2.98357 55
    endloop
  endfacet
  facet normal 0 -1 0
    outer loop
      vertex -0.313585 2.98357 0
      vertex 0.313585 2.98357 0
      vertex -0.313585 2.98357 55
    endloop
  endfacet
  facet normal -0.207911 -0.978148 0
    outer loop
      vertex 0.927051 2.85317 0
      vertex 0.927051 2.85317 55
      vertex 0.313585 2.98357 55
    endloop
  endfacet
  facet normal -0.207911 -0.978148 0
    outer loop
      vertex 0.313585 2.98357 0
      vertex 0.927051 2.85317 0
      vertex 0.313585 2.98357 55
    endloop
  endfacet
  facet normal -0.406738 -0.913545 0
    outer loop
      vertex 1.5 2.59808 0
      vertex 1.5 2.59808 55
      vertex 0.927051 2.85317 55
    endloop
  endfacet
  facet normal -0.406738 -0.913545 0
    outer loop
      vertex 0.927051 2.85317 0
      vertex 1.5 2.59808 0
      vertex 0.927051 2.85317 55
    endloop
  endfacet
  facet normal -0.587785 -0.809017 0
    outer loop
      vertex 2.00739 2.22943 0
      vertex 2.00739 2.22943 55
      vertex 1.5 2.59808 55
    endloop
  endfacet
  facet normal -0.587785 -0.809017 0
    outer loop
      vertex 1.5 2.59808 0
      vertex 2.00739 2.22943 0
      vertex 1.5 2.59808 55
    endloop
  endfacet
  facet normal -0.743144 -0.669131 0
    outer loop
      vertex 2.42705 1.76336 55
      vertex 2.00739 2.22943 55
      vertex 2.42705 1.76336 0
    endloop
  endfacet
  facet normal -0.743144 -0.669131 0
    outer loop
      vertex 2.42705 1.76336 0
      vertex 2.00739 2.22943 55
      vertex 2.00739 2.22943 0
    endloop
  endfacet
  facet normal -0.866026 -0.499999 0
    outer loop
      vertex 2.74064 1.22021 55
      vertex 2.42705 1.76336 55
      vertex 2.74064 1.22021 0
    endloop
  endfacet
  facet normal -0.866026 -0.499999 0
    outer loop
      vertex 2.74064 1.22021 0
      vertex 2.42705 1.76336 55
      vertex 2.42705 1.76336 0
    endloop
  endfacet
  facet normal -0.951056 -0.309018 0
    outer loop
      vertex 2.93444 0.623735 55
      vertex 2.74064 1.22021 55
      vertex 2.93444 0.623735 0
    endloop
  endfacet
  facet normal -0.951056 -0.309018 0
    outer loop
      vertex 2.93444 0.623735 0
      vertex 2.74064 1.22021 55
      vertex 2.74064 1.22021 0
    endloop
  endfacet
  facet normal -0.994522 -0.104528 0
    outer loop
      vertex 3 0 55
      vertex 2.93444 0.623735 55
      vertex 3 0 0
    endloop
  endfacet
  facet normal -0.994522 -0.104528 0
    outer loop
      vertex 3 0 0
      vertex 2.93444 0.623735 55
      vertex 2.93444 0.623735 0
    endloop
  endfacet
  facet normal -0.994522 0.104528 0
    outer loop
      vertex 3 0 55
      vertex 3 0 0
      vertex 2.93444 -0.623735 55
    endloop
  endfacet
  facet normal -0.994522 0.104528 0
    outer loop
      vertex 2.93444 -0.623735 55
      vertex 3 0 0
      vertex 2.93444 -0.623735 0
    endloop
  endfacet
  facet normal -0.951056 0.309018 0
    outer loop
      vertex 2.93444 -0.623735 55
      vertex 2.93444 -0.623735 0
      vertex 2.74064 -1.22021 55
    endloop
  endfacet
  facet normal -0.951056 0.309018 0
    outer loop
      vertex 2.74064 -1.22021 55
      vertex 2.93444 -0.623735 0
      vertex 2.74064 -1.22021 0
    endloop
  endfacet
  facet normal -0.866026 0.499999 0
    outer loop
      vertex 2.74064 -1.22021 55
      vertex 2.74064 -1.22021 0
      vertex 2.42705 -1.76336 55
    endloop
  endfacet
  facet normal -0.866026 0.499999 0
    outer loop
      vertex 2.42705 -1.76336 55
      vertex 2.74064 -1.22021 0
      vertex 2.42705 -1.76336 0
    endloop
  endfacet
  facet normal -0.743144 0.669131 0
    outer loop
      vertex 2.42705 -1.76336 55
      vertex 2.42705 -1.76336 0
      vertex 2.00739 -2.22943 55
    endloop
  endfacet
  facet normal -0.743144 0.669131 0
    outer loop
      vertex 2.00739 -2.22943 55
      vertex 2.42705 -1.76336 0
      vertex 2.00739 -2.22943 0
    endloop
  endfacet
  facet normal -0.587785 0.809017 0
    outer loop
      vertex 2.00739 -2.22943 55
      vertex 2.00739 -2.22943 0
      vertex 1.5 -2.59808 55
    endloop
  endfacet
  facet normal -0.587785 0.809017 0
    outer loop
      vertex 1.5 -2.59808 55
      vertex 2.00739 -2.22943 0
      vertex 1.5 -2.59808 0
    endloop
  endfacet
  facet normal -0.406738 0.913545 0
    outer loop
      vertex 1.5 -2.59808 55
      vertex 1.5 -2.59808 0
      vertex 0.927051 -2.85317 55
    endloop
  endfacet
  facet normal -0.406738 0.913545 0
    outer loop
      vertex 0.927051 -2.85317 55
      vertex 1.5 -2.59808 0
      vertex 0.927051 -2.85317 0
    endloop
  endfacet
  facet normal -0.207911 0.978148 0
    outer loop
      vertex 0.927051 -2.85317 55
      vertex 0.927051 -2.85317 0
      vertex 0.313585 -2.98357 55
    endloop
  endfacet
  facet normal -0.207911 0.978148 0
    outer loop
      vertex 0.313585 -2.98357 55
      vertex 0.927051 -2.85317 0
      vertex 0.313585 -2.98357 0
    endloop
  endfacet
  facet normal 0 1 0
    outer loop
      vertex 0.313585 -2.98357 55
      vertex 0.313585 -2.98357 0
      vertex -0.313585 -2.98357 55
    endloop
  endfacet
  facet normal 0 1 0
    outer loop
      vertex -0.313585 -2.98357 55
      vertex 0.313585 -2.98357 0
      vertex -0.313585 -2.98357 0
    endloop
  endfacet
  facet normal 0.207911 0.978148 0
    outer loop
      vertex -0.313585 -2.98357 55
      vertex -0.313585 -2.98357 0
      vertex -0.927051 -2.85317 55
    endloop
  endfacet
  facet normal 0.207911 0.978148 0
    outer loop
      vertex -0.927051 -2.85317 55
      vertex -0.313585 -2.98357 0
      vertex -0.927051 -2.85317 0
    endloop
  endfacet
  facet normal 0.406738 0.913545 0
    outer loop
      vertex -0.927051 -2.85317 55
      vertex -0.927051 -2.85317 0
      vertex -1.5 -2.59808 55
    endloop
  endfacet
  facet normal 0.406738 0.913545 0
    outer loop
      vertex -1.5 -2.59808 55
      vertex -0.927051 -2.85317 0
      vertex -1.5 -2.59808 0
    endloop
  endfacet
  facet normal 0.587785 0.809017 0
    outer loop
      vertex -1.5 -2.59808 55
      vertex -1.5 -2.59808 0
      vertex -2.00739 -2.22943 55
    endloop
  endfacet
  facet normal 0.587785 0.809017 0
    outer loop
      vertex -2.00739 -2.22943 55
      vertex -1.5 -2.59808 0
      vertex -2.00739 -2.22943 0
    endloop
  endfacet
  facet normal 0.743144 0.669131 0
    outer loop
      vertex -2.42705 -1.76336 55
      vertex -2.00739 -2.22943 55
      vertex -2.00739 -2.22943 0
    endloop
  endfacet
  facet normal 0.743144 0.669131 0
    outer loop
      vertex -2.42705 -1.76336 0
      vertex -2.42705 -1.76336 55
      vertex -2.00739 -2.22943 0
    endloop
  endfacet
  facet normal 0.866026 0.499999 0
    outer loop
      vertex -2.74064 -1.22021 55
      vertex -2.42705 -1.76336 55
      vertex -2.42705 -1.76336 0
    endloop
  endfacet
  facet normal 0.866026 0.499999 0
    outer loop
      vertex -2.74064 -1.22021 0
      vertex -2.74064 -1.22021 55
      vertex -2.42705 -1.76336 0
    endloop
  endfacet
  facet normal 0.951056 0.309018 0
    outer loop
      vertex -2.93444 -0.623735 55
      vertex -2.74064 -1.22021 55
      vertex -2.74064 -1.22021 0
    endloop
  endfacet
  facet normal 0.951056 0.309018 0
    outer loop
      vertex -2.93444 -0.623735 0
      vertex -2.93444 -0.623735 55
      vertex -2.74064 -1.22021 0
    endloop
  endfacet
  facet normal 0 0 1
    outer loop
      vertex -4.40166 0.935603 55
      vertex -4.5 0 55
      vertex -4.40166 -0.935603 55
    endloop
  endfacet
  facet normal 0 0 1
    outer loop
      vertex -3.64058 -2.64503 55
      vertex -4.40166 0.935603 55
      vertex -4.11095 -1.83031 55
    endloop
  endfacet
  facet normal 0 0 1
    outer loop
      vertex -4.11095 -1.83031 55
      vertex -4.40166 0.935603 55
      vertex -4.40166 -0.935603 55
    endloop
  endfacet
  facet normal 0 0 1
    outer loop
      vertex -3.01109 -3.34415 55
      vertex -4.40166 0.935603 55
      vertex -3.64058 -2.64503 55
    endloop
  endfacet
  facet normal 0 0 1
    outer loop
      vertex -2.25 -3.89711 55
      vertex -4.40166 0.935603 55
      vertex -3.01109 -3.34415 55
    endloop
  endfacet
  facet normal 0 0 1
    outer loop
      vertex -1.39058 -4.27975 55
      vertex -4.40166 0.935603 55
      vertex -2.25 -3.89711 55
    endloop
  endfacet
  facet normal 0 0 1
    outer loop
      vertex -0.470378 -4.47535 55
      vertex -4.40166 0.935603 55
      vertex -1.39058 -4.27975 55
    endloop
  endfacet
  facet normal 0 0 1
    outer loop
      vertex -2.42705 -1.76336 55
      vertex -4.40166 0.935603 55
      vertex -0.470378 -4.47535 55
    endloop
  endfacet
  facet normal 0 0 1
    outer loop
      vertex 2.42705 1.76336 55
      vertex 2.74064 1.22021 55
      vertex 4.11095 1.83031 55
    endloop
  endfacet
  facet normal 0 0 1
    outer loop
      vertex -0.313585 2.98357 55
      vertex 0.313585 2.98357 55
      vertex 2.25 3.89711 55
    endloop
  endfacet
  facet normal 0 0 1
    outer loop
      vertex 0.927051 2.85317 55
      vertex 1.5 2.59808 55
      vertex 3.01109 3.34415 55
    endloop
  endfacet
  facet normal 0 0 1
    outer loop
      vertex 0.470378 4.47535 55
      vertex -4.40166 0.935603 55
      vertex 1.39058 4.27975 55
    endloop
  endfacet
  facet normal 0 0 1
    outer loop
      vertex -0.470378 4.47535 55
      vertex -4.40166 0.935603 55
      vertex 0.470378 4.47535 55
    endloop
  endfacet
  facet normal 0 0 1
    outer loop
      vertex -1.39058 4.27975 55
      vertex -4.40166 0.935603 55
      vertex -0.470378 4.47535 55
    endloop
  endfacet
  facet normal 0 0 1
    outer loop
      vertex -2.25 3.89711 55
      vertex -4.40166 0.935603 55
      vertex -1.39058 4.27975 55
    endloop
  endfacet
  facet normal 0 0 1
    outer loop
      vertex -3.01109 3.34415 55
      vertex -4.40166 0.935603 55
      vertex -2.25 3.89711 55
    endloop
  endfacet
  facet normal 0 0 1
    outer loop
      vertex -3.64058 2.64503 55
      vertex -4.40166 0.935603 55
      vertex -3.01109 3.34415 55
    endloop
  endfacet
  facet normal 0 0 1
    outer loop
      vertex -4.11095 1.83031 55
      vertex -4.40166 0.935603 55
      vertex -3.64058 2.64503 55
    endloop
  endfacet
  facet normal 0 0 1
    outer loop
      vertex -2.42705 -1.76336 55
      vertex -2.74064 -1.22021 55
      vertex -4.40166 0.935603 55
    endloop
  endfacet
  facet normal 0 0 1
    outer loop
      vertex 0.313585 -2.98357 55
      vertex -0.313585 -2.98357 55
      vertex 1.39058 -4.27975 55
    endloop
  endfacet
  facet normal 0 0 1
    outer loop
      vertex 2.42705 -1.76336 55
      vertex 2.00739 -2.22943 55
      vertex 3.64058 -2.64503 55
    endloop
  endfacet
  facet normal 0 0 1
    outer loop
      vertex 2.74064 1.22021 55
      vertex 2.93444 0.623735 55
      vertex 4.40166 0.935603 55
    endloop
  endfacet
  facet normal 0 0 1
    outer loop
      vertex -1.5 2.59808 55
      vertex -0.927051 2.85317 55
      vertex 1.39058 4.27975 55
    endloop
  endfacet
  facet normal 0 0 1
    outer loop
      vertex 1.5 2.59808 55
      vertex 2.00739 2.22943 55
      vertex 3.64058 2.64503 55
    endloop
  endfacet
  facet normal 0 0 1
    outer loop
      vertex -1.5 2.59808 55
      vertex -4.40166 0.935603 55
      vertex -2.00739 2.22943 55
    endloop
  endfacet
  facet normal 0 0 1
    outer loop
      vertex 1.39058 4.27975 55
      vertex -4.40166 0.935603 55
      vertex -1.5 2.59808 55
    endloop
  endfacet
  facet normal 0 0 1
    outer loop
      vertex 1.39058 4.27975 55
      vertex -0.927051 2.85317 55
      vertex 2.25 3.89711 55
    endloop
  endfacet
  facet normal 0 0 1
    outer loop
      vertex -0.927051 2.85317 55
      vertex -0.313585 2.98357 55
      vertex 2.25 3.89711 55
    endloop
  endfacet
  facet normal 0 0 1
    outer loop
      vertex 2.25 3.89711 55
      vertex 0.313585 2.98357 55
      vertex 3.01109 3.34415 55
    endloop
  endfacet
  facet normal 0 0 1
    outer loop
      vertex 0.313585 2.98357 55
      vertex 0.927051 2.85317 55
      vertex 3.01109 3.34415 55
    endloop
  endfacet
  facet normal 0 0 1
    outer loop
      vertex 3.01109 3.34415 55
      vertex 1.5 2.59808 55
      vertex 3.64058 2.64503 55
    endloop
  endfacet
  facet normal 0 0 1
    outer loop
      vertex -2.42705 1.76336 55
      vertex -2.00739 2.22943 55
      vertex -4.40166 0.935603 55
    endloop
  endfacet
  facet normal 0 0 1
    outer loop
      vertex 3.64058 2.64503 55
      vertex 2.00739 2.22943 55
      vertex 4.11095 1.83031 55
    endloop
  endfacet
  facet normal 0 0 1
    outer loop
      vertex 2.00739 2.22943 55
      vertex 2.42705 1.76336 55
      vertex 4.11095 1.83031 55
    endloop
  endfacet
  facet normal 0 0 1
    outer loop
      vertex 4.11095 1.83031 55
      vertex 2.74064 1.22021 55
      vertex 4.40166 0.935603 55
    endloop
  endfacet
  facet normal 0 0 1
    outer loop
      vertex 2.00739 -2.22943 55
      vertex 1.5 -2.59808 55
      vertex 3.01109 -3.34415 55
    endloop
  endfacet
  facet normal 0 0 1
    outer loop
      vertex 4.40166 0.935603 55
      vertex 2.93444 0.623735 55
      vertex 4.5 0 55
    endloop
  endfacet
  facet normal 0 0 1
    outer loop
      vertex -2.74064 1.22021 55
      vertex -2.42705 1.76336 55
      vertex -4.40166 0.935603 55
    endloop
  endfacet
  facet normal 0 0 1
    outer loop
      vertex 4.5 0 55
      vertex 3 0 55
      vertex 4.40166 -0.935603 55
    endloop
  endfacet
  facet normal 0 0 1
    outer loop
      vertex 3 0 55
      vertex 2.93444 -0.623735 55
      vertex 4.40166 -0.935603 55
    endloop
  endfacet
  facet normal 0 0 1
    outer loop
      vertex 4.40166 -0.935603 55
      vertex 2.74064 -1.22021 55
      vertex 4.11095 -1.83031 55
    endloop
  endfacet
  facet normal 0 0 1
    outer loop
      vertex 4.11095 -1.83031 55
      vertex 2.42705 -1.76336 55
      vertex 3.64058 -2.64503 55
    endloop
  endfacet
  facet normal 0 0 1
    outer loop
      vertex 2.93444 0.623735 55
      vertex 3 0 55
      vertex 4.5 0 55
    endloop
  endfacet
  facet normal 0 0 1
    outer loop
      vertex 3.64058 -2.64503 55
      vertex 2.00739 -2.22943 55
      vertex 3.01109 -3.34415 55
    endloop
  endfacet
  facet normal 0 0 1
    outer loop
      vertex 2.93444 -0.623735 55
      vertex 2.74064 -1.22021 55
      vertex 4.40166 -0.935603 55
    endloop
  endfacet
  facet normal 0 0 1
    outer loop
      vertex 3.01109 -3.34415 55
      vertex 1.5 -2.59808 55
      vertex 2.25 -3.89711 55
    endloop
  endfacet
  facet normal 0 0 1
    outer loop
      vertex 1.5 -2.59808 55
      vertex 0.927051 -2.85317 55
      vertex 2.25 -3.89711 55
    endloop
  endfacet
  facet normal 0 0 1
    outer loop
      vertex 2.25 -3.89711 55
      vertex 0.313585 -2.98357 55
      vertex 1.39058 -4.27975 55
    endloop
  endfacet
  facet normal 0 0 1
    outer loop
      vertex 1.39058 -4.27975 55
      vertex -0.313585 -2.98357 55
      vertex 0.470378 -4.47535 55
    endloop
  endfacet
  facet normal 0 0 1
    outer loop
      vertex -0.313585 -2.98357 55
      vertex -0.927051 -2.85317 55
      vertex 0.470378 -4.47535 55
    endloop
  endfacet
  facet normal 0 0 1
    outer loop
      vertex 0.470378 -4.47535 55
      vertex -1.5 -2.59808 55
      vertex -0.470378 -4.47535 55
    endloop
  endfacet
  facet normal 0 0 1
    outer loop
      vertex -1.5 -2.59808 55
      vertex -2.00739 -2.22943 55
      vertex -0.470378 -4.47535 55
    endloop
  endfacet
  facet normal 0 0 1
    outer loop
      vertex -2.00739 -2.22943 55
      vertex -2.42705 -1.76336 55
      vertex -0.470378 -4.47535 55
    endloop
  endfacet
  facet normal 0 0 1
    outer loop
      vertex -0.927051 -2.85317 55
      vertex -1.5 -2.59808 55
      vertex 0.470378 -4.47535 55
    endloop
  endfacet
  facet normal 0 0 1
    outer loop
      vertex -2.74064 -1.22021 55
      vertex -2.93444 -0.623735 55
      vertex -4.40166 0.935603 55
    endloop
  endfacet
  facet normal 0 0 1
    outer loop
      vertex -2.93444 -0.623735 55
      vertex -3 0 55
      vertex -4.40166 0.935603 55
    endloop
  endfacet
  facet normal 0 0 1
    outer loop
      vertex 0.927051 -2.85317 55
      vertex 0.313585 -2.98357 55
      vertex 2.25 -3.89711 55
    endloop
  endfacet
  facet normal 0 0 1
    outer loop
      vertex -3 0 55
      vertex -2.93444 0.623735 55
      vertex -4.40166 0.935603 55
    endloop
  endfacet
  facet normal 0 0 1
    outer loop
      vertex 2.74064 -1.22021 55
      vertex 2.42705 -1.76336 55
      vertex 4.11095 -1.83031 55
    endloop
  endfacet
  facet normal 0 0 1
    outer loop
      vertex -2.93444 0.623735 55
      vertex -2.74064 1.22021 55
      vertex -4.40166 0.935603 55
    endloop
  endfacet
endsolid OpenSCAD_Model
