<?xml version="1.0" encoding="UTF-8" standalone="no"?>
<!-- Created with Inkscape (http://www.inkscape.org/) -->

<svg
   xmlns:dc="http://purl.org/dc/elements/1.1/"
   xmlns:cc="http://creativecommons.org/ns#"
   xmlns:rdf="http://www.w3.org/1999/02/22-rdf-syntax-ns#"
   xmlns:svg="http://www.w3.org/2000/svg"
   xmlns="http://www.w3.org/2000/svg"
   xmlns:sodipodi="http://sodipodi.sourceforge.net/DTD/sodipodi-0.dtd"
   xmlns:inkscape="http://www.inkscape.org/namespaces/inkscape"
   width="1077.1653"
   height="1077.1653"
   id="svg4225"
   version="1.1"
   inkscape:version="0.48.3.1 r9886"
   sodipodi:docname="New document 26">
  <defs
     id="defs4227" />
  <sodipodi:namedview
     id="base"
     pagecolor="#ffffff"
     bordercolor="#666666"
     borderopacity="1.0"
     inkscape:pageopacity="0.0"
     inkscape:pageshadow="2"
     inkscape:zoom="1.4"
     inkscape:cx="36.08975"
     inkscape:cy="76.119331"
     inkscape:document-units="mm"
     inkscape:current-layer="layer1"
     showgrid="false"
     units="mm"
     inkscape:window-width="723"
     inkscape:window-height="474"
     inkscape:window-x="0"
     inkscape:window-y="73"
     inkscape:window-maximized="0" />
  <metadata
     id="metadata4230">
    <rdf:RDF>
      <cc:Work
         rdf:about="">
        <dc:format>image/svg+xml</dc:format>
        <dc:type
           rdf:resource="http://purl.org/dc/dcmitype/StillImage" />
        <dc:title></dc:title>
      </cc:Work>
    </rdf:RDF>
  </metadata>
  <g
     inkscape:label="Layer 1"
     inkscape:groupmode="layer"
     id="layer1"
     transform="translate(0,24.803143)">
    <g
       transform="translate(17.716535,-17.716416)"
       style="display:inline"
       id="g3495">
      <path
         transform="matrix(0,-0.52405523,-0.61763652,0,457.6594,1033.1865)"
         d="m 29.285714,695.08997 c 0,5.52284 -5.276644,10 -11.785714,10 -6.50907,0 -11.7857141,-4.47716 -11.7857141,-10 0,-5.52285 5.2766441,-10 11.7857141,-10 6.50907,0 11.785714,4.47715 11.785714,10 z"
         sodipodi:ry="10"
         sodipodi:rx="11.785714"
         sodipodi:cy="695.08997"
         sodipodi:cx="17.5"
         id="path5007"
         style="fill:none;stroke:#000000;stroke-width:0.70866144;stroke-miterlimit:4;stroke-opacity:1;stroke-dasharray:none"
         sodipodi:type="arc" />
      <path
         transform="matrix(-0.52405523,0,0,0.61763652,965.86388,594.70261)"
         d="m 29.285714,695.08997 c 0,5.52284 -5.276644,10 -11.785714,10 -6.50907,0 -11.7857141,-4.47716 -11.7857141,-10 0,-5.52285 5.2766441,-10 11.7857141,-10 6.50907,0 11.785714,4.47715 11.785714,10 z"
         sodipodi:ry="10"
         sodipodi:rx="11.785714"
         sodipodi:cy="695.08997"
         sodipodi:cx="17.5"
         id="path5015"
         style="fill:none;stroke:#000000;stroke-width:0.70866144;stroke-miterlimit:4;stroke-opacity:1;stroke-dasharray:none"
         sodipodi:type="arc" />
      <rect
         style="fill:none;stroke:#000000;stroke-width:0.75994486;stroke-miterlimit:4;stroke-opacity:1;stroke-dasharray:none"
         id="rect5057"
         width="984.27942"
         height="984.27942"
         x="0.37997243"
         y="67.702629"
         rx="10.62172"
         ry="10.621719" />
      <path
         transform="matrix(0.52405523,0,0,-0.61763652,947.52195,524.98205)"
         d="m 29.285714,695.08997 c 0,5.52284 -5.276644,10 -11.785714,10 -6.50907,0 -11.7857141,-4.47716 -11.7857141,-10 0,-5.52285 5.2766441,-10 11.7857141,-10 6.50907,0 11.785714,4.47715 11.785714,10 z"
         sodipodi:ry="10"
         sodipodi:rx="11.785714"
         sodipodi:cy="695.08997"
         sodipodi:cx="17.5"
         id="path5059"
         style="fill:none;stroke:#000000;stroke-width:0.70866144;stroke-miterlimit:4;stroke-opacity:1;stroke-dasharray:none;display:inline"
         sodipodi:type="arc" />
      <path
         transform="matrix(0,-0.52405523,-0.61763652,0,457.6594,104.84007)"
         d="m 29.285714,695.08997 c 0,5.52284 -5.276644,10 -11.785714,10 -6.50907,0 -11.7857141,-4.47716 -11.7857141,-10 0,-5.52285 5.2766441,-10 11.7857141,-10 6.50907,0 11.785714,4.47715 11.785714,10 z"
         sodipodi:ry="10"
         sodipodi:rx="11.785714"
         sodipodi:cy="695.08997"
         sodipodi:cx="17.5"
         id="path5061"
         style="fill:none;stroke:#000000;stroke-width:0.70866144;stroke-miterlimit:4;stroke-opacity:1;stroke-dasharray:none;display:inline"
         sodipodi:type="arc" />
      <path
         sodipodi:type="arc"
         style="fill:none;stroke:#000000;stroke-width:0.10672953;stroke-miterlimit:4;stroke-opacity:1;stroke-dasharray:none;display:inline"
         id="path5063"
         sodipodi:cx="13.889598"
         sodipodi:cy="1048.8267"
         sodipodi:rx="2.7779195"
         sodipodi:ry="2.5253813"
         d="m 16.667517,1048.8267 c 0,1.3947 -1.243717,2.5253 -2.777919,2.5253 -1.534203,0 -2.77792,-1.1306 -2.77792,-2.5253 0,-1.3948 1.243717,-2.5254 2.77792,-2.5254 1.534202,0 2.777919,1.1306 2.777919,2.5254 z"
         transform="matrix(-2.2506008,0,0,2.4756609,618.0316,-2052.6417)" />
      <path
         sodipodi:type="arc"
         style="fill:none;stroke:#000000;stroke-width:0.22594742;stroke-miterlimit:4;stroke-opacity:1;stroke-dasharray:none;display:inline"
         id="path5065"
         sodipodi:cx="18.309015"
         sodipodi:cy="1014.9865"
         sodipodi:rx="5.4295697"
         sodipodi:ry="5.8083773"
         d="m 23.738585,1014.9865 c 0,3.2079 -2.430901,5.8084 -5.42957,5.8084 -2.998668,0 -5.429569,-2.6005 -5.429569,-5.8084 0,-3.2079 2.430901,-5.8084 5.429569,-5.8084 2.998669,0 5.42957,2.6005 5.42957,5.8084 z"
         transform="matrix(-1.151505,0,0,1.0764068,603.24827,-719.42834)" />
      <path
         sodipodi:type="arc"
         style="fill:none;stroke:#000000;stroke-width:0.05513921;stroke-miterlimit:4;stroke-opacity:1;stroke-dasharray:none;display:inline"
         id="path5068"
         sodipodi:cx="65.028572"
         sodipodi:cy="1048.9529"
         sodipodi:rx="1.6414979"
         sodipodi:ry="1.1364216"
         d="m 66.67007,1048.9529 c 0,0.6276 -0.734924,1.1364 -1.641498,1.1364 -0.906574,0 -1.641498,-0.5088 -1.641498,-1.1364 0,-0.6276 0.734924,-1.1364 1.641498,-1.1364 0.906574,0 1.641498,0.5088 1.641498,1.1364 z"
         transform="matrix(-3.8085688,0,0,5.5012662,649.83115,-5244.7425)" />
      <path
         sodipodi:type="arc"
         style="fill:none;stroke:#000000;stroke-width:0.08394035;stroke-miterlimit:4;stroke-opacity:1;stroke-dasharray:none;display:inline"
         id="path5070"
         sodipodi:cx="63.892147"
         sodipodi:cy="1022.689"
         sodipodi:rx="2.0203052"
         sodipodi:ry="2.1465743"
         d="m 65.912452,1022.689 c 0,1.1855 -0.904521,2.1466 -2.020305,2.1466 -1.115784,0 -2.020305,-0.9611 -2.020305,-2.1466 0,-1.1855 0.904521,-2.1465 2.020305,-2.1465 1.115784,0 2.020305,0.961 2.020305,2.1465 z"
         transform="matrix(-3.094558,0,0,2.9125251,599.88331,-2551.6393)" />
      <path
         sodipodi:type="arc"
         style="fill:none;stroke:#000000;stroke-width:0.10672953;stroke-miterlimit:4;stroke-opacity:1;stroke-dasharray:none;display:inline"
         id="path5072"
         sodipodi:cx="13.889598"
         sodipodi:cy="1048.8267"
         sodipodi:rx="2.7779195"
         sodipodi:ry="2.5253813"
         d="m 16.667517,1048.8267 c 0,1.3947 -1.243717,2.5253 -2.777919,2.5253 -1.534203,0 -2.77792,-1.1306 -2.77792,-2.5253 0,-1.3948 1.243717,-2.5254 2.77792,-2.5254 1.534202,0 2.777919,1.1306 2.777919,2.5254 z"
         transform="matrix(-2.2506008,0,0,2.4756609,772.51984,-2288.2717)" />
      <path
         sodipodi:type="arc"
         style="fill:none;stroke:#000000;stroke-width:0.22594742;stroke-miterlimit:4;stroke-opacity:1;stroke-dasharray:none;display:inline"
         id="path5074"
         sodipodi:cx="18.309015"
         sodipodi:cy="1014.9865"
         sodipodi:rx="5.4295697"
         sodipodi:ry="5.8083773"
         d="m 23.738585,1014.9865 c 0,3.2079 -2.430901,5.8084 -5.42957,5.8084 -2.998668,0 -5.429569,-2.6005 -5.429569,-5.8084 0,-3.2079 2.430901,-5.8084 5.429569,-5.8084 2.998669,0 5.42957,2.6005 5.42957,5.8084 z"
         transform="matrix(-1.151505,0,0,1.0764068,757.73651,-955.05822)" />
      <path
         sodipodi:type="arc"
         style="fill:none;stroke:#000000;stroke-width:0.05513921;stroke-miterlimit:4;stroke-opacity:1;stroke-dasharray:none;display:inline"
         id="path5076"
         sodipodi:cx="65.028572"
         sodipodi:cy="1048.9529"
         sodipodi:rx="1.6414979"
         sodipodi:ry="1.1364216"
         d="m 66.67007,1048.9529 c 0,0.6276 -0.734924,1.1364 -1.641498,1.1364 -0.906574,0 -1.641498,-0.5088 -1.641498,-1.1364 0,-0.6276 0.734924,-1.1364 1.641498,-1.1364 0.906574,0 1.641498,0.5088 1.641498,1.1364 z"
         transform="matrix(-3.8085688,0,0,5.5012662,804.31939,-5480.3724)" />
      <path
         sodipodi:type="arc"
         style="fill:none;stroke:#000000;stroke-width:0.08394035;stroke-miterlimit:4;stroke-opacity:1;stroke-dasharray:none;display:inline"
         id="path5078"
         sodipodi:cx="63.892147"
         sodipodi:cy="1022.689"
         sodipodi:rx="2.0203052"
         sodipodi:ry="2.1465743"
         d="m 65.912452,1022.689 c 0,1.1855 -0.904521,2.1466 -2.020305,2.1466 -1.115784,0 -2.020305,-0.9611 -2.020305,-2.1466 0,-1.1855 0.904521,-2.1465 2.020305,-2.1465 1.115784,0 2.020305,0.961 2.020305,2.1465 z"
         transform="matrix(-3.094558,0,0,2.9125251,754.37155,-2787.2692)" />
      <rect
         style="fill:none;stroke:#000000;stroke-width:0.27856296;stroke-miterlimit:4;stroke-opacity:1;stroke-dasharray:none;display:inline"
         id="rect5080"
         width="10.351358"
         height="70.587578"
         x="8.9975491"
         y="131.24146" />
      <rect
         style="fill:none;stroke:#000000;stroke-width:0.27856296;stroke-miterlimit:4;stroke-opacity:1;stroke-dasharray:none;display:inline"
         id="rect5082"
         width="10.351358"
         height="70.587578"
         x="8.9975491"
         y="343.83987" />
      <rect
         style="fill:none;stroke:#000000;stroke-width:0.27856296;stroke-miterlimit:4;stroke-opacity:1;stroke-dasharray:none;display:inline"
         id="rect5084"
         width="10.351358"
         height="70.587578"
         x="8.9975491"
         y="769.03674" />
      <rect
         style="fill:none;stroke:#000000;stroke-width:0.27856296;stroke-miterlimit:4;stroke-opacity:1;stroke-dasharray:none;display:inline"
         id="rect5086"
         width="10.351358"
         height="70.587578"
         x="8.9975491"
         y="556.43829" />
      <rect
         style="fill:none;stroke:#000000;stroke-width:0.27856296;stroke-miterlimit:4;stroke-opacity:1;stroke-dasharray:none;display:inline"
         id="rect5088"
         width="10.351358"
         height="70.587578"
         x="76.320198"
         y="-127.41977"
         transform="matrix(0,1,-1,0,0,0)" />
      <rect
         style="fill:none;stroke:#000000;stroke-width:0.27856296;stroke-miterlimit:4;stroke-opacity:1;stroke-dasharray:none;display:inline"
         id="rect5090"
         width="10.351358"
         height="70.587578"
         x="76.320198"
         y="-283.32529"
         transform="matrix(0,1,-1,0,0,0)" />
      <rect
         style="fill:none;stroke:#000000;stroke-width:0.27856296;stroke-miterlimit:4;stroke-opacity:1;stroke-dasharray:none;display:inline"
         id="rect5092"
         width="10.351358"
         height="70.587578"
         x="76.320198"
         y="-495.92371"
         transform="matrix(0,1,-1,0,0,0)" />
      <rect
         style="fill:none;stroke:#000000;stroke-width:0.27856296;stroke-miterlimit:4;stroke-opacity:1;stroke-dasharray:none;display:inline"
         id="rect5094"
         width="10.351358"
         height="70.587578"
         x="76.320198"
         y="-708.52216"
         transform="matrix(0,1,-1,0,0,0)" />
      <rect
         style="fill:none;stroke:#000000;stroke-width:0.27856296;stroke-miterlimit:4;stroke-opacity:1;stroke-dasharray:none;display:inline"
         id="rect5096"
         width="10.351358"
         height="70.587578"
         x="76.320198"
         y="-921.12054"
         transform="matrix(0,1,-1,0,0,0)" />
      <rect
         style="fill:none;stroke:#000000;stroke-width:0.27856296;stroke-miterlimit:4;stroke-opacity:1;stroke-dasharray:none;display:inline"
         id="rect5098"
         width="10.351358"
         height="70.587578"
         x="1033.0131"
         y="-283.32529"
         transform="matrix(0,1,-1,0,0,0)" />
      <rect
         style="fill:none;stroke:#000000;stroke-width:0.27856296;stroke-miterlimit:4;stroke-opacity:1;stroke-dasharray:none;display:inline"
         id="rect5100"
         width="10.351358"
         height="70.587578"
         x="1033.0131"
         y="-495.92371"
         transform="matrix(0,1,-1,0,0,0)" />
      <rect
         style="fill:none;stroke:#000000;stroke-width:0.27856296;stroke-miterlimit:4;stroke-opacity:1;stroke-dasharray:none;display:inline"
         id="rect5102"
         width="10.351358"
         height="70.587578"
         x="1033.0131"
         y="-708.52216"
         transform="matrix(0,1,-1,0,0,0)" />
      <rect
         style="fill:none;stroke:#000000;stroke-width:0.27856296;stroke-miterlimit:4;stroke-opacity:1;stroke-dasharray:none;display:inline"
         id="rect5104"
         width="10.351358"
         height="70.587578"
         x="1033.0131"
         y="-921.12054"
         transform="matrix(0,1,-1,0,0,0)" />
      <rect
         style="fill:none;stroke:#000000;stroke-width:0.27856296;stroke-miterlimit:4;stroke-opacity:1;stroke-dasharray:none;display:inline"
         id="rect5106"
         width="10.351358"
         height="70.587578"
         x="625.53278"
         y="-283.32529"
         transform="matrix(0,1,-1,0,0,0)" />
      <rect
         style="fill:none;stroke:#000000;stroke-width:0.27856296;stroke-miterlimit:4;stroke-opacity:1;stroke-dasharray:none;display:inline"
         id="rect5108"
         width="10.351358"
         height="70.587578"
         x="625.53278"
         y="-495.92371"
         transform="matrix(0,1,-1,0,0,0)" />
      <rect
         style="fill:none;stroke:#000000;stroke-width:0.27856296;stroke-miterlimit:4;stroke-opacity:1;stroke-dasharray:none;display:inline"
         id="rect5110"
         width="10.351358"
         height="70.587578"
         x="625.53278"
         y="-708.52216"
         transform="matrix(0,1,-1,0,0,0)" />
      <rect
         style="fill:none;stroke:#000000;stroke-width:0.27856296;stroke-miterlimit:4;stroke-opacity:1;stroke-dasharray:none;display:inline"
         id="rect5112"
         width="10.351358"
         height="70.587578"
         x="625.53278"
         y="-921.12054"
         transform="matrix(0,1,-1,0,0,0)" />
      <rect
         style="fill:none;stroke:#000000;stroke-width:0.27856296;stroke-miterlimit:4;stroke-opacity:1;stroke-dasharray:none;display:inline"
         id="rect5114"
         width="10.351358"
         height="70.587578"
         x="8.9975491"
         y="910.76904" />
      <rect
         style="fill:none;stroke:#000000;stroke-width:0.27856296;stroke-miterlimit:4;stroke-opacity:1;stroke-dasharray:none;display:inline"
         id="rect5116"
         width="10.351358"
         height="70.587578"
         x="164.01723"
         y="131.24149" />
      <rect
         style="fill:none;stroke:#000000;stroke-width:0.27856296;stroke-miterlimit:4;stroke-opacity:1;stroke-dasharray:none;display:inline"
         id="rect5118"
         width="10.351358"
         height="70.587578"
         x="164.01723"
         y="343.83994" />
      <rect
         style="fill:none;stroke:#000000;stroke-width:0.27856296;stroke-miterlimit:4;stroke-opacity:1;stroke-dasharray:none;display:inline"
         id="rect5120"
         width="10.351358"
         height="70.587578"
         x="164.01723"
         y="769.03674" />
      <rect
         style="fill:none;stroke:#000000;stroke-width:0.27856296;stroke-miterlimit:4;stroke-opacity:1;stroke-dasharray:none;display:inline"
         id="rect5122"
         width="10.351358"
         height="70.587578"
         x="164.01723"
         y="556.43835" />
      <rect
         style="fill:none;stroke:#000000;stroke-width:0.27856296;stroke-miterlimit:4;stroke-opacity:1;stroke-dasharray:none;display:inline"
         id="rect5124"
         width="10.351358"
         height="70.587578"
         x="164.01723"
         y="910.76904" />
      <rect
         style="fill:none;stroke:#000000;stroke-width:0.27856296;stroke-miterlimit:4;stroke-opacity:1;stroke-dasharray:none;display:inline"
         id="rect5126"
         width="10.351358"
         height="70.587578"
         x="965.69049"
         y="131.24149" />
      <rect
         style="fill:none;stroke:#000000;stroke-width:0.27856296;stroke-miterlimit:4;stroke-opacity:1;stroke-dasharray:none;display:inline"
         id="rect5128"
         width="10.351358"
         height="70.587578"
         x="965.69049"
         y="343.83987" />
      <rect
         style="fill:none;stroke:#000000;stroke-width:0.27856296;stroke-miterlimit:4;stroke-opacity:1;stroke-dasharray:none;display:inline"
         id="rect5130"
         width="10.351358"
         height="70.587578"
         x="965.69049"
         y="769.03674" />
      <rect
         style="fill:none;stroke:#000000;stroke-width:0.27856296;stroke-miterlimit:4;stroke-opacity:1;stroke-dasharray:none;display:inline"
         id="rect5132"
         width="10.351358"
         height="70.587578"
         x="965.69049"
         y="556.43829" />
      <rect
         style="fill:none;stroke:#000000;stroke-width:0.27856296;stroke-miterlimit:4;stroke-opacity:1;stroke-dasharray:none;display:inline"
         id="rect5134"
         width="10.351358"
         height="70.587578"
         x="965.69049"
         y="910.76904" />
      <rect
         style="fill:none;stroke:#000000;stroke-width:0.27856296;stroke-miterlimit:4;stroke-opacity:1;stroke-dasharray:none;display:inline"
         id="rect5136"
         width="10.351358"
         height="70.587578"
         x="1033.0131"
         y="-127.41977"
         transform="matrix(0,1,-1,0,0,0)" />
      <rect
         style="fill:none;stroke:#000000;stroke-width:0.67168045;stroke-miterlimit:4;stroke-opacity:1;stroke-dasharray:none;display:inline"
         id="rect5146-4"
         width="6.4149337"
         height="87.910995"
         x="588.52484"
         y="181.04431"
         rx="3.2074668"
         ry="3.5164397" />
      <rect
         style="fill:none;stroke:#000000;stroke-width:0.67168045;stroke-miterlimit:4;stroke-opacity:1;stroke-dasharray:none;display:inline"
         id="rect5148-4"
         width="6.4149337"
         height="87.910995"
         x="602.69806"
         y="181.04431"
         rx="3.2074668"
         ry="3.5164397" />
      <rect
         style="fill:none;stroke:#000000;stroke-width:0.67168045;stroke-miterlimit:4;stroke-opacity:1;stroke-dasharray:none;display:inline"
         id="rect5150-3"
         width="6.4149337"
         height="87.910995"
         x="616.87128"
         y="181.04431"
         rx="3.2074668"
         ry="3.5164397" />
      <rect
         style="fill:none;stroke:#000000;stroke-width:0.67168045;stroke-miterlimit:4;stroke-opacity:1;stroke-dasharray:none;display:inline"
         id="rect5152-2"
         width="6.4149337"
         height="87.910995"
         x="631.04449"
         y="181.04431"
         rx="3.2074668"
         ry="3.5164397" />
      <rect
         style="fill:none;stroke:#000000;stroke-width:0.67168045;stroke-miterlimit:4;stroke-opacity:1;stroke-dasharray:none;display:inline"
         id="rect5154-9"
         width="6.4149337"
         height="87.910995"
         x="631.04449"
         y="181.04431"
         rx="3.2074668"
         ry="3.5164397" />
      <rect
         style="fill:none;stroke:#000000;stroke-width:0.67168045;stroke-miterlimit:4;stroke-opacity:1;stroke-dasharray:none;display:inline"
         id="rect5156-9"
         width="6.4149337"
         height="87.910995"
         x="645.21771"
         y="181.04431"
         rx="3.2074668"
         ry="3.5164397" />
      <rect
         style="fill:none;stroke:#000000;stroke-width:0.67168045;stroke-miterlimit:4;stroke-opacity:1;stroke-dasharray:none;display:inline"
         id="rect5158-7"
         width="6.4149337"
         height="87.910995"
         x="659.39093"
         y="181.04431"
         rx="3.2074668"
         ry="3.5164397" />
      <rect
         style="fill:none;stroke:#000000;stroke-width:0.67168045;stroke-miterlimit:4;stroke-opacity:1;stroke-dasharray:none;display:inline"
         id="rect5160-1"
         width="6.4149337"
         height="87.910995"
         x="673.56421"
         y="181.04431"
         rx="3.2074668"
         ry="3.5164397" />
      <rect
         style="fill:none;stroke:#000000;stroke-width:0.67168045;stroke-miterlimit:4;stroke-opacity:1;stroke-dasharray:none;display:inline"
         id="rect5162-6"
         width="6.4149337"
         height="87.910995"
         x="687.73743"
         y="181.04431"
         rx="3.2074668"
         ry="3.5164397" />
      <rect
         style="fill:none;stroke:#000000;stroke-width:0.67168045;stroke-miterlimit:4;stroke-opacity:1;stroke-dasharray:none;display:inline"
         id="rect5164-9"
         width="6.4149337"
         height="87.910995"
         x="701.91064"
         y="181.04431"
         rx="3.2074668"
         ry="3.5164397" />
      <rect
         style="fill:none;stroke:#000000;stroke-width:0.67168045;stroke-miterlimit:4;stroke-opacity:1;stroke-dasharray:none;display:inline"
         id="rect5144-4"
         width="6.4149337"
         height="87.910995"
         x="453.87912"
         y="414.90259"
         rx="3.2074668"
         ry="3.5164397" />
      <rect
         style="fill:none;stroke:#000000;stroke-width:0.67168045;stroke-miterlimit:4;stroke-opacity:1;stroke-dasharray:none;display:inline"
         id="rect5146-7"
         width="6.4149337"
         height="87.910995"
         x="468.0524"
         y="414.90259"
         rx="3.2074668"
         ry="3.5164397" />
      <rect
         style="fill:none;stroke:#000000;stroke-width:0.67168045;stroke-miterlimit:4;stroke-opacity:1;stroke-dasharray:none;display:inline"
         id="rect5148-2"
         width="6.4149337"
         height="87.910995"
         x="482.22562"
         y="414.90259"
         rx="3.2074668"
         ry="3.5164397" />
      <rect
         style="fill:none;stroke:#000000;stroke-width:0.67168045;stroke-miterlimit:4;stroke-opacity:1;stroke-dasharray:none;display:inline"
         id="rect5150-9"
         width="6.4149337"
         height="87.910995"
         x="496.39883"
         y="414.90259"
         rx="3.2074668"
         ry="3.5164397" />
      <rect
         style="fill:none;stroke:#000000;stroke-width:0.67168045;stroke-miterlimit:4;stroke-opacity:1;stroke-dasharray:none;display:inline"
         id="rect5152-7"
         width="6.4149337"
         height="87.910995"
         x="510.57205"
         y="414.90259"
         rx="3.2074668"
         ry="3.5164397" />
      <rect
         style="fill:none;stroke:#000000;stroke-width:0.67168045;stroke-miterlimit:4;stroke-opacity:1;stroke-dasharray:none;display:inline"
         id="rect5154-5"
         width="6.4149337"
         height="87.910995"
         x="510.57205"
         y="414.90259"
         rx="3.2074668"
         ry="3.5164397" />
      <rect
         style="fill:none;stroke:#000000;stroke-width:0.67168045;stroke-miterlimit:4;stroke-opacity:1;stroke-dasharray:none;display:inline"
         id="rect5156-1"
         width="6.4149337"
         height="87.910995"
         x="524.7453"
         y="414.90259"
         rx="3.2074668"
         ry="3.5164397" />
      <rect
         style="fill:none;stroke:#000000;stroke-width:0.67168045;stroke-miterlimit:4;stroke-opacity:1;stroke-dasharray:none;display:inline"
         id="rect5158-2"
         width="6.4149337"
         height="87.910995"
         x="538.91852"
         y="414.90259"
         rx="3.2074668"
         ry="3.5164397" />
      <rect
         style="fill:none;stroke:#000000;stroke-width:0.67168045;stroke-miterlimit:4;stroke-opacity:1;stroke-dasharray:none;display:inline"
         id="rect5160-4"
         width="6.4149337"
         height="87.910995"
         x="553.0918"
         y="414.90259"
         rx="3.2074668"
         ry="3.5164397" />
      <rect
         style="fill:none;stroke:#000000;stroke-width:0.67168045;stroke-miterlimit:4;stroke-opacity:1;stroke-dasharray:none;display:inline"
         id="rect5162-9"
         width="6.4149337"
         height="87.910995"
         x="567.26501"
         y="414.90259"
         rx="3.2074668"
         ry="3.5164397" />
      <rect
         style="fill:none;stroke:#000000;stroke-width:0.67168045;stroke-miterlimit:4;stroke-opacity:1;stroke-dasharray:none;display:inline"
         id="rect5164-93"
         width="6.4149337"
         height="87.910995"
         x="581.43823"
         y="414.90259"
         rx="3.2074668"
         ry="3.5164397" />
      <rect
         style="fill:none;stroke:#000000;stroke-width:0.67168045;stroke-miterlimit:4;stroke-opacity:1;stroke-dasharray:none;display:inline"
         id="rect5166-0"
         width="6.4149337"
         height="87.910995"
         x="425.53268"
         y="414.90259"
         rx="3.2074668"
         ry="3.5164397" />
      <rect
         style="fill:none;stroke:#000000;stroke-width:0.67168045;stroke-miterlimit:4;stroke-opacity:1;stroke-dasharray:none;display:inline"
         id="rect5168-5"
         width="6.4149337"
         height="87.910995"
         x="439.7059"
         y="414.90259"
         rx="3.2074668"
         ry="3.5164397" />
    </g>
  </g>
</svg>
