<?xml version="1.0" encoding="UTF-8" standalone="no"?>
<!-- Created with Inkscape (http://www.inkscape.org/) -->

<svg
   xmlns:dc="http://purl.org/dc/elements/1.1/"
   xmlns:cc="http://creativecommons.org/ns#"
   xmlns:rdf="http://www.w3.org/1999/02/22-rdf-syntax-ns#"
   xmlns:svg="http://www.w3.org/2000/svg"
   xmlns="http://www.w3.org/2000/svg"
   xmlns:sodipodi="http://sodipodi.sourceforge.net/DTD/sodipodi-0.dtd"
   xmlns:inkscape="http://www.inkscape.org/namespaces/inkscape"
   width="1077.1653"
   height="1077.1653"
   id="svg4619"
   version="1.1"
   inkscape:version="0.48.3.1 r9886"
   sodipodi:docname="overlap_prod.svg">
  <defs
     id="defs4621" />
  <sodipodi:namedview
     id="base"
     pagecolor="#ffffff"
     bordercolor="#666666"
     borderopacity="1.0"
     inkscape:pageopacity="0.0"
     inkscape:pageshadow="2"
     inkscape:zoom="0.51803029"
     inkscape:cx="543.82281"
     inkscape:cy="899.78895"
     inkscape:document-units="mm"
     inkscape:current-layer="g4942"
     showgrid="false"
     units="mm"
     inkscape:window-width="1280"
     inkscape:window-height="727"
     inkscape:window-x="0"
     inkscape:window-y="34"
     inkscape:window-maximized="1"
     showguides="true"
     inkscape:guide-bbox="true" />
  <metadata
     id="metadata4624">
    <rdf:RDF>
      <cc:Work
         rdf:about="">
        <dc:format>image/svg+xml</dc:format>
        <dc:type
           rdf:resource="http://purl.org/dc/dcmitype/StillImage" />
        <dc:title />
      </cc:Work>
    </rdf:RDF>
  </metadata>
  <g
     inkscape:label="Interface Plates"
     inkscape:groupmode="layer"
     id="layer1"
     transform="translate(0,24.803266)"
     style="display:none">
    <path
       sodipodi:type="arc"
       style="fill:none;stroke:#000000;stroke-width:4.13340712;stroke-miterlimit:4;stroke-opacity:1;stroke-dasharray:none"
       id="path2985-93-6"
       sodipodi:cx="171.42857"
       sodipodi:cy="632.66589"
       sodipodi:rx="42.857143"
       sodipodi:ry="31.428572"
       d="m 214.28572,632.66589 a 42.857143,31.428572 0 1 1 -85.71429,0 42.857143,31.428572 0 1 1 85.71429,0 z"
       transform="matrix(0.14681868,0,0,0.20020757,101.68143,802.39038)" />
    <path
       sodipodi:type="arc"
       style="fill:none;stroke:#000000;stroke-width:4.13340712;stroke-miterlimit:4;stroke-opacity:1;stroke-dasharray:none"
       id="path2985-9-6-7"
       sodipodi:cx="171.42857"
       sodipodi:cy="632.66589"
       sodipodi:rx="42.857143"
       sodipodi:ry="31.428572"
       d="m 214.28572,632.66589 a 42.857143,31.428572 0 1 1 -85.71429,0 42.857143,31.428572 0 1 1 85.71429,0 z"
       transform="matrix(0.14681868,0,0,0.20020757,101.95004,376.92434)" />
    <rect
       style="fill:none;stroke:#000000;stroke-width:0.89035088;stroke-miterlimit:4;stroke-opacity:1;stroke-dasharray:none"
       id="rect3773-9-6"
       width="18.821066"
       height="388.60767"
       x="117.43804"
       y="523.15271"
       rx="3.5433018"
       ry="3.5433121" />
    <rect
       style="fill:none;stroke:#000000;stroke-width:0.73062325;stroke-miterlimit:4;stroke-opacity:1;stroke-dasharray:none"
       id="rect3212"
       width="673.38348"
       height="179.09221"
       x="378.61325"
       y="-179.45752"
       rx="3.5433071"
       ry="3.5433068"
       transform="matrix(0,1,-1,0,0,0)" />
    <path
       sodipodi:type="arc"
       style="fill:none;stroke:#000000;stroke-width:0.70866144;stroke-miterlimit:4;stroke-opacity:1;stroke-dasharray:none"
       id="path3214"
       sodipodi:cx="17.5"
       sodipodi:cy="695.08997"
       sodipodi:rx="11.785714"
       sodipodi:ry="10"
       d="m 29.285714,695.08997 a 11.785714,10 0 1 1 -23.5714281,0 11.785714,10 0 1 1 23.5714281,0 z"
       transform="matrix(0,0.52405523,-0.61763652,0,443.48615,383.25022)" />
    <path
       sodipodi:type="arc"
       style="fill:none;stroke:#000000;stroke-width:0.70866144;stroke-miterlimit:4;stroke-opacity:1;stroke-dasharray:none"
       id="path3214-4"
       sodipodi:cx="17.5"
       sodipodi:cy="695.08997"
       sodipodi:rx="11.785714"
       sodipodi:ry="10"
       d="m 29.285714,695.08997 a 11.785714,10 0 1 1 -23.5714281,0 11.785714,10 0 1 1 23.5714281,0 z"
       transform="matrix(0,0.52405523,-0.61763652,0,443.48615,1029.0179)" />
    <path
       sodipodi:type="arc"
       style="fill:none;stroke:#000000;stroke-width:0.70866144;stroke-miterlimit:4;stroke-opacity:1;stroke-dasharray:none"
       id="path3214-4-9"
       sodipodi:cx="17.5"
       sodipodi:cy="695.08997"
       sodipodi:rx="11.785714"
       sodipodi:ry="10"
       d="m 29.285714,695.08997 a 11.785714,10 0 1 1 -23.5714281,0 11.785714,10 0 1 1 23.5714281,0 z"
       transform="matrix(0,0.52405523,-0.61763652,0,594.96253,383.25022)" />
    <path
       sodipodi:type="arc"
       style="fill:none;stroke:#000000;stroke-width:0.70866144;stroke-miterlimit:4;stroke-opacity:1;stroke-dasharray:none"
       id="path3214-4-7"
       sodipodi:cx="17.5"
       sodipodi:cy="695.08997"
       sodipodi:rx="11.785714"
       sodipodi:ry="10"
       d="m 29.285714,695.08997 a 11.785714,10 0 1 1 -23.5714281,0 11.785714,10 0 1 1 23.5714281,0 z"
       transform="matrix(0,0.52405523,-0.61763652,0,594.96253,1029.0179)" />
    <path
       sodipodi:type="arc"
       style="fill:none;stroke:#000000;stroke-width:0.70866144;stroke-miterlimit:4;stroke-opacity:1;stroke-dasharray:none;display:inline"
       id="path3214-4-9-5"
       sodipodi:cx="17.5"
       sodipodi:cy="695.08997"
       sodipodi:rx="11.785714"
       sodipodi:ry="10"
       d="m 29.285714,695.08997 a 11.785714,10 0 1 1 -23.5714281,0 11.785714,10 0 1 1 23.5714281,0 z"
       transform="matrix(0,0.52405523,-0.61763652,0,594.96257,554.21472)" />
    <path
       sodipodi:type="arc"
       style="fill:none;stroke:#000000;stroke-width:0.70866144;stroke-miterlimit:4;stroke-opacity:1;stroke-dasharray:none;display:inline"
       id="path3214-4-9-2"
       sodipodi:cx="17.5"
       sodipodi:cy="695.08997"
       sodipodi:rx="11.785714"
       sodipodi:ry="10"
       d="m 29.285714,695.08997 a 11.785714,10 0 1 1 -23.5714281,0 11.785714,10 0 1 1 23.5714281,0 z"
       transform="matrix(0,0.52405523,-0.61763652,0,594.96257,751.75409)" />
    <rect
       style="fill:none;stroke:#000000;stroke-width:0.95277292;stroke-miterlimit:4;stroke-opacity:1;stroke-dasharray:none"
       id="rect3212-1-3"
       width="673.16132"
       height="304.65747"
       x="180.29922"
       y="747.22821"
       rx="3.5433066"
       ry="3.5433068" />
    <path
       sodipodi:type="arc"
       style="fill:none;stroke:#000000;stroke-width:0.70866144;stroke-miterlimit:4;stroke-opacity:1;stroke-dasharray:none"
       id="path3214-8-7"
       sodipodi:cx="17.5"
       sodipodi:cy="695.08997"
       sodipodi:rx="11.785714"
       sodipodi:ry="10"
       d="m 29.285714,695.08997 a 11.785714,10 0 1 1 -23.5714281,0 11.785714,10 0 1 1 23.5714281,0 z"
       transform="matrix(0.52405523,0,0,0.61763652,184.82509,608.87591)" />
    <path
       sodipodi:type="arc"
       style="fill:none;stroke:#000000;stroke-width:0.70866144;stroke-miterlimit:4;stroke-opacity:1;stroke-dasharray:none"
       id="path3214-4-2-0"
       sodipodi:cx="17.5"
       sodipodi:cy="695.08997"
       sodipodi:rx="11.785714"
       sodipodi:ry="10"
       d="m 29.285714,695.08997 a 11.785714,10 0 1 1 -23.5714281,0 11.785714,10 0 1 1 23.5714281,0 z"
       transform="matrix(0.52405523,0,0,0.61763652,830.59281,608.87591)" />
    <path
       sodipodi:type="arc"
       style="fill:none;stroke:#000000;stroke-width:4.13340712;stroke-miterlimit:4;stroke-opacity:1;stroke-dasharray:none"
       id="path2985-93-6-30-8"
       sodipodi:cx="171.42857"
       sodipodi:cy="632.66589"
       sodipodi:rx="42.857143"
       sodipodi:ry="31.428572"
       d="m 214.28572,632.66589 a 42.857143,31.428572 0 1 1 -85.71429,0 42.857143,31.428572 0 1 1 85.71429,0 z"
       transform="matrix(0,-0.14681868,0.20020757,0,603.96526,824.89323)" />
    <path
       sodipodi:type="arc"
       style="fill:none;stroke:#000000;stroke-width:4.13340712;stroke-miterlimit:4;stroke-opacity:1;stroke-dasharray:none"
       id="path2985-9-6-7-4-4"
       sodipodi:cx="171.42857"
       sodipodi:cy="632.66589"
       sodipodi:rx="42.857143"
       sodipodi:ry="31.428572"
       d="m 214.28572,632.66589 a 42.857143,31.428572 0 1 1 -85.71429,0 42.857143,31.428572 0 1 1 85.71429,0 z"
       transform="matrix(0,-0.14681868,0.20020757,0,178.49922,824.62462)" />
    <rect
       style="fill:none;stroke:#000000;stroke-width:0.89035088;stroke-miterlimit:4;stroke-opacity:1;stroke-dasharray:none"
       id="rect3773-9-6-5-2"
       width="18.821066"
       height="388.60767"
       x="-809.13666"
       y="324.72757"
       rx="3.5433021"
       ry="3.5433116"
       transform="matrix(0,-1,1,0,0,0)" />
    <path
       sodipodi:type="arc"
       style="fill:none;stroke:#000000;stroke-width:0.70866144;stroke-miterlimit:4;stroke-opacity:1;stroke-dasharray:none"
       id="path3214-4-9-4-1"
       sodipodi:cx="17.5"
       sodipodi:cy="695.08997"
       sodipodi:rx="11.785714"
       sodipodi:ry="10"
       d="m 29.285714,695.08997 a 11.785714,10 0 1 1 -23.5714281,0 11.785714,10 0 1 1 23.5714281,0 z"
       transform="matrix(0.52405523,0,0,0.61763652,184.8251,331.61213)" />
    <path
       sodipodi:type="arc"
       style="fill:none;stroke:#000000;stroke-width:0.70866144;stroke-miterlimit:4;stroke-opacity:1;stroke-dasharray:none"
       id="path3214-4-7-3-2"
       sodipodi:cx="17.5"
       sodipodi:cy="695.08997"
       sodipodi:rx="11.785714"
       sodipodi:ry="10"
       d="m 29.285714,695.08997 a 11.785714,10 0 1 1 -23.5714281,0 11.785714,10 0 1 1 23.5714281,0 z"
       transform="matrix(0.52405523,0,0,0.61763652,830.59281,331.61213)" />
    <rect
       style="fill:none;stroke:#000000;stroke-width:0.76925194;stroke-miterlimit:4;stroke-opacity:1;stroke-dasharray:none"
       id="rect3212-1"
       width="673.34485"
       height="198.54178"
       x="-853.55231"
       y="-577.17426"
       rx="3.5433071"
       ry="3.5433071"
       transform="scale(-1,-1)" />
    <path
       sodipodi:type="arc"
       style="fill:none;stroke:#000000;stroke-width:0.70866144;stroke-miterlimit:4;stroke-opacity:1;stroke-dasharray:none"
       id="path3214-8"
       sodipodi:cx="17.5"
       sodipodi:cy="695.08997"
       sodipodi:rx="11.785714"
       sodipodi:ry="10"
       d="m 29.285714,695.08997 a 11.785714,10 0 1 1 -23.5714281,0 11.785714,10 0 1 1 23.5714281,0 z"
       transform="matrix(-0.52405523,0,0,-0.61763652,848.93464,821.73411)" />
    <path
       sodipodi:type="arc"
       style="fill:none;stroke:#000000;stroke-width:0.70866144;stroke-miterlimit:4;stroke-opacity:1;stroke-dasharray:none"
       id="path3214-4-2"
       sodipodi:cx="17.5"
       sodipodi:cy="695.08997"
       sodipodi:rx="11.785714"
       sodipodi:ry="10"
       d="m 29.285714,695.08997 a 11.785714,10 0 1 1 -23.5714281,0 11.785714,10 0 1 1 23.5714281,0 z"
       transform="matrix(-0.52405523,0,0,-0.61763652,203.16693,821.73411)" />
    <path
       sodipodi:type="arc"
       style="fill:none;stroke:#000000;stroke-width:4.13340712;stroke-miterlimit:4;stroke-opacity:1;stroke-dasharray:none"
       id="path2985-93-6-30"
       sodipodi:cx="171.42857"
       sodipodi:cy="632.66589"
       sodipodi:rx="42.857143"
       sodipodi:ry="31.428572"
       d="m 214.28572,632.66589 a 42.857143,31.428572 0 1 1 -85.71429,0 42.857143,31.428572 0 1 1 85.71429,0 z"
       transform="matrix(0,0.14681868,-0.20020759,0,429.7945,471.07117)" />
    <path
       sodipodi:type="arc"
       style="fill:none;stroke:#000000;stroke-width:4.13340712;stroke-miterlimit:4;stroke-opacity:1;stroke-dasharray:none"
       id="path2985-9-6-7-4"
       sodipodi:cx="171.42857"
       sodipodi:cy="632.66589"
       sodipodi:rx="42.857143"
       sodipodi:ry="31.428572"
       d="m 214.28572,632.66589 a 42.857143,31.428572 0 1 1 -85.71429,0 42.857143,31.428572 0 1 1 85.71429,0 z"
       transform="matrix(0,0.14681868,-0.20020759,0,855.26058,471.33978)" />
    <rect
       style="fill:none;stroke:#000000;stroke-width:0.89035094;stroke-miterlimit:4;stroke-opacity:1;stroke-dasharray:none"
       id="rect3773-9-6-5"
       width="18.821066"
       height="388.60773"
       x="486.82773"
       y="-709.03223"
       rx="3.5433021"
       ry="3.5433121"
       transform="matrix(0,1,-1,0,0,0)" />
    <path
       sodipodi:type="arc"
       style="fill:none;stroke:#000000;stroke-width:0.70866144;stroke-miterlimit:4;stroke-opacity:1;stroke-dasharray:none"
       id="path3214-4-9-4"
       sodipodi:cx="17.5"
       sodipodi:cy="695.08997"
       sodipodi:rx="11.785714"
       sodipodi:ry="10"
       d="m 29.285714,695.08997 a 11.785714,10 0 1 1 -23.5714281,0 11.785714,10 0 1 1 23.5714281,0 z"
       transform="matrix(-0.52405523,0,0,-0.61763652,848.93464,992.69865)" />
    <path
       sodipodi:type="arc"
       style="fill:none;stroke:#000000;stroke-width:0.70866144;stroke-miterlimit:4;stroke-opacity:1;stroke-dasharray:none"
       id="path3214-4-7-3"
       sodipodi:cx="17.5"
       sodipodi:cy="695.08997"
       sodipodi:rx="11.785714"
       sodipodi:ry="10"
       d="m 29.285714,695.08997 a 11.785714,10 0 1 1 -23.5714281,0 11.785714,10 0 1 1 23.5714281,0 z"
       transform="matrix(-0.52405523,0,0,-0.61763652,203.16693,992.69865)" />
    <rect
       style="fill:none;stroke:#000000;stroke-width:0.70399565;stroke-miterlimit:4;stroke-opacity:1;stroke-dasharray:none"
       id="rect7023"
       width="346.5401"
       height="673.41016"
       x="854.289"
       y="378.59991"
       rx="3.5433018"
       ry="3.5433121" />
    <path
       sodipodi:type="arc"
       style="fill:none;stroke:#000000;stroke-width:0.70866144;stroke-miterlimit:4;stroke-opacity:1;stroke-dasharray:none"
       id="path5067"
       sodipodi:cx="752.40955"
       sodipodi:cy="219.42679"
       sodipodi:rx="16.959499"
       sodipodi:ry="15.882706"
       d="m 769.36905,219.42679 a 16.959499,15.882706 0 1 1 -33.919,0 16.959499,15.882706 0 1 1 33.919,0 z"
       transform="matrix(0.81804913,0,0,0.8735101,366.07675,258.32835)" />
    <path
       sodipodi:type="arc"
       style="fill:none;stroke:#000000;stroke-width:0.70866144;stroke-miterlimit:4;stroke-opacity:1;stroke-dasharray:none"
       id="path3091"
       sodipodi:cx="908.69293"
       sodipodi:cy="222.24443"
       sodipodi:rx="6.4719687"
       sodipodi:ry="6.4243808"
       d="m 915.1649,222.24443 a 6.4719687,6.4243808 0 1 1 -12.94394,0 6.4719687,6.4243808 0 1 1 12.94394,0 z"
       transform="matrix(0.83034795,0,0,0.83649865,200.47861,264.09271)" />
    <path
       sodipodi:type="arc"
       style="fill:none;stroke:#000000;stroke-width:0.70866144;stroke-miterlimit:4;stroke-opacity:1;stroke-dasharray:none"
       id="path3214-02"
       sodipodi:cx="17.5"
       sodipodi:cy="695.08997"
       sodipodi:rx="11.785714"
       sodipodi:ry="10"
       d="m 29.285714,695.08997 a 11.785714,10 0 1 1 -23.5714281,0 11.785714,10 0 1 1 23.5714281,0 z"
       transform="matrix(0.52405528,0,0,0.61763652,858.93927,608.87589)" />
    <path
       sodipodi:type="arc"
       style="fill:none;stroke:#000000;stroke-width:0.70866144;stroke-miterlimit:4;stroke-opacity:1;stroke-dasharray:none"
       id="path3214-0"
       sodipodi:cx="17.5"
       sodipodi:cy="695.08997"
       sodipodi:rx="11.785714"
       sodipodi:ry="10"
       d="m 29.285714,695.08997 a 11.785714,10 0 1 1 -23.5714281,0 11.785714,10 0 1 1 23.5714281,0 z"
       transform="matrix(0.52405523,0,0,0.61763652,858.93927,-36.89183)" />
    <path
       sodipodi:type="arc"
       style="fill:none;stroke:#000000;stroke-width:0.70866144;stroke-miterlimit:4;stroke-opacity:1;stroke-dasharray:none"
       id="path3214-0-9"
       sodipodi:cx="17.5"
       sodipodi:cy="695.08997"
       sodipodi:rx="11.785714"
       sodipodi:ry="10"
       d="m 29.285714,695.08997 a 11.785714,10 0 1 1 -23.5714281,0 11.785714,10 0 1 1 23.5714281,0 z"
       transform="matrix(0.52405523,0,0,0.61763652,1177.8369,-36.89183)" />
    <path
       sodipodi:type="arc"
       style="fill:none;stroke:#000000;stroke-width:0.70866144;stroke-miterlimit:4;stroke-opacity:1;stroke-dasharray:none"
       id="path3214-0-8"
       sodipodi:cx="17.5"
       sodipodi:cy="695.08997"
       sodipodi:rx="11.785714"
       sodipodi:ry="10"
       d="m 29.285714,695.08997 a 11.785714,10 0 1 1 -23.5714281,0 11.785714,10 0 1 1 23.5714281,0 z"
       transform="matrix(0.52405523,0,0,0.61763652,1177.8369,608.87589)" />
    <path
       sodipodi:type="arc"
       style="fill:none;stroke:#000000;stroke-width:0.70866144;stroke-miterlimit:4;stroke-opacity:1;stroke-dasharray:none;display:inline"
       id="path3214-0-7"
       sodipodi:cx="17.5"
       sodipodi:cy="695.08997"
       sodipodi:rx="11.785714"
       sodipodi:ry="10"
       d="m 29.285714,695.08997 a 11.785714,10 0 1 1 -23.5714281,0 11.785714,10 0 1 1 23.5714281,0 z"
       transform="matrix(0.52405523,0,0,0.61763652,858.93927,134.07274)" />
    <path
       sodipodi:type="arc"
       style="fill:none;stroke:#000000;stroke-width:0.70866144;stroke-miterlimit:4;stroke-opacity:1;stroke-dasharray:none;display:inline"
       id="path3214-0-3"
       sodipodi:cx="17.5"
       sodipodi:cy="695.08997"
       sodipodi:rx="11.785714"
       sodipodi:ry="10"
       d="m 29.285714,695.08997 a 11.785714,10 0 1 1 -23.5714281,0 11.785714,10 0 1 1 23.5714281,0 z"
       transform="matrix(0.52405523,0,0,0.61763652,858.93927,331.61211)" />
    <path
       sodipodi:type="arc"
       style="fill:none;stroke:#000000;stroke-width:0.43961808;stroke-miterlimit:4;stroke-opacity:1;stroke-dasharray:none"
       id="path3954"
       sodipodi:cx="57.831234"
       sodipodi:cy="159.97377"
       sodipodi:rx="13.384521"
       sodipodi:ry="15.909903"
       d="m 71.215755,159.97377 a 13.384521,15.909903 0 1 1 -26.769042,0 13.384521,15.909903 0 1 1 26.769042,0 z"
       transform="matrix(1.7734621,0,0,1.4919601,-41.222469,260.00595)" />
    <path
       sodipodi:type="arc"
       style="fill:none;stroke:#000000;stroke-width:0.70866144;stroke-miterlimit:4;stroke-opacity:1;stroke-dasharray:none"
       id="path3958"
       sodipodi:cx="59.75"
       sodipodi:cy="119.09448"
       sodipodi:rx="22.75"
       sodipodi:ry="16.5"
       d="m 82.5,119.09448 a 22.75,16.5 0 1 1 -45.5,0 22.75,16.5 0 1 1 45.5,0 z"
       transform="matrix(1.040077,0,0,1.4340456,-1.0225547,257.24444)" />
    <path
       sodipodi:type="arc"
       style="fill:none;stroke:#000000;stroke-width:0.70866144;stroke-miterlimit:4;stroke-opacity:1;stroke-dasharray:none"
       id="path3969"
       sodipodi:cx="88"
       sodipodi:cy="704.59448"
       sodipodi:rx="40"
       sodipodi:ry="23.5"
       d="m 128,704.59448 a 40,23.5 0 1 1 -80,0 40,23.5 0 1 1 80,0 z"
       transform="matrix(0.59548024,0,0,1.0135833,8.719787,288.59049)" />
    <path
       sodipodi:type="arc"
       style="fill:none;stroke:#000000;stroke-width:0.70866144;stroke-miterlimit:4;stroke-opacity:1;stroke-dasharray:none"
       id="path3975"
       sodipodi:cx="55"
       sodipodi:cy="601.09448"
       sodipodi:rx="29"
       sodipodi:ry="15"
       d="m 84,601.09448 a 29,15 0 1 1 -58,0 29,15 0 1 1 58,0 z"
       transform="matrix(0.81696512,0,0,1.5794659,16.188966,-17.51856)" />
    <path
       sodipodi:type="arc"
       style="fill:none;stroke:#000000;stroke-width:0.62806857;stroke-miterlimit:4;stroke-opacity:1;stroke-dasharray:none"
       id="path3970"
       sodipodi:cx="802.21265"
       sodipodi:cy="124.31538"
       sodipodi:rx="19.79899"
       sodipodi:ry="22.273863"
       d="m 822.01164,124.31538 a 19.79899,22.273863 0 1 1 -39.59798,0 19.79899,22.273863 0 1 1 39.59798,0 z"
       transform="matrix(1.1990252,0,0,1.0658002,-157.67411,297.97086)" />
    <path
       sodipodi:type="arc"
       style="fill:none;stroke:#000000;stroke-width:0.467843;stroke-miterlimit:4;stroke-opacity:1;stroke-dasharray:none"
       id="path3972"
       sodipodi:cx="761.20044"
       sodipodi:cy="125.7296"
       sodipodi:rx="15.202796"
       sodipodi:ry="15.909903"
       d="m 776.40324,125.7296 a 15.202796,15.909903 0 1 1 -30.4056,0 15.202796,15.909903 0 1 1 30.4056,0 z"
       transform="matrix(1.5613874,0,0,1.4919925,-455.06029,242.74166)" />
    <path
       sodipodi:type="arc"
       style="fill:none;stroke:#000000;stroke-width:0.55805516;stroke-miterlimit:4;stroke-opacity:1;stroke-dasharray:none"
       id="path3983"
       sodipodi:cx="232.125"
       sodipodi:cy="128.09448"
       sodipodi:rx="16.125"
       sodipodi:ry="21.5"
       d="m 248.25,128.09448 a 16.125,21.5 0 1 1 -32.25,0 16.125,21.5 0 1 1 32.25,0 z"
       transform="matrix(1.4721703,0,0,1.1041277,-112.20275,288.98338)" />
    <path
       sodipodi:type="arc"
       style="fill:none;stroke:#000000;stroke-width:0.63867855;stroke-miterlimit:4;stroke-opacity:1;stroke-dasharray:none"
       id="path3985"
       sodipodi:cx="272.125"
       sodipodi:cy="123.34448"
       sodipodi:rx="19.625"
       sodipodi:ry="23.25"
       d="m 291.75,123.34448 a 19.625,23.25 0 1 1 -39.25,0 19.625,23.25 0 1 1 39.25,0 z"
       transform="matrix(1.2096604,0,0,1.0210574,-28.845103,304.53103)" />
    <path
       sodipodi:type="arc"
       style="fill:none;stroke:#000000;stroke-width:0.82091445;stroke-miterlimit:4;stroke-opacity:1;stroke-dasharray:none"
       id="path4090"
       sodipodi:cx="765.44312"
       sodipodi:cy="557.06476"
       sodipodi:rx="28.637825"
       sodipodi:ry="26.516504"
       d="m 794.08094,557.06476 a 28.637825,26.516504 0 1 1 -57.27565,0 28.637825,26.516504 0 1 1 57.27565,0 z"
       transform="matrix(0.8290039,0,0,0.89532422,98.861379,366.7475)" />
    <path
       sodipodi:type="arc"
       style="fill:none;stroke:#000000;stroke-width:0.96074468;stroke-miterlimit:4;stroke-opacity:1;stroke-dasharray:none"
       id="path4092"
       sodipodi:cx="783.82788"
       sodipodi:cy="551.76141"
       sodipodi:rx="30.759146"
       sodipodi:ry="33.941124"
       d="m 814.58703,551.76141 a 30.759146,33.941124 0 1 1 -61.51829,0 30.759146,33.941124 0 1 1 61.51829,0 z"
       transform="matrix(0.77185237,0,0,0.69949126,199.23833,479.59246)" />
    <path
       sodipodi:type="arc"
       style="fill:none;stroke:#000000;stroke-width:0.66788298;stroke-miterlimit:4;stroke-opacity:1;stroke-dasharray:none"
       id="path4103"
       sodipodi:cx="275.375"
       sodipodi:cy="561.09448"
       sodipodi:rx="25.625"
       sodipodi:ry="19.5"
       d="m 301,561.09448 a 25.625,19.5 0 1 1 -51.25,0 25.625,19.5 0 1 1 51.25,0 z"
       transform="matrix(0.92643274,0,0,1.2174276,-25.510117,182.33905)" />
    <path
       sodipodi:type="arc"
       style="fill:none;stroke:#000000;stroke-width:0.78419411;stroke-miterlimit:4;stroke-opacity:1;stroke-dasharray:none"
       id="path4105"
       sodipodi:cx="271.25"
       sodipodi:cy="559.59448"
       sodipodi:rx="28.25"
       sodipodi:ry="24.5"
       d="m 299.5,559.59448 a 28.25,24.5 0 1 1 -56.5,0 28.25,24.5 0 1 1 56.5,0 z"
       transform="matrix(0.8403773,0,0,0.96900648,72.486682,323.23609)" />
    <path
       sodipodi:type="arc"
       style="fill:none;stroke:#000000;stroke-width:0.64003253;stroke-miterlimit:4;stroke-opacity:1;stroke-dasharray:none"
       id="path4199"
       sodipodi:cx="961.25"
       sodipodi:cy="285.84448"
       sodipodi:rx="19.5"
       sodipodi:ry="23.5"
       d="m 980.75,285.84448 a 19.5,23.5 0 1 1 -39,0 19.5,23.5 0 1 1 39,0 z"
       transform="matrix(1.2174152,0,0,1.0101957,-223.96372,305.59278)" />
    <path
       sodipodi:type="arc"
       style="fill:none;stroke:#000000;stroke-width:0.73613107;stroke-miterlimit:4;stroke-opacity:1;stroke-dasharray:none"
       id="path4201"
       sodipodi:cx="1004.375"
       sodipodi:cy="284.09448"
       sodipodi:rx="23.875"
       sodipodi:ry="25.5"
       d="m 1028.25,284.09448 a 23.875,25.5 0 1 1 -47.75,0 23.875,25.5 0 1 1 47.75,0 z"
       transform="matrix(0.99436029,0,0,0.93099419,18.38132,329.91254)" />
    <path
       sodipodi:type="arc"
       style="fill:none;stroke:#000000;stroke-width:0.73265851;stroke-miterlimit:4;stroke-opacity:1;stroke-dasharray:none"
       id="path4239"
       sodipodi:cx="1161.7765"
       sodipodi:cy="129.97224"
       sodipodi:rx="25.455845"
       sodipodi:ry="23.688078"
       d="m 1187.2323,129.97224 a 25.455845,23.688078 0 1 1 -50.9117,0 25.455845,23.688078 0 1 1 50.9117,0 z"
       transform="matrix(0.93305734,0,0,1.0026885,65.267568,298.41835)" />
    <path
       sodipodi:type="arc"
       style="fill:none;stroke:#000000;stroke-width:0.75782186;stroke-miterlimit:4;stroke-opacity:1;stroke-dasharray:none"
       id="path4241"
       sodipodi:cx="1163.5442"
       sodipodi:cy="179.11617"
       sodipodi:rx="22.273863"
       sodipodi:ry="28.991379"
       d="m 1185.8181,179.11617 a 22.273863,28.991379 0 1 1 -44.5478,0 22.273863,28.991379 0 1 1 44.5478,0 z"
       transform="matrix(1.0658455,0,0,0.8188812,-90.886683,352.9313)" />
  </g>
  <g
     style="display:inline"
     transform="translate(0,24.803266)"
     id="g4942"
     inkscape:groupmode="layer"
     inkscape:label="Single-3Sliders">
    <path
       transform="matrix(0.14681868,0,0,-0.20020757,105.22476,624.67626)"
       d="m 214.28572,632.66589 a 42.857143,31.428572 0 1 1 -85.71429,0 42.857143,31.428572 0 1 1 85.71429,0 z"
       sodipodi:ry="31.428572"
       sodipodi:rx="42.857143"
       sodipodi:cy="632.66589"
       sodipodi:cx="171.42857"
       id="path4944"
       style="fill:none;stroke:#000000;stroke-width:4.13340712;stroke-miterlimit:4;stroke-opacity:1;stroke-dasharray:none"
       sodipodi:type="arc" />
    <path
       transform="matrix(0.14681868,0,0,-0.20020757,105.49337,1050.1423)"
       d="m 214.28572,632.66589 a 42.857143,31.428572 0 1 1 -85.71429,0 42.857143,31.428572 0 1 1 85.71429,0 z"
       sodipodi:ry="31.428572"
       sodipodi:rx="42.857143"
       sodipodi:cy="632.66589"
       sodipodi:cx="171.42857"
       id="path4946"
       style="fill:none;stroke:#000000;stroke-width:4.13340712;stroke-miterlimit:4;stroke-opacity:1;stroke-dasharray:none"
       sodipodi:type="arc" />
    <rect
       ry="3.5433121"
       rx="3.5433018"
       y="-903.91394"
       x="120.98138"
       height="388.60767"
       width="18.821066"
       id="rect4948"
       style="fill:none;stroke:#000000;stroke-width:0.89035088;stroke-miterlimit:4;stroke-opacity:1;stroke-dasharray:none"
       transform="scale(1,-1)" />
    <path
       transform="matrix(0,-0.52405523,-0.61763652,0,447.02948,1043.8164)"
       d="m 29.285714,695.08997 a 11.785714,10 0 1 1 -23.5714281,0 11.785714,10 0 1 1 23.5714281,0 z"
       sodipodi:ry="10"
       sodipodi:rx="11.785714"
       sodipodi:cy="695.08997"
       sodipodi:cx="17.5"
       id="path4952"
       style="fill:none;stroke:#000000;stroke-width:0.70866144;stroke-miterlimit:4;stroke-opacity:1;stroke-dasharray:none"
       sodipodi:type="arc" />
    <path
       transform="matrix(0,-0.52405523,-0.61763652,0,447.02948,398.04874)"
       d="m 29.285714,695.08997 a 11.785714,10 0 1 1 -23.5714281,0 11.785714,10 0 1 1 23.5714281,0 z"
       sodipodi:ry="10"
       sodipodi:rx="11.785714"
       sodipodi:cy="695.08997"
       sodipodi:cx="17.5"
       id="path4954"
       style="fill:none;stroke:#000000;stroke-width:0.70866144;stroke-miterlimit:4;stroke-opacity:1;stroke-dasharray:none"
       sodipodi:type="arc" />
    <path
       transform="matrix(0,-0.52405523,-0.61763652,0,598.50586,1043.8164)"
       d="m 29.285714,695.08997 a 11.785714,10 0 1 1 -23.5714281,0 11.785714,10 0 1 1 23.5714281,0 z"
       sodipodi:ry="10"
       sodipodi:rx="11.785714"
       sodipodi:cy="695.08997"
       sodipodi:cx="17.5"
       id="path4956"
       style="fill:none;stroke:#000000;stroke-width:0.70866144;stroke-miterlimit:4;stroke-opacity:1;stroke-dasharray:none"
       sodipodi:type="arc" />
    <path
       transform="matrix(0,-0.52405523,-0.61763652,0,598.50586,398.04874)"
       d="m 29.285714,695.08997 a 11.785714,10 0 1 1 -23.5714281,0 11.785714,10 0 1 1 23.5714281,0 z"
       sodipodi:ry="10"
       sodipodi:rx="11.785714"
       sodipodi:cy="695.08997"
       sodipodi:cx="17.5"
       id="path4958"
       style="fill:none;stroke:#000000;stroke-width:0.70866144;stroke-miterlimit:4;stroke-opacity:1;stroke-dasharray:none"
       sodipodi:type="arc" />
    <path
       transform="matrix(0,-0.52405523,-0.61763652,0,598.5059,872.85192)"
       d="m 29.285714,695.08997 a 11.785714,10 0 1 1 -23.5714281,0 11.785714,10 0 1 1 23.5714281,0 z"
       sodipodi:ry="10"
       sodipodi:rx="11.785714"
       sodipodi:cy="695.08997"
       sodipodi:cx="17.5"
       id="path4960"
       style="fill:none;stroke:#000000;stroke-width:0.70866144;stroke-miterlimit:4;stroke-opacity:1;stroke-dasharray:none;display:inline"
       sodipodi:type="arc" />
    <path
       transform="matrix(0,-0.52405523,-0.61763652,0,598.5059,675.31255)"
       d="m 29.285714,695.08997 a 11.785714,10 0 1 1 -23.5714281,0 11.785714,10 0 1 1 23.5714281,0 z"
       sodipodi:ry="10"
       sodipodi:rx="11.785714"
       sodipodi:cy="695.08997"
       sodipodi:cx="17.5"
       id="path4962"
       style="fill:none;stroke:#000000;stroke-width:0.70866144;stroke-miterlimit:4;stroke-opacity:1;stroke-dasharray:none;display:inline"
       sodipodi:type="arc" />
    <path
       transform="matrix(0.52405523,0,0,-0.61763652,958.15197,818.19073)"
       d="m 29.285714,695.08997 a 11.785714,10 0 1 1 -23.5714281,0 11.785714,10 0 1 1 23.5714281,0 z"
       sodipodi:ry="10"
       sodipodi:rx="11.785714"
       sodipodi:cy="695.08997"
       sodipodi:cx="17.5"
       id="path4968"
       style="fill:none;stroke:#000000;stroke-width:0.70866144;stroke-miterlimit:4;stroke-opacity:1;stroke-dasharray:none"
       sodipodi:type="arc" />
    <path
       transform="matrix(0,0.14681868,0.20020757,0,607.50859,602.17341)"
       d="m 214.28572,632.66589 a 42.857143,31.428572 0 1 1 -85.71429,0 42.857143,31.428572 0 1 1 85.71429,0 z"
       sodipodi:ry="31.428572"
       sodipodi:rx="42.857143"
       sodipodi:cy="632.66589"
       sodipodi:cx="171.42857"
       id="path4970"
       style="fill:none;stroke:#000000;stroke-width:4.13340712;stroke-miterlimit:4;stroke-opacity:1;stroke-dasharray:none"
       sodipodi:type="arc" />
    <path
       transform="matrix(0,0.14681868,0.20020757,0,182.04255,602.44202)"
       d="m 214.28572,632.66589 a 42.857143,31.428572 0 1 1 -85.71429,0 42.857143,31.428572 0 1 1 85.71429,0 z"
       sodipodi:ry="31.428572"
       sodipodi:rx="42.857143"
       sodipodi:cy="632.66589"
       sodipodi:cx="171.42857"
       id="path4972"
       style="fill:none;stroke:#000000;stroke-width:4.13340712;stroke-miterlimit:4;stroke-opacity:1;stroke-dasharray:none"
       sodipodi:type="arc" />
    <rect
       transform="matrix(0,1,1,0,0,0)"
       ry="3.5433116"
       rx="3.5433021"
       y="328.2709"
       x="617.92999"
       height="388.60767"
       width="18.821066"
       id="rect4974"
       style="fill:none;stroke:#000000;stroke-width:0.89035088;stroke-miterlimit:4;stroke-opacity:1;stroke-dasharray:none" />
    <path
       transform="matrix(0.52405523,0,0,-0.61763652,958.15197,1095.4545)"
       d="m 29.285714,695.08997 a 11.785714,10 0 1 1 -23.5714281,0 11.785714,10 0 1 1 23.5714281,0 z"
       sodipodi:ry="10"
       sodipodi:rx="11.785714"
       sodipodi:cy="695.08997"
       sodipodi:cx="17.5"
       id="path4978"
       style="fill:none;stroke:#000000;stroke-width:0.70866144;stroke-miterlimit:4;stroke-opacity:1;stroke-dasharray:none"
       sodipodi:type="arc" />
    <path
       transform="matrix(-0.52405523,0,0,0.61763652,976.4938,605.33253)"
       d="m 29.285714,695.08997 a 11.785714,10 0 1 1 -23.5714281,0 11.785714,10 0 1 1 23.5714281,0 z"
       sodipodi:ry="10"
       sodipodi:rx="11.785714"
       sodipodi:cy="695.08997"
       sodipodi:cx="17.5"
       id="path4982"
       style="fill:none;stroke:#000000;stroke-width:0.70866144;stroke-miterlimit:4;stroke-opacity:1;stroke-dasharray:none"
       sodipodi:type="arc" />
    <path
       transform="matrix(0,-0.14681868,-0.20020759,0,433.33783,955.99547)"
       d="m 214.28572,632.66589 a 42.857143,31.428572 0 1 1 -85.71429,0 42.857143,31.428572 0 1 1 85.71429,0 z"
       sodipodi:ry="31.428572"
       sodipodi:rx="42.857143"
       sodipodi:cy="632.66589"
       sodipodi:cx="171.42857"
       id="path4986"
       style="fill:none;stroke:#000000;stroke-width:4.13340712;stroke-miterlimit:4;stroke-opacity:1;stroke-dasharray:none"
       sodipodi:type="arc" />
    <path
       transform="matrix(0,-0.14681868,-0.20020759,0,858.80391,955.72686)"
       d="m 214.28572,632.66589 a 42.857143,31.428572 0 1 1 -85.71429,0 42.857143,31.428572 0 1 1 85.71429,0 z"
       sodipodi:ry="31.428572"
       sodipodi:rx="42.857143"
       sodipodi:cy="632.66589"
       sodipodi:cx="171.42857"
       id="path4988"
       style="fill:none;stroke:#000000;stroke-width:4.13340712;stroke-miterlimit:4;stroke-opacity:1;stroke-dasharray:none"
       sodipodi:type="arc" />
    <rect
       transform="matrix(0,-1,-1,0,0,0)"
       ry="3.5433121"
       rx="3.5433021"
       y="-712.57556"
       x="-940.23895"
       height="388.60773"
       width="18.821066"
       id="rect4990"
       style="fill:none;stroke:#000000;stroke-width:0.89035094;stroke-miterlimit:4;stroke-opacity:1;stroke-dasharray:none" />
    <path
       transform="matrix(-0.52405523,0,0,0.61763652,976.4938,434.36799)"
       d="m 29.285714,695.08997 a 11.785714,10 0 1 1 -23.5714281,0 11.785714,10 0 1 1 23.5714281,0 z"
       sodipodi:ry="10"
       sodipodi:rx="11.785714"
       sodipodi:cy="695.08997"
       sodipodi:cx="17.5"
       id="path4992"
       style="fill:none;stroke:#000000;stroke-width:0.70866144;stroke-miterlimit:4;stroke-opacity:1;stroke-dasharray:none"
       sodipodi:type="arc" />
    <path
       transform="matrix(1.7734621,0,0,-1.4919601,-37.679136,1167.0607)"
       d="m 71.215755,159.97377 a 13.384521,15.909903 0 1 1 -26.769042,0 13.384521,15.909903 0 1 1 26.769042,0 z"
       sodipodi:ry="15.909903"
       sodipodi:rx="13.384521"
       sodipodi:cy="159.97377"
       sodipodi:cx="57.831234"
       id="path5014"
       style="fill:none;stroke:#000000;stroke-width:0.43961808;stroke-miterlimit:4;stroke-opacity:1;stroke-dasharray:none"
       sodipodi:type="arc" />
    <path
       transform="matrix(1.040077,0,0,-1.4340456,2.5207784,1169.8222)"
       d="m 82.5,119.09448 a 22.75,16.5 0 1 1 -45.5,0 22.75,16.5 0 1 1 45.5,0 z"
       sodipodi:ry="16.5"
       sodipodi:rx="22.75"
       sodipodi:cy="119.09448"
       sodipodi:cx="59.75"
       id="path5016"
       style="fill:none;stroke:#000000;stroke-width:0.70866144;stroke-miterlimit:4;stroke-opacity:1;stroke-dasharray:none"
       sodipodi:type="arc" />
    <path
       transform="matrix(0.59548024,0,0,-1.0135833,12.26312,1138.4761)"
       d="m 128,704.59448 a 40,23.5 0 1 1 -80,0 40,23.5 0 1 1 80,0 z"
       sodipodi:ry="23.5"
       sodipodi:rx="40"
       sodipodi:cy="704.59448"
       sodipodi:cx="88"
       id="path5018"
       style="fill:none;stroke:#000000;stroke-width:0.70866144;stroke-miterlimit:4;stroke-opacity:1;stroke-dasharray:none"
       sodipodi:type="arc" />
    <path
       transform="matrix(0.81696512,0,0,-1.5794659,19.732299,1444.5852)"
       d="m 84,601.09448 a 29,15 0 1 1 -58,0 29,15 0 1 1 58,0 z"
       sodipodi:ry="15"
       sodipodi:rx="29"
       sodipodi:cy="601.09448"
       sodipodi:cx="55"
       id="path5020"
       style="fill:none;stroke:#000000;stroke-width:0.70866144;stroke-miterlimit:4;stroke-opacity:1;stroke-dasharray:none"
       sodipodi:type="arc" />
    <path
       transform="matrix(1.1990252,0,0,-1.0658002,-154.13078,1129.0958)"
       d="m 822.01164,124.31538 a 19.79899,22.273863 0 1 1 -39.59798,0 19.79899,22.273863 0 1 1 39.59798,0 z"
       sodipodi:ry="22.273863"
       sodipodi:rx="19.79899"
       sodipodi:cy="124.31538"
       sodipodi:cx="802.21265"
       id="path5022"
       style="fill:none;stroke:#000000;stroke-width:0.62806857;stroke-miterlimit:4;stroke-opacity:1;stroke-dasharray:none"
       sodipodi:type="arc" />
    <path
       transform="matrix(1.5613874,0,0,-1.4919925,-451.51696,1184.325)"
       d="m 776.40324,125.7296 a 15.202796,15.909903 0 1 1 -30.4056,0 15.202796,15.909903 0 1 1 30.4056,0 z"
       sodipodi:ry="15.909903"
       sodipodi:rx="15.202796"
       sodipodi:cy="125.7296"
       sodipodi:cx="761.20044"
       id="path5024"
       style="fill:none;stroke:#000000;stroke-width:0.467843;stroke-miterlimit:4;stroke-opacity:1;stroke-dasharray:none"
       sodipodi:type="arc" />
    <path
       transform="matrix(1.4721703,0,0,-1.1041277,-108.65942,1138.0832)"
       d="m 248.25,128.09448 a 16.125,21.5 0 1 1 -32.25,0 16.125,21.5 0 1 1 32.25,0 z"
       sodipodi:ry="21.5"
       sodipodi:rx="16.125"
       sodipodi:cy="128.09448"
       sodipodi:cx="232.125"
       id="path5026"
       style="fill:none;stroke:#000000;stroke-width:0.55805516;stroke-miterlimit:4;stroke-opacity:1;stroke-dasharray:none"
       sodipodi:type="arc" />
    <path
       transform="matrix(1.2096604,0,0,-1.0210574,-25.30177,1122.5356)"
       d="m 291.75,123.34448 a 19.625,23.25 0 1 1 -39.25,0 19.625,23.25 0 1 1 39.25,0 z"
       sodipodi:ry="23.25"
       sodipodi:rx="19.625"
       sodipodi:cy="123.34448"
       sodipodi:cx="272.125"
       id="path5028"
       style="fill:none;stroke:#000000;stroke-width:0.63867855;stroke-miterlimit:4;stroke-opacity:1;stroke-dasharray:none"
       sodipodi:type="arc" />
    <path
       transform="matrix(0.8290039,0,0,-0.89532422,102.40471,1060.3191)"
       d="m 794.08094,557.06476 a 28.637825,26.516504 0 1 1 -57.27565,0 28.637825,26.516504 0 1 1 57.27565,0 z"
       sodipodi:ry="26.516504"
       sodipodi:rx="28.637825"
       sodipodi:cy="557.06476"
       sodipodi:cx="765.44312"
       id="path5030"
       style="fill:none;stroke:#000000;stroke-width:0.82091445;stroke-miterlimit:4;stroke-opacity:1;stroke-dasharray:none"
       sodipodi:type="arc" />
    <path
       transform="matrix(0.77185237,0,0,-0.69949126,202.78166,947.47418)"
       d="m 814.58703,551.76141 a 30.759146,33.941124 0 1 1 -61.51829,0 30.759146,33.941124 0 1 1 61.51829,0 z"
       sodipodi:ry="33.941124"
       sodipodi:rx="30.759146"
       sodipodi:cy="551.76141"
       sodipodi:cx="783.82788"
       id="path5032"
       style="fill:none;stroke:#000000;stroke-width:0.96074468;stroke-miterlimit:4;stroke-opacity:1;stroke-dasharray:none"
       sodipodi:type="arc" />
    <path
       transform="matrix(0.92643274,0,0,-1.2174276,-21.966784,1244.7276)"
       d="m 301,561.09448 a 25.625,19.5 0 1 1 -51.25,0 25.625,19.5 0 1 1 51.25,0 z"
       sodipodi:ry="19.5"
       sodipodi:rx="25.625"
       sodipodi:cy="561.09448"
       sodipodi:cx="275.375"
       id="path5034"
       style="fill:none;stroke:#000000;stroke-width:0.66788298;stroke-miterlimit:4;stroke-opacity:1;stroke-dasharray:none"
       sodipodi:type="arc" />
    <path
       transform="matrix(0.8403773,0,0,-0.96900648,76.030015,1103.8305)"
       d="m 299.5,559.59448 a 28.25,24.5 0 1 1 -56.5,0 28.25,24.5 0 1 1 56.5,0 z"
       sodipodi:ry="24.5"
       sodipodi:rx="28.25"
       sodipodi:cy="559.59448"
       sodipodi:cx="271.25"
       id="path5036"
       style="fill:none;stroke:#000000;stroke-width:0.78419411;stroke-miterlimit:4;stroke-opacity:1;stroke-dasharray:none"
       sodipodi:type="arc" />
    <path
       sodipodi:type="arc"
       style="fill:none;stroke:#000000;stroke-width:0.70866144;stroke-miterlimit:4;stroke-opacity:1;stroke-dasharray:none;display:inline"
       id="path5098-3"
       sodipodi:cx="752.40955"
       sodipodi:cy="219.42679"
       sodipodi:rx="16.959499"
       sodipodi:ry="15.882706"
       d="m 769.36905,219.42679 a 16.959499,15.882706 0 1 1 -33.919,0 16.959499,15.882706 0 1 1 33.919,0 z"
       transform="matrix(0,-0.81804913,0.8735101,0,-97.419547,896.26264)" />
    <path
       sodipodi:type="arc"
       style="fill:none;stroke:#000000;stroke-width:0.70866144;stroke-miterlimit:4;stroke-opacity:1;stroke-dasharray:none;display:inline"
       id="path5100-2"
       sodipodi:cx="908.69293"
       sodipodi:cy="222.24443"
       sodipodi:rx="6.4719687"
       sodipodi:ry="6.4243808"
       d="m 915.1649,222.24443 a 6.4719687,6.4243808 0 1 1 -12.94394,0 6.4719687,6.4243808 0 1 1 12.94394,0 z"
       transform="matrix(0,-0.83034795,0.83649865,0,-91.655186,1061.8608)" />
    <path
       sodipodi:type="arc"
       style="fill:none;stroke:#000000;stroke-width:0.64003253;stroke-miterlimit:4;stroke-opacity:1;stroke-dasharray:none;display:inline"
       id="path5138-9"
       sodipodi:cx="961.25"
       sodipodi:cy="285.84448"
       sodipodi:rx="19.5"
       sodipodi:ry="23.5"
       d="m 980.75,285.84448 a 19.5,23.5 0 1 1 -39,0 19.5,23.5 0 1 1 39,0 z"
       transform="matrix(0,-1.2174152,1.0101957,0,-80.412385,1486.3032)" />
    <path
       sodipodi:type="arc"
       style="fill:none;stroke:#000000;stroke-width:0.73613107;stroke-miterlimit:4;stroke-opacity:1;stroke-dasharray:none;display:inline"
       id="path5140-6"
       sodipodi:cx="1004.375"
       sodipodi:cy="284.09448"
       sodipodi:rx="23.875"
       sodipodi:ry="25.5"
       d="m 1028.25,284.09448 a 23.875,25.5 0 1 1 -47.75,0 23.875,25.5 0 1 1 47.75,0 z"
       transform="matrix(0,-0.99436029,0.93099419,0,-56.092625,1243.9581)" />
    <g
       id="g4006"
       transform="matrix(0,1,-1,0,388.6419,-204.09983)">
      <path
         transform="matrix(0.93305734,0,0,1.0026885,-758.73497,135.01312)"
         d="m 1187.2323,129.97224 a 25.455845,23.688078 0 1 1 -50.9117,0 25.455845,23.688078 0 1 1 50.9117,0 z"
         sodipodi:ry="23.688078"
         sodipodi:rx="25.455845"
         sodipodi:cy="129.97224"
         sodipodi:cx="1161.7765"
         id="path5142-7"
         style="fill:none;stroke:#000000;stroke-width:0.73265851;stroke-miterlimit:4;stroke-opacity:1;stroke-dasharray:none;display:inline"
         sodipodi:type="arc" />
      <path
         transform="matrix(1.0658455,0,0,0.8188812,-914.88917,189.52607)"
         d="m 1185.8181,179.11617 a 22.273863,28.991379 0 1 1 -44.5478,0 22.273863,28.991379 0 1 1 44.5478,0 z"
         sodipodi:ry="28.991379"
         sodipodi:rx="22.273863"
         sodipodi:cy="179.11617"
         sodipodi:cx="1163.5442"
         id="path5144-6"
         style="fill:none;stroke:#000000;stroke-width:0.75782186;stroke-miterlimit:4;stroke-opacity:1;stroke-dasharray:none;display:inline"
         sodipodi:type="arc" />
    </g>
    <rect
       style="fill:none;stroke:#000000;stroke-width:0.75994486;stroke-miterlimit:4;stroke-opacity:1;stroke-dasharray:none"
       id="rect4077"
       width="984.27942"
       height="984.27942"
       x="0.37997243"
       y="67.702629"
       rx="10.62172"
       ry="10.621719" />
    <path
       transform="matrix(0.52405523,0,0,-0.61763652,958.15187,514.35213)"
       d="m 29.285714,695.08997 a 11.785714,10 0 1 1 -23.5714281,0 11.785714,10 0 1 1 23.5714281,0 z"
       sodipodi:ry="10"
       sodipodi:rx="11.785714"
       sodipodi:cy="695.08997"
       sodipodi:cx="17.5"
       id="path4968-3"
       style="fill:none;stroke:#000000;stroke-width:0.70866144;stroke-miterlimit:4;stroke-opacity:1;stroke-dasharray:none;display:inline"
       sodipodi:type="arc" />
    <path
       transform="matrix(0,-0.52405523,-0.61763652,0,447.02948,94.210149)"
       d="m 29.285714,695.08997 a 11.785714,10 0 1 1 -23.5714281,0 11.785714,10 0 1 1 23.5714281,0 z"
       sodipodi:ry="10"
       sodipodi:rx="11.785714"
       sodipodi:cy="695.08997"
       sodipodi:cx="17.5"
       id="path4954-9"
       style="fill:none;stroke:#000000;stroke-width:0.70866144;stroke-miterlimit:4;stroke-opacity:1;stroke-dasharray:none;display:inline"
       sodipodi:type="arc" />
    <path
       transform="matrix(0,-0.52405523,-0.61763652,0,598.50586,94.210149)"
       d="m 29.285714,695.08997 a 11.785714,10 0 1 1 -23.5714281,0 11.785714,10 0 1 1 23.5714281,0 z"
       sodipodi:ry="10"
       sodipodi:rx="11.785714"
       sodipodi:cy="695.08997"
       sodipodi:cx="17.5"
       id="path4962-8"
       style="fill:none;stroke:#000000;stroke-width:0.70866144;stroke-miterlimit:4;stroke-opacity:1;stroke-dasharray:none;display:inline"
       sodipodi:type="arc" />
    <path
       sodipodi:type="arc"
       style="fill:none;stroke:#000000;stroke-width:0.10672953;stroke-miterlimit:4;stroke-opacity:1;stroke-dasharray:none;display:inline"
       id="path4253"
       sodipodi:cx="13.889598"
       sodipodi:cy="1048.8267"
       sodipodi:rx="2.7779195"
       sodipodi:ry="2.5253813"
       d="m 16.667517,1048.8267 a 2.7779195,2.5253813 0 1 1 -5.555839,0 2.7779195,2.5253813 0 1 1 5.555839,0 z"
       transform="matrix(-2.2506008,0,0,-2.4756609,618.03159,3004.7279)" />
    <path
       sodipodi:type="arc"
       style="fill:none;stroke:#000000;stroke-width:0.22594742;stroke-miterlimit:4;stroke-opacity:1;stroke-dasharray:none;display:inline"
       id="path4763"
       sodipodi:cx="18.309015"
       sodipodi:cy="1014.9865"
       sodipodi:rx="5.4295697"
       sodipodi:ry="5.8083773"
       d="m 23.738585,1014.9865 a 5.4295697,5.8083773 0 1 1 -10.859139,0 5.4295697,5.8083773 0 1 1 10.859139,0 z"
       transform="matrix(-1.151505,0,0,-1.0764068,603.24827,1671.5145)" />
    <path
       sodipodi:type="arc"
       style="fill:none;stroke:#000000;stroke-width:0.05513921;stroke-miterlimit:4;stroke-opacity:1;stroke-dasharray:none;display:inline"
       id="path4765"
       sodipodi:cx="65.028572"
       sodipodi:cy="1048.9529"
       sodipodi:rx="1.6414979"
       sodipodi:ry="1.1364216"
       d="m 66.67007,1048.9529 a 1.6414979,1.1364216 0 1 1 -3.282996,0 1.6414979,1.1364216 0 1 1 3.282996,0 z"
       transform="matrix(-3.8085688,0,0,-5.5012662,649.83114,6196.8287)" />
    <path
       sodipodi:type="arc"
       style="fill:none;stroke:#000000;stroke-width:0.08394035;stroke-miterlimit:4;stroke-opacity:1;stroke-dasharray:none;display:inline"
       id="path4767"
       sodipodi:cx="63.892147"
       sodipodi:cy="1022.689"
       sodipodi:rx="2.0203052"
       sodipodi:ry="2.1465743"
       d="m 65.912452,1022.689 a 2.0203052,2.1465743 0 1 1 -4.04061,0 2.0203052,2.1465743 0 1 1 4.04061,0 z"
       transform="matrix(-3.094558,0,0,-2.9125251,599.88331,3503.7254)" />
  </g>
  <g
     inkscape:groupmode="layer"
     id="layer2"
     inkscape:label="components"
     style="display:none"
     sodipodi:insensitive="true">
    <rect
       style="fill:none;stroke:#000000;stroke-width:0.70866144;stroke-miterlimit:4;stroke-opacity:1;stroke-dasharray:none"
       id="rect3147"
       width="428.74014"
       height="230.31496"
       x="375.94489"
       y="134.29128" />
    <path
       sodipodi:type="arc"
       style="fill:none;stroke:#000000;stroke-width:0.15932371;stroke-miterlimit:4;stroke-opacity:1;stroke-dasharray:none"
       id="path3923"
       sodipodi:cx="24.25"
       sodipodi:cy="319.16531"
       sodipodi:rx="12.5"
       sodipodi:ry="13.25"
       d="m 36.75,319.16531 a 12.5,13.25 0 1 1 -25,0 12.5,13.25 0 1 1 25,0 z"
       transform="matrix(4.6768663,0,0,4.3199336,-19.162039,-1071.9942)" />
  </g>
</svg>
