<?xml version="1.0" encoding="UTF-8" standalone="no"?>
<!-- Created with Inkscape (http://www.inkscape.org/) -->

<svg
   xmlns:dc="http://purl.org/dc/elements/1.1/"
   xmlns:cc="http://creativecommons.org/ns#"
   xmlns:rdf="http://www.w3.org/1999/02/22-rdf-syntax-ns#"
   xmlns:svg="http://www.w3.org/2000/svg"
   xmlns="http://www.w3.org/2000/svg"
   xmlns:sodipodi="http://sodipodi.sourceforge.net/DTD/sodipodi-0.dtd"
   xmlns:inkscape="http://www.inkscape.org/namespaces/inkscape"
   width="1077.1653"
   height="1077.1653"
   id="svg4001"
   version="1.1"
   inkscape:version="0.48.3.1 r9886"
   sodipodi:docname="New document 20">
  <defs
     id="defs4003" />
  <sodipodi:namedview
     id="base"
     pagecolor="#ffffff"
     bordercolor="#666666"
     borderopacity="1.0"
     inkscape:pageopacity="0.0"
     inkscape:pageshadow="2"
     inkscape:zoom="0.7"
     inkscape:cx="197.46"
     inkscape:cy="810.83816"
     inkscape:document-units="mm"
     inkscape:current-layer="layer1"
     showgrid="false"
     units="mm"
     inkscape:window-width="723"
     inkscape:window-height="474"
     inkscape:window-x="0"
     inkscape:window-y="73"
     inkscape:window-maximized="0" />
  <metadata
     id="metadata4006">
    <rdf:RDF>
      <cc:Work
         rdf:about="">
        <dc:format>image/svg+xml</dc:format>
        <dc:type
           rdf:resource="http://purl.org/dc/dcmitype/StillImage" />
        <dc:title></dc:title>
      </cc:Work>
    </rdf:RDF>
  </metadata>
  <g
     inkscape:label="Layer 1"
     inkscape:groupmode="layer"
     id="layer1"
     transform="translate(0,24.803143)">
    <g
       transform="translate(8.8558169,1036.4033)"
       style="display:inline"
       id="g3814">
      <path
         style="fill:none;stroke:#000000;stroke-width:0.27856296;stroke-miterlimit:4;stroke-opacity:1;stroke-dasharray:none;display:inline"
         d="m 56.625,-189.4375 0,9.09375 -47.625,0 0,53.15625 10.125,0 0,70.125 -10.125,0 0,70.875 47.625,0 0,9.09375 70.5625,0 0,-9.09375 85.34375,0 0,9.09375 70.5625,0 0,-9.09375 142.03125,0 0,9.09375 70.59375,0 0,-9.09375 142,0 0,9.09375 70.59375,0 0,-9.09375 142,0 0,9.09375 70.59375,0 0,-9.09375 54.6875,0 0,-70.875 -9.6875,0 0,-70.15625 9.6875,0 0,-53.125 -54.6875,0 0,-9.09375 -70.59375,0 0,9.09375 -142,0 0,-9.09375 -70.59375,0 0,9.09375 -142,0 0,-9.09375 -70.59375,0 0,9.09375 -142.03125,0 0,-9.09375 -70.5625,0 0,9.09375 -85.34375,0 0,-9.09375 -70.5625,0 z"
         transform="translate(0,-24.803266)"
         id="path5138"
         inkscape:connector-curvature="0" />
      <rect
         style="fill:none;stroke:#000000;stroke-width:0.7035023;stroke-miterlimit:4;stroke-opacity:1;stroke-dasharray:none"
         id="rect5142"
         width="105.59571"
         height="87.879173"
         x="833.02893"
         y="-134.2941"
         rx="3.5198572"
         ry="3.5151668" />
      <rect
         style="fill:none;stroke:#000000;stroke-width:0.67168045;stroke-miterlimit:4;stroke-opacity:1;stroke-dasharray:none;display:inline"
         id="rect5144"
         width="6.4149337"
         height="87.910995"
         x="574.35156"
         y="-134.31001"
         rx="3.2074668"
         ry="3.5164397" />
      <rect
         style="fill:none;stroke:#000000;stroke-width:0.67168045;stroke-miterlimit:4;stroke-opacity:1;stroke-dasharray:none;display:inline"
         id="rect5146"
         width="6.4149337"
         height="87.910995"
         x="588.52484"
         y="-134.31001"
         rx="3.2074668"
         ry="3.5164397" />
      <rect
         style="fill:none;stroke:#000000;stroke-width:0.67168045;stroke-miterlimit:4;stroke-opacity:1;stroke-dasharray:none;display:inline"
         id="rect5148"
         width="6.4149337"
         height="87.910995"
         x="602.69806"
         y="-134.31001"
         rx="3.2074668"
         ry="3.5164397" />
      <rect
         style="fill:none;stroke:#000000;stroke-width:0.67168045;stroke-miterlimit:4;stroke-opacity:1;stroke-dasharray:none;display:inline"
         id="rect5150"
         width="6.4149337"
         height="87.910995"
         x="616.87128"
         y="-134.31001"
         rx="3.2074668"
         ry="3.5164397" />
      <rect
         style="fill:none;stroke:#000000;stroke-width:0.67168045;stroke-miterlimit:4;stroke-opacity:1;stroke-dasharray:none;display:inline"
         id="rect5152"
         width="6.4149337"
         height="87.910995"
         x="631.04449"
         y="-134.31001"
         rx="3.2074668"
         ry="3.5164397" />
      <rect
         style="fill:none;stroke:#000000;stroke-width:0.67168045;stroke-miterlimit:4;stroke-opacity:1;stroke-dasharray:none;display:inline"
         id="rect5154"
         width="6.4149337"
         height="87.910995"
         x="631.04449"
         y="-134.31001"
         rx="3.2074668"
         ry="3.5164397" />
      <rect
         style="fill:none;stroke:#000000;stroke-width:0.67168045;stroke-miterlimit:4;stroke-opacity:1;stroke-dasharray:none;display:inline"
         id="rect5156"
         width="6.4149337"
         height="87.910995"
         x="645.21771"
         y="-134.31001"
         rx="3.2074668"
         ry="3.5164397" />
      <rect
         style="fill:none;stroke:#000000;stroke-width:0.67168045;stroke-miterlimit:4;stroke-opacity:1;stroke-dasharray:none;display:inline"
         id="rect5158"
         width="6.4149337"
         height="87.910995"
         x="659.39093"
         y="-134.31001"
         rx="3.2074668"
         ry="3.5164397" />
      <rect
         style="fill:none;stroke:#000000;stroke-width:0.67168045;stroke-miterlimit:4;stroke-opacity:1;stroke-dasharray:none;display:inline"
         id="rect5160"
         width="6.4149337"
         height="87.910995"
         x="673.56421"
         y="-134.31001"
         rx="3.2074668"
         ry="3.5164397" />
      <rect
         style="fill:none;stroke:#000000;stroke-width:0.67168045;stroke-miterlimit:4;stroke-opacity:1;stroke-dasharray:none;display:inline"
         id="rect5162"
         width="6.4149337"
         height="87.910995"
         x="687.73743"
         y="-134.31001"
         rx="3.2074668"
         ry="3.5164397" />
      <rect
         style="fill:none;stroke:#000000;stroke-width:0.67168045;stroke-miterlimit:4;stroke-opacity:1;stroke-dasharray:none;display:inline"
         id="rect5164"
         width="6.4149337"
         height="87.910995"
         x="701.91064"
         y="-134.31001"
         rx="3.2074668"
         ry="3.5164397" />
      <rect
         style="fill:none;stroke:#000000;stroke-width:0.67168045;stroke-miterlimit:4;stroke-opacity:1;stroke-dasharray:none;display:inline"
         id="rect5166"
         width="6.4149337"
         height="87.910995"
         x="546.00513"
         y="-134.31001"
         rx="3.2074668"
         ry="3.5164397" />
      <rect
         style="fill:none;stroke:#000000;stroke-width:0.67168045;stroke-miterlimit:4;stroke-opacity:1;stroke-dasharray:none;display:inline"
         id="rect5168"
         width="6.4149337"
         height="87.910995"
         x="560.17834"
         y="-134.31001"
         rx="3.2074668"
         ry="3.5164397" />
      <rect
         style="fill:none;stroke:#000000;stroke-width:0.68223536;stroke-miterlimit:4;stroke-opacity:1;stroke-dasharray:none"
         id="rect5170"
         width="9.9476852"
         height="70.183907"
         x="164.21907"
         y="-152.02129" />
      <rect
         style="fill:none;stroke:#000000;stroke-width:0.67168045;stroke-miterlimit:4;stroke-opacity:1;stroke-dasharray:none;display:inline"
         id="rect5196"
         width="6.4149337"
         height="87.910995"
         x="716.08386"
         y="-134.31001"
         rx="3.2074668"
         ry="3.5164397" />
      <rect
         style="fill:none;stroke:#000000;stroke-width:0.67168045;stroke-miterlimit:4;stroke-opacity:1;stroke-dasharray:none;display:inline"
         id="rect5198"
         width="6.4149337"
         height="87.910995"
         x="730.25708"
         y="-134.31001"
         rx="3.2074668"
         ry="3.5164397" />
      <rect
         style="fill:none;stroke:#000000;stroke-width:0.69956541;stroke-miterlimit:4;stroke-opacity:1;stroke-dasharray:none;display:inline"
         id="rect5200"
         width="141.03271"
         height="87.88311"
         x="248.38129"
         y="-109.49281"
         rx="3.5258179"
         ry="3.5153244"
         transform="translate(0,-24.803266)" />
    </g>
    <g
       style="display:inline"
       id="g5297"
       transform="matrix(1,0,0,-1,8.8582677,2113.5585)">
      <path
         inkscape:connector-curvature="0"
         style="fill:none;stroke:#000000;stroke-width:0.27856296;stroke-miterlimit:4;stroke-opacity:1;stroke-dasharray:none;display:inline"
         d="m 56.622549,1309.3671 0,9.0938 -47.6249998,0 0,53.1562 10.1249998,0 0,70.125 -10.1249998,0 0,70.875 47.6249998,0 0,9.0938 70.562501,0 0,-9.0938 85.34375,0 0,9.0938 70.5625,0 0,-9.0938 142.03125,0 0,9.0938 70.59375,0 0,-9.0938 142,0 0,9.0938 70.59375,0 0,-9.0938 142,0 0,9.0938 70.59375,0 0,-9.0938 54.6875,0 0,-70.875 -9.6875,0 0,-70.1562 9.6875,0 0,-53.125 -54.6875,0 0,-9.0938 -70.59375,0 0,9.0938 -142,0 0,-9.0938 -70.59375,0 0,9.0938 -142,0 0,-9.0938 -70.59375,0 0,9.0938 -142.03125,0 0,-9.0938 -70.5625,0 0,9.0938 -85.34375,0 0,-9.0938 -70.562501,0 z"
         id="path5140" />
      <rect
         style="fill:none;stroke:#000000;stroke-width:0.68223536;stroke-miterlimit:4;stroke-opacity:1;stroke-dasharray:none;display:inline"
         id="rect5172"
         width="9.9476852"
         height="70.183907"
         x="164.21907"
         y="1371.6008" />
    </g>
    <path
       inkscape:connector-curvature="0"
       id="path5188"
       d="m 221.60826,361.5639 0,9.0625 -37.90625,0 0,70.1875 -8.84375,0 0,70.8438 8.84375,0 0,53.1562 37.90625,0 0,9.0625 70.5625,0 0,-9.0625 142.03125,0 0,9.0625 70.59375,0 0,-9.0625 142,0 0,9.0625 70.59375,0 0,-9.0625 142,0 0,9.0625 70.59375,0 0,-9.0625 44.06253,0 0,-53.1562 9.5625,0 0,-70.8438 -9.5625,0 0,-70.1875 -44.06253,0 0,-9.0625 -70.59375,0 0,9.0625 -142,0 0,-9.0625 -70.59375,0 0,9.0625 -67.125,0 0,17.7187 48.90625,0 0,52.4688 -105.59375,0 0,-52.4688 46.0625,0 0,-17.7187 -64.25,0 0,-9.0625 -70.59375,0 0,9.0625 -142.03125,0 0,-9.0625 -70.5625,0 z"
       style="fill:none;stroke:#000000;stroke-width:0.27856296;stroke-miterlimit:4;stroke-opacity:1;stroke-dasharray:none;display:inline" />
  </g>
</svg>
