<?xml version="1.0" encoding="UTF-8" standalone="no"?>
<!-- Created with Inkscape (http://www.inkscape.org/) -->

<svg
   xmlns:dc="http://purl.org/dc/elements/1.1/"
   xmlns:cc="http://creativecommons.org/ns#"
   xmlns:rdf="http://www.w3.org/1999/02/22-rdf-syntax-ns#"
   xmlns:svg="http://www.w3.org/2000/svg"
   xmlns="http://www.w3.org/2000/svg"
   xmlns:sodipodi="http://sodipodi.sourceforge.net/DTD/sodipodi-0.dtd"
   xmlns:inkscape="http://www.inkscape.org/namespaces/inkscape"
   width="1077.1653"
   height="1077.1653"
   id="svg3833"
   version="1.1"
   inkscape:version="0.48.3.1 r9886"
   sodipodi:docname="New document 15">
  <defs
     id="defs3835">
    <filter
       color-interpolation-filters="sRGB"
       inkscape:collect="always"
       id="filter5321">
      <feBlend
         inkscape:collect="always"
         mode="lighten"
         in2="BackgroundImage"
         id="feBlend5323" />
    </filter>
  </defs>
  <sodipodi:namedview
     id="base"
     pagecolor="#ffffff"
     bordercolor="#666666"
     borderopacity="1.0"
     inkscape:pageopacity="0.0"
     inkscape:pageshadow="2"
     inkscape:zoom="0.35"
     inkscape:cx="31.776121"
     inkscape:cy="681.58214"
     inkscape:document-units="mm"
     inkscape:current-layer="layer1"
     showgrid="false"
     units="mm"
     inkscape:window-width="723"
     inkscape:window-height="474"
     inkscape:window-x="0"
     inkscape:window-y="73"
     inkscape:window-maximized="0" />
  <metadata
     id="metadata3838">
    <rdf:RDF>
      <cc:Work
         rdf:about="">
        <dc:format>image/svg+xml</dc:format>
        <dc:type
           rdf:resource="http://purl.org/dc/dcmitype/StillImage" />
        <dc:title></dc:title>
      </cc:Work>
    </rdf:RDF>
  </metadata>
  <g
     inkscape:label="Layer 1"
     inkscape:groupmode="layer"
     id="layer1"
     transform="translate(0,24.803143)">
    <g
       transform="translate(469.51083,-7.0929599)"
       style="display:inline"
       id="g5174">
      <path
         inkscape:connector-curvature="0"
         style="fill:none;stroke:#000000;stroke-width:0.70866144;stroke-miterlimit:4;stroke-opacity:1;stroke-dasharray:none"
         d="m -159.09375,103.09375 0,8.15625 -53.84375,0 0,45 -8.1875,0 0,70.1875 8.1875,0 0,142.40625 -8.1875,0 0,70.1875 8.1875,0 0,142.40625 -8.1875,0 0,70.1875 8.1875,0 0,142.40625 -8.1875,0 0,70.1875 8.1875,0 0,71.5625 -8.1875,0 0,70.18755 8.1875,0 0,51.3437 53.84375,0 0,8.875 70.1875,0 0,-8.875 70.84375,0 0,-51.3437 8.875,0 0,-70.18755 -8.875,0 0,-71.5625 8.875,0 0,-70.1875 -8.875,0 0,-36.125 -17.6875,0 0,35.5 -52.53125,0 0,-105.6875 52.53125,0 0,59.5625 17.6875,0 0,-95.65625 8.875,0 0,-70.1875 -8.875,0 0,-142.40625 8.875,0 0,-70.1875 -8.875,0 0,-142.40625 8.875,0 0,-70.1875 -8.875,0 0,-45 -70.84375,0 0,-8.15625 -70.1875,0 z"
         transform="translate(0,-24.803266)"
         id="path5176" />
      <rect
         style="fill:none;stroke:#000000;stroke-width:0.70866144;stroke-miterlimit:4;stroke-opacity:1;stroke-dasharray:none"
         id="rect5178"
         width="70.866142"
         height="10.629921"
         x="88.93454"
         y="625.03918"
         transform="scale(-1,1)" />
    </g>
    <g
       transform="translate(487.20473,-7.0929599)"
       style="display:inline"
       id="g3783">
      <path
         inkscape:connector-curvature="0"
         style="fill:none;stroke:#000000;stroke-width:0.70866144;stroke-miterlimit:4;stroke-opacity:1;stroke-dasharray:none"
         d="m -336.91511,78.284015 0,8.15625 70.84375,0 0,44.999995 8.875,0 0,70.1875 -8.875,0 0,142.40625 8.875,0 0,70.1875 -8.875,0 0,142.40625 8.875,0 0,70.1875 -8.875,0 0,142.40625 8.875,0 0,70.1875 -8.875,0 0,71.5625 8.875,0 0,70.18755 -8.875,0 0,51.34374 -70.84375,0 0,8.875 -70.1875,0 0,-8.875 -53.84375,0 0,-51.34374 -8.1875,0 0,-70.18755 8.1875,0 0,-71.5625 -8.1875,0 0,-70.1875 8.1875,0 0,-142.40625 -8.1875,0 0,-70.1875 8.1875,0 0,-142.40625 -8.1875,0 0,-70.1875 8.1875,0 0,-142.40625 -8.1875,0 0,-70.1875 8.1875,0 0,-44.999995 53.84375,0 0,-8.15625 70.1875,0 z"
         id="path5186" />
      <path
         transform="matrix(0.59548024,0,0,-1.0135833,-389.01643,1359.0469)"
         d="m 128,704.59448 c 0,12.97869 -17.90861,23.5 -40,23.5 -22.09139,0 -40,-10.52131 -40,-23.5 0,-12.97869 17.90861,-23.5 40,-23.5 22.09139,0 40,10.52131 40,23.5 z"
         sodipodi:ry="23.5"
         sodipodi:rx="40"
         sodipodi:cy="704.59448"
         sodipodi:cx="88"
         id="path5190"
         style="fill:none;stroke:#000000;stroke-width:0.70866144;stroke-miterlimit:4;stroke-opacity:1;stroke-dasharray:none;display:inline"
         sodipodi:type="arc" />
      <path
         transform="matrix(0.81696512,0,0,-1.5794659,-381.54725,1665.156)"
         d="m 84,601.09448 c 0,8.28427 -12.983742,15 -29,15 -16.016258,0 -29,-6.71573 -29,-15 0,-8.28427 12.983742,-15 29,-15 16.016258,0 29,6.71573 29,15 z"
         sodipodi:ry="15"
         sodipodi:rx="29"
         sodipodi:cy="601.09448"
         sodipodi:cx="55"
         id="path5192"
         style="fill:none;stroke:#000000;stroke-width:0.70866144;stroke-miterlimit:4;stroke-opacity:1;stroke-dasharray:none;display:inline"
         sodipodi:type="arc" />
      <path
         transform="matrix(0.81696512,0,0,-1.5794659,-381.54725,1736.0222)"
         d="m 84,601.09448 c 0,8.28427 -12.983742,15 -29,15 -16.016258,0 -29,-6.71573 -29,-15 0,-8.28427 12.983742,-15 29,-15 16.016258,0 29,6.71573 29,15 z"
         sodipodi:ry="15"
         sodipodi:rx="29"
         sodipodi:cy="601.09448"
         sodipodi:cx="55"
         id="path5194"
         style="fill:none;stroke:#000000;stroke-width:0.70866144;stroke-miterlimit:4;stroke-opacity:1;stroke-dasharray:none;display:inline"
         sodipodi:type="arc" />
      <path
         transform="matrix(0.59548024,0,0,-1.0135833,-389.01643,1083.042)"
         d="m 128,704.59448 c 0,12.97869 -17.90861,23.5 -40,23.5 -22.09139,0 -40,-10.52131 -40,-23.5 0,-12.97869 17.90861,-23.5 40,-23.5 22.09139,0 40,10.52131 40,23.5 z"
         sodipodi:ry="23.5"
         sodipodi:rx="40"
         sodipodi:cy="704.59448"
         sodipodi:cx="88"
         id="path5190-1"
         style="fill:none;stroke:#000000;stroke-width:0.70866144;stroke-miterlimit:4;stroke-opacity:1;stroke-dasharray:none;display:inline"
         sodipodi:type="arc" />
    </g>
    <g
       transform="translate(-540.35431,-7.0864912)"
       style="display:inline"
       id="g3823">
      <g
         transform="translate(1240.1801,-0.00646878)"
         style="display:inline"
         id="g5180">
        <path
           inkscape:connector-curvature="0"
           id="path5182"
           transform="translate(0,-24.803266)"
           d="m -141.40625,103.09375 0,8.15625 -70.84375,0 0,45 -8.875,0 0,70.1875 8.875,0 0,142.40625 -8.875,0 0,70.1875 8.875,0 0,142.40625 -8.875,0 0,70.1875 8.875,0 0,142.40625 -8.875,0 0,70.1875 8.875,0 0,71.5625 -8.875,0 0,70.18755 8.875,0 0,51.3437 70.84375,0 0,8.875 70.1875,0 0,-8.875 53.84375,0 0,-51.3437 8.1875,0 0,-70.18755 -8.1875,0 0,-71.5625 8.1875,0 0,-70.1875 -8.1875,0 0,-142.40625 8.1875,0 0,-70.1875 -8.1875,0 0,-142.40625 8.1875,0 0,-70.1875 -8.1875,0 0,-142.40625 8.1875,0 0,-70.1875 -8.1875,0 0,-45 -53.84375,0 0,-8.15625 -70.1875,0 z"
           style="fill:none;stroke:#000000;stroke-width:0.70866144;stroke-miterlimit:4;stroke-opacity:1;stroke-dasharray:none" />
        <rect
           y="625.03918"
           x="-141.37796"
           height="10.629921"
           width="70.866142"
           id="rect5184"
           style="fill:none;stroke:#000000;stroke-width:0.70866144;stroke-miterlimit:4;stroke-opacity:1;stroke-dasharray:none" />
      </g>
      <path
         transform="matrix(0,-0.81804913,0.8735101,0,942.1868,1324.1702)"
         d="m 769.36905,219.42679 c 0,8.77177 -7.59303,15.8827 -16.9595,15.8827 -9.36648,0 -16.9595,-7.11093 -16.9595,-15.8827 0,-8.77178 7.59302,-15.88271 16.9595,-15.88271 9.36647,0 16.9595,7.11093 16.9595,15.88271 z"
         sodipodi:ry="15.882706"
         sodipodi:rx="16.959499"
         sodipodi:cy="219.42679"
         sodipodi:cx="752.40955"
         id="path5098-3-2"
         style="opacity:0.98999999;fill:none;stroke:#000000;stroke-width:0.70866144;stroke-miterlimit:4;stroke-opacity:1;stroke-dasharray:none;display:inline;filter:url(#filter5321)"
         sodipodi:type="arc" />
      <path
         transform="matrix(0,-0.83034795,0.83649865,0,947.95115,1489.7683)"
         d="m 915.1649,222.24443 c 0,3.54809 -2.8976,6.42438 -6.47197,6.42438 -3.57437,0 -6.47197,-2.87629 -6.47197,-6.42438 0,-3.54809 2.8976,-6.42438 6.47197,-6.42438 3.57437,0 6.47197,2.87629 6.47197,6.42438 z"
         sodipodi:ry="6.4243808"
         sodipodi:rx="6.4719687"
         sodipodi:cy="222.24443"
         sodipodi:cx="908.69293"
         id="path5100-2-7"
         style="opacity:0.98999999;fill:none;stroke:#000000;stroke-width:0.70866144;stroke-miterlimit:4;stroke-opacity:1;stroke-dasharray:none;display:inline;filter:url(#filter5321)"
         sodipodi:type="arc" />
      <path
         transform="matrix(0,-0.81804913,0.8735101,0,942.1868,1171.8079)"
         d="m 769.36905,219.42679 c 0,8.77177 -7.59303,15.8827 -16.9595,15.8827 -9.36648,0 -16.9595,-7.11093 -16.9595,-15.8827 0,-8.77178 7.59302,-15.88271 16.9595,-15.88271 9.36647,0 16.9595,7.11093 16.9595,15.88271 z"
         sodipodi:ry="15.882706"
         sodipodi:rx="16.959499"
         sodipodi:cy="219.42679"
         sodipodi:cx="752.40955"
         id="path5098-3-3"
         style="opacity:0.98999999;fill:none;stroke:#000000;stroke-width:0.70866144;stroke-miterlimit:4;stroke-opacity:1;stroke-dasharray:none;display:inline;filter:url(#filter5321)"
         sodipodi:type="arc" />
      <path
         transform="matrix(0,-0.83034795,0.83649865,0,947.95115,1337.4061)"
         d="m 915.1649,222.24443 c 0,3.54809 -2.8976,6.42438 -6.47197,6.42438 -3.57437,0 -6.47197,-2.87629 -6.47197,-6.42438 0,-3.54809 2.8976,-6.42438 6.47197,-6.42438 3.57437,0 6.47197,2.87629 6.47197,6.42438 z"
         sodipodi:ry="6.4243808"
         sodipodi:rx="6.4719687"
         sodipodi:cy="222.24443"
         sodipodi:cx="908.69293"
         id="path5100-2-3"
         style="opacity:0.98999999;fill:none;stroke:#000000;stroke-width:0.70866144;stroke-miterlimit:4;stroke-opacity:1;stroke-dasharray:none;display:inline;filter:url(#filter5321)"
         sodipodi:type="arc" />
      <path
         sodipodi:type="arc"
         style="opacity:0.98999999;fill:none;stroke:#000000;stroke-width:0.70866144;stroke-miterlimit:4;stroke-opacity:1;stroke-dasharray:none;display:inline;filter:url(#filter5321)"
         id="path5020-8"
         sodipodi:cx="55"
         sodipodi:cy="601.09448"
         sodipodi:rx="29"
         sodipodi:ry="15"
         d="m 84,601.09448 c 0,8.28427 -12.983742,15 -29,15 -16.016258,0 -29,-6.71573 -29,-15 0,-8.28427 12.983742,-15 29,-15 16.016258,0 29,6.71573 29,15 z"
         transform="matrix(0.81696512,0,0,-1.5794659,1088.9252,1780.2068)" />
    </g>
  </g>
</svg>
