<?xml version="1.0" encoding="UTF-8" standalone="no"?>
<!-- Created with Inkscape (http://www.inkscape.org/) -->

<svg
   xmlns:dc="http://purl.org/dc/elements/1.1/"
   xmlns:cc="http://creativecommons.org/ns#"
   xmlns:rdf="http://www.w3.org/1999/02/22-rdf-syntax-ns#"
   xmlns:svg="http://www.w3.org/2000/svg"
   xmlns="http://www.w3.org/2000/svg"
   xmlns:sodipodi="http://sodipodi.sourceforge.net/DTD/sodipodi-0.dtd"
   xmlns:inkscape="http://www.inkscape.org/namespaces/inkscape"
   width="1077.1653"
   height="1077.1653"
   id="svg4419"
   version="1.1"
   inkscape:version="0.48.3.1 r9886"
   sodipodi:docname="New document 30">
  <defs
     id="defs4421" />
  <sodipodi:namedview
     id="base"
     pagecolor="#ffffff"
     bordercolor="#666666"
     borderopacity="1.0"
     inkscape:pageopacity="0.0"
     inkscape:pageshadow="2"
     inkscape:zoom="1.4"
     inkscape:cx="860.49631"
     inkscape:cy="53.125024"
     inkscape:document-units="mm"
     inkscape:current-layer="layer1"
     showgrid="false"
     units="mm"
     inkscape:window-width="723"
     inkscape:window-height="474"
     inkscape:window-x="0"
     inkscape:window-y="73"
     inkscape:window-maximized="0" />
  <metadata
     id="metadata4424">
    <rdf:RDF>
      <cc:Work
         rdf:about="">
        <dc:format>image/svg+xml</dc:format>
        <dc:type
           rdf:resource="http://purl.org/dc/dcmitype/StillImage" />
        <dc:title></dc:title>
      </cc:Work>
    </rdf:RDF>
  </metadata>
  <g
     inkscape:label="Layer 1"
     inkscape:groupmode="layer"
     id="layer1"
     transform="translate(0,24.803143)">
    <g
       transform="translate(17.716535,-17.716416)"
       style="display:inline;filter:url(#filter5321)"
       id="g4572">
      <path
         sodipodi:type="arc"
         style="opacity:0.98999999;fill:none;stroke:#000000;stroke-width:4.13340712;stroke-miterlimit:4;stroke-opacity:1;stroke-dasharray:none"
         id="path4944"
         sodipodi:cx="171.42857"
         sodipodi:cy="632.66589"
         sodipodi:rx="42.857143"
         sodipodi:ry="31.428572"
         d="m 214.28572,632.66589 c 0,17.35752 -19.1878,31.42858 -42.85715,31.42858 -23.66934,0 -42.85714,-14.07106 -42.85714,-31.42858 0,-17.35752 19.1878,-31.42857 42.85714,-31.42857 23.66935,0 42.85715,14.07105 42.85715,31.42857 z"
         transform="matrix(0.14681868,0,0,-0.20020757,105.22476,624.67626)" />
      <path
         sodipodi:type="arc"
         style="opacity:0.98999999;fill:none;stroke:#000000;stroke-width:4.13340712;stroke-miterlimit:4;stroke-opacity:1;stroke-dasharray:none"
         id="path4946"
         sodipodi:cx="171.42857"
         sodipodi:cy="632.66589"
         sodipodi:rx="42.857143"
         sodipodi:ry="31.428572"
         d="m 214.28572,632.66589 c 0,17.35752 -19.1878,31.42858 -42.85715,31.42858 -23.66934,0 -42.85714,-14.07106 -42.85714,-31.42858 0,-17.35752 19.1878,-31.42857 42.85714,-31.42857 23.66935,0 42.85715,14.07105 42.85715,31.42857 z"
         transform="matrix(0.14681868,0,0,-0.20020757,105.49337,1050.1423)" />
      <rect
         transform="scale(1,-1)"
         style="opacity:0.98999999;fill:none;stroke:#000000;stroke-width:0.89035088;stroke-miterlimit:4;stroke-opacity:1;stroke-dasharray:none"
         id="rect4948"
         width="18.821066"
         height="388.60767"
         x="120.98138"
         y="-903.91394"
         rx="3.5433018"
         ry="3.5433121" />
      <path
         sodipodi:type="arc"
         style="opacity:0.98999999;fill:none;stroke:#000000;stroke-width:0.70866144;stroke-miterlimit:4;stroke-opacity:1;stroke-dasharray:none"
         id="path4952"
         sodipodi:cx="17.5"
         sodipodi:cy="695.08997"
         sodipodi:rx="11.785714"
         sodipodi:ry="10"
         d="m 29.285714,695.08997 c 0,5.52284 -5.276644,10 -11.785714,10 -6.50907,0 -11.7857141,-4.47716 -11.7857141,-10 0,-5.52285 5.2766441,-10 11.7857141,-10 6.50907,0 11.785714,4.47715 11.785714,10 z"
         transform="matrix(0,-0.52405523,-0.61763652,0,457.6594,1033.1865)" />
      <path
         sodipodi:type="arc"
         style="opacity:0.98999999;fill:none;stroke:#000000;stroke-width:4.13340712;stroke-miterlimit:4;stroke-opacity:1;stroke-dasharray:none"
         id="path4970"
         sodipodi:cx="171.42857"
         sodipodi:cy="632.66589"
         sodipodi:rx="42.857143"
         sodipodi:ry="31.428572"
         d="m 214.28572,632.66589 c 0,17.35752 -19.1878,31.42858 -42.85715,31.42858 -23.66934,0 -42.85714,-14.07106 -42.85714,-31.42858 0,-17.35752 19.1878,-31.42857 42.85714,-31.42857 23.66935,0 42.85715,14.07105 42.85715,31.42857 z"
         transform="matrix(0,0.14681868,0.20020757,0,607.50859,566.7403)" />
      <path
         sodipodi:type="arc"
         style="opacity:0.98999999;fill:none;stroke:#000000;stroke-width:4.13340712;stroke-miterlimit:4;stroke-opacity:1;stroke-dasharray:none"
         id="path4972"
         sodipodi:cx="171.42857"
         sodipodi:cy="632.66589"
         sodipodi:rx="42.857143"
         sodipodi:ry="31.428572"
         d="m 214.28572,632.66589 c 0,17.35752 -19.1878,31.42858 -42.85715,31.42858 -23.66934,0 -42.85714,-14.07106 -42.85714,-31.42858 0,-17.35752 19.1878,-31.42857 42.85714,-31.42857 23.66935,0 42.85715,14.07105 42.85715,31.42857 z"
         transform="matrix(0,0.14681868,0.20020757,0,182.04255,567.00891)" />
      <rect
         style="opacity:0.98999999;fill:none;stroke:#000000;stroke-width:0.89035088;stroke-miterlimit:4;stroke-opacity:1;stroke-dasharray:none"
         id="rect4974"
         width="18.821066"
         height="388.60767"
         x="582.49689"
         y="328.2709"
         rx="3.5433021"
         ry="3.5433116"
         transform="matrix(0,1,1,0,0,0)" />
      <path
         sodipodi:type="arc"
         style="opacity:0.98999999;fill:none;stroke:#000000;stroke-width:0.70866144;stroke-miterlimit:4;stroke-opacity:1;stroke-dasharray:none"
         id="path4982"
         sodipodi:cx="17.5"
         sodipodi:cy="695.08997"
         sodipodi:rx="11.785714"
         sodipodi:ry="10"
         d="m 29.285714,695.08997 c 0,5.52284 -5.276644,10 -11.785714,10 -6.50907,0 -11.7857141,-4.47716 -11.7857141,-10 0,-5.52285 5.2766441,-10 11.7857141,-10 6.50907,0 11.785714,4.47715 11.785714,10 z"
         transform="matrix(-0.52405523,0,0,0.61763652,965.86388,594.70261)" />
      <path
         sodipodi:type="arc"
         style="opacity:0.98999999;fill:none;stroke:#000000;stroke-width:4.13340712;stroke-miterlimit:4;stroke-opacity:1;stroke-dasharray:none"
         id="path4986"
         sodipodi:cx="171.42857"
         sodipodi:cy="632.66589"
         sodipodi:rx="42.857143"
         sodipodi:ry="31.428572"
         d="m 214.28572,632.66589 c 0,17.35752 -19.1878,31.42858 -42.85715,31.42858 -23.66934,0 -42.85714,-14.07106 -42.85714,-31.42858 0,-17.35752 19.1878,-31.42857 42.85714,-31.42857 23.66935,0 42.85715,14.07105 42.85715,31.42857 z"
         transform="matrix(0,-0.14681868,-0.20020759,0,433.33783,955.99547)" />
      <path
         sodipodi:type="arc"
         style="opacity:0.98999999;fill:none;stroke:#000000;stroke-width:4.13340712;stroke-miterlimit:4;stroke-opacity:1;stroke-dasharray:none"
         id="path4988"
         sodipodi:cx="171.42857"
         sodipodi:cy="632.66589"
         sodipodi:rx="42.857143"
         sodipodi:ry="31.428572"
         d="m 214.28572,632.66589 c 0,17.35752 -19.1878,31.42858 -42.85715,31.42858 -23.66934,0 -42.85714,-14.07106 -42.85714,-31.42858 0,-17.35752 19.1878,-31.42857 42.85714,-31.42857 23.66935,0 42.85715,14.07105 42.85715,31.42857 z"
         transform="matrix(0,-0.14681868,-0.20020759,0,858.80391,955.72686)" />
      <rect
         style="opacity:0.98999999;fill:none;stroke:#000000;stroke-width:0.89035094;stroke-miterlimit:4;stroke-opacity:1;stroke-dasharray:none"
         id="rect4990"
         width="18.821066"
         height="388.60773"
         x="-940.23895"
         y="-712.57556"
         rx="3.5433021"
         ry="3.5433121"
         transform="matrix(0,-1,-1,0,0,0)" />
      <path
         sodipodi:type="arc"
         style="opacity:0.98999999;fill:none;stroke:#000000;stroke-width:0.43961808;stroke-miterlimit:4;stroke-opacity:1;stroke-dasharray:none"
         id="path5014"
         sodipodi:cx="57.831234"
         sodipodi:cy="159.97377"
         sodipodi:rx="13.384521"
         sodipodi:ry="15.909903"
         d="m 71.215755,159.97377 c 0,8.7868 -5.992454,15.9099 -13.384521,15.9099 -7.392067,0 -13.384521,-7.1231 -13.384521,-15.9099 0,-8.7868 5.992454,-15.9099 13.384521,-15.9099 7.392067,0 13.384521,7.1231 13.384521,15.9099 z"
         transform="matrix(1.7734621,0,0,-1.4919601,-37.896147,1166.8436)" />
      <path
         sodipodi:type="arc"
         style="opacity:0.98999999;fill:none;stroke:#000000;stroke-width:0.70866144;stroke-miterlimit:4;stroke-opacity:1;stroke-dasharray:none"
         id="path5016"
         sodipodi:cx="59.75"
         sodipodi:cy="119.09448"
         sodipodi:rx="22.75"
         sodipodi:ry="16.5"
         d="m 82.5,119.09448 c 0,9.1127 -10.185522,16.5 -22.75,16.5 -12.564478,0 -22.75,-7.3873 -22.75,-16.5 0,-9.1127 10.185522,-16.5 22.75,-16.5 12.564478,0 22.75,7.3873 22.75,16.5 z"
         transform="matrix(1.040077,0,0,-1.4340456,2.5207784,1169.8222)" />
      <path
         sodipodi:type="arc"
         style="opacity:0.98999999;fill:none;stroke:#000000;stroke-width:0.70866144;stroke-miterlimit:4;stroke-opacity:1;stroke-dasharray:none"
         id="path5018"
         sodipodi:cx="88"
         sodipodi:cy="704.59448"
         sodipodi:rx="40"
         sodipodi:ry="23.5"
         d="m 128,704.59448 c 0,12.97869 -17.90861,23.5 -40,23.5 -22.09139,0 -40,-10.52131 -40,-23.5 0,-12.97869 17.90861,-23.5 40,-23.5 22.09139,0 40,10.52131 40,23.5 z"
         transform="matrix(0.59548024,0,0,-1.0135833,12.26312,1138.4761)" />
      <path
         sodipodi:type="arc"
         style="opacity:0.98999999;fill:none;stroke:#000000;stroke-width:0.70866144;stroke-miterlimit:4;stroke-opacity:1;stroke-dasharray:none"
         id="path5020"
         sodipodi:cx="55"
         sodipodi:cy="601.09448"
         sodipodi:rx="29"
         sodipodi:ry="15"
         d="m 84,601.09448 c 0,8.28427 -12.983742,15 -29,15 -16.016258,0 -29,-6.71573 -29,-15 0,-8.28427 12.983742,-15 29,-15 16.016258,0 29,6.71573 29,15 z"
         transform="matrix(0.81696512,0,0,-1.5794659,19.732299,1444.5852)" />
      <path
         sodipodi:type="arc"
         style="opacity:0.98999999;fill:none;stroke:#000000;stroke-width:0.62806857;stroke-miterlimit:4;stroke-opacity:1;stroke-dasharray:none"
         id="path5022"
         sodipodi:cx="802.21265"
         sodipodi:cy="124.31538"
         sodipodi:rx="19.79899"
         sodipodi:ry="22.273863"
         d="m 822.01164,124.31538 c 0,12.30151 -8.86431,22.27386 -19.79899,22.27386 -10.93468,0 -19.79899,-9.97235 -19.79899,-22.27386 0,-12.30152 8.86431,-22.27387 19.79899,-22.27387 10.93468,0 19.79899,9.97235 19.79899,22.27387 z"
         transform="matrix(1.1990252,0,0,-1.0658002,-153.99916,1129.2274)" />
      <path
         sodipodi:type="arc"
         style="opacity:0.98999999;fill:none;stroke:#000000;stroke-width:0.467843;stroke-miterlimit:4;stroke-opacity:1;stroke-dasharray:none"
         id="path5024"
         sodipodi:cx="761.20044"
         sodipodi:cy="125.7296"
         sodipodi:rx="15.202796"
         sodipodi:ry="15.909903"
         d="m 776.40324,125.7296 c 0,8.7868 -6.80653,15.9099 -15.2028,15.9099 -8.39627,0 -15.2028,-7.1231 -15.2028,-15.9099 0,-8.7868 6.80653,-15.9099 15.2028,-15.9099 8.39627,0 15.2028,7.1231 15.2028,15.9099 z"
         transform="matrix(1.5613874,0,0,-1.4919925,-451.5209,1184.3197)" />
      <path
         sodipodi:type="arc"
         style="opacity:0.98999999;fill:none;stroke:#000000;stroke-width:0.55805516;stroke-miterlimit:4;stroke-opacity:1;stroke-dasharray:none"
         id="path5026"
         sodipodi:cx="232.125"
         sodipodi:cy="128.09448"
         sodipodi:rx="16.125"
         sodipodi:ry="21.5"
         d="m 248.25,128.09448 c 0,11.87412 -7.21941,21.5 -16.125,21.5 -8.90559,0 -16.125,-9.62588 -16.125,-21.5 0,-11.87412 7.21941,-21.5 16.125,-21.5 8.90559,0 16.125,9.62588 16.125,21.5 z"
         transform="matrix(1.4721703,0,0,-1.1041277,-108.57792,1138.1648)" />
      <path
         sodipodi:type="arc"
         style="opacity:0.98999999;fill:none;stroke:#000000;stroke-width:0.63867855;stroke-miterlimit:4;stroke-opacity:1;stroke-dasharray:none"
         id="path5028"
         sodipodi:cx="272.125"
         sodipodi:cy="123.34448"
         sodipodi:rx="19.625"
         sodipodi:ry="23.25"
         d="m 291.75,123.34448 c 0,12.84062 -8.78641,23.25 -19.625,23.25 -10.83859,0 -19.625,-10.40938 -19.625,-23.25 0,-12.84062 8.78641,-23.25 19.625,-23.25 10.83859,0 19.625,10.40938 19.625,23.25 z"
         transform="matrix(1.2096604,0,0,-1.0210574,-25.163089,1122.6739)" />
      <path
         sodipodi:type="arc"
         style="opacity:0.98999999;fill:none;stroke:#000000;stroke-width:0.82091445;stroke-miterlimit:4;stroke-opacity:1;stroke-dasharray:none"
         id="path5030"
         sodipodi:cx="765.44312"
         sodipodi:cy="557.06476"
         sodipodi:rx="28.637825"
         sodipodi:ry="26.516504"
         d="m 794.08094,557.06476 c 0,14.64466 -12.82159,26.5165 -28.63782,26.5165 -15.81624,0 -28.63783,-11.87184 -28.63783,-26.5165 0,-14.64466 12.82159,-26.51651 28.63783,-26.51651 15.81623,0 28.63782,11.87185 28.63782,26.51651 z"
         transform="matrix(0.8290039,0,0,-0.89532422,102.45255,1024.9345)" />
      <path
         sodipodi:type="arc"
         style="opacity:0.98999999;fill:none;stroke:#000000;stroke-width:0.96074468;stroke-miterlimit:4;stroke-opacity:1;stroke-dasharray:none"
         id="path5032"
         sodipodi:cx="783.82788"
         sodipodi:cy="551.76141"
         sodipodi:rx="30.759146"
         sodipodi:ry="33.941124"
         d="m 814.58703,551.76141 c 0,18.74517 -13.77134,33.94113 -30.75915,33.94113 -16.98781,0 -30.75914,-15.19596 -30.75914,-33.94113 0,-18.74516 13.77133,-33.94112 30.75914,-33.94112 16.98781,0 30.75915,15.19596 30.75915,33.94112 z"
         transform="matrix(0.77185237,0,0,-0.69949126,202.87461,912.13316)" />
      <path
         sodipodi:type="arc"
         style="opacity:0.98999999;fill:none;stroke:#000000;stroke-width:0.66788298;stroke-miterlimit:4;stroke-opacity:1;stroke-dasharray:none"
         id="path5034"
         sodipodi:cx="275.375"
         sodipodi:cy="561.09448"
         sodipodi:rx="25.625"
         sodipodi:ry="19.5"
         d="m 301,561.09448 c 0,10.76956 -11.4727,19.5 -25.625,19.5 -14.1523,0 -25.625,-8.73044 -25.625,-19.5 0,-10.76955 11.4727,-19.5 25.625,-19.5 14.1523,0 25.625,8.73045 25.625,19.5 z"
         transform="matrix(0.92643274,0,0,-1.2174276,-21.966784,1209.2728)" />
      <path
         sodipodi:type="arc"
         style="opacity:0.98999999;fill:none;stroke:#000000;stroke-width:0.78419411;stroke-miterlimit:4;stroke-opacity:1;stroke-dasharray:none"
         id="path5036"
         sodipodi:cx="271.25"
         sodipodi:cy="559.59448"
         sodipodi:rx="28.25"
         sodipodi:ry="24.5"
         d="m 299.5,559.59448 c 0,13.53098 -12.64796,24.5 -28.25,24.5 -15.60204,0 -28.25,-10.96902 -28.25,-24.5 0,-13.53097 12.64796,-24.5 28.25,-24.5 15.60204,0 28.25,10.96903 28.25,24.5 z"
         transform="matrix(0.8403773,0,0,-0.96900648,76.063405,1068.4316)" />
      <path
         transform="matrix(0,-0.81804913,0.8735101,0,-97.419547,896.26264)"
         d="m 769.36905,219.42679 c 0,8.77177 -7.59303,15.8827 -16.9595,15.8827 -9.36648,0 -16.9595,-7.11093 -16.9595,-15.8827 0,-8.77178 7.59302,-15.88271 16.9595,-15.88271 9.36647,0 16.9595,7.11093 16.9595,15.88271 z"
         sodipodi:ry="15.882706"
         sodipodi:rx="16.959499"
         sodipodi:cy="219.42679"
         sodipodi:cx="752.40955"
         id="path5098-3"
         style="opacity:0.98999999;fill:none;stroke:#000000;stroke-width:0.70866144;stroke-miterlimit:4;stroke-opacity:1;stroke-dasharray:none;display:inline"
         sodipodi:type="arc" />
      <path
         transform="matrix(0,-0.83034795,0.83649865,0,-91.655186,1061.8608)"
         d="m 915.1649,222.24443 c 0,3.54809 -2.8976,6.42438 -6.47197,6.42438 -3.57437,0 -6.47197,-2.87629 -6.47197,-6.42438 0,-3.54809 2.8976,-6.42438 6.47197,-6.42438 3.57437,0 6.47197,2.87629 6.47197,6.42438 z"
         sodipodi:ry="6.4243808"
         sodipodi:rx="6.4719687"
         sodipodi:cy="222.24443"
         sodipodi:cx="908.69293"
         id="path5100-2"
         style="opacity:0.98999999;fill:none;stroke:#000000;stroke-width:0.70866144;stroke-miterlimit:4;stroke-opacity:1;stroke-dasharray:none;display:inline"
         sodipodi:type="arc" />
      <path
         transform="matrix(0,-1.2174152,1.0101957,0,-80.412385,1486.3032)"
         d="m 980.75,285.84448 c 0,12.97869 -8.73045,23.5 -19.5,23.5 -10.76955,0 -19.5,-10.52131 -19.5,-23.5 0,-12.97869 8.73045,-23.5 19.5,-23.5 10.76955,0 19.5,10.52131 19.5,23.5 z"
         sodipodi:ry="23.5"
         sodipodi:rx="19.5"
         sodipodi:cy="285.84448"
         sodipodi:cx="961.25"
         id="path5138-9"
         style="opacity:0.98999999;fill:none;stroke:#000000;stroke-width:0.64003253;stroke-miterlimit:4;stroke-opacity:1;stroke-dasharray:none;display:inline"
         sodipodi:type="arc" />
      <path
         transform="matrix(0,-0.99436029,0.93099419,0,-56.092625,1243.9581)"
         d="m 1028.25,284.09448 c 0,14.08326 -10.6892,25.5 -23.875,25.5 -13.1858,0 -23.875,-11.41674 -23.875,-25.5 0,-14.08326 10.6892,-25.5 23.875,-25.5 13.1858,0 23.875,11.41674 23.875,25.5 z"
         sodipodi:ry="25.5"
         sodipodi:rx="23.875"
         sodipodi:cy="284.09448"
         sodipodi:cx="1004.375"
         id="path5140-6"
         style="opacity:0.98999999;fill:none;stroke:#000000;stroke-width:0.73613107;stroke-miterlimit:4;stroke-opacity:1;stroke-dasharray:none;display:inline"
         sodipodi:type="arc" />
      <path
         transform="matrix(0,0.93305734,-1.0026885,0,225.29391,-952.20485)"
         d="m 1187.2323,129.97224 c 0,13.08257 -11.3969,23.68808 -25.4558,23.68808 -14.0589,0 -25.4559,-10.60551 -25.4559,-23.68808 0,-13.08256 11.397,-23.68807 25.4559,-23.68807 14.0589,0 25.4558,10.60551 25.4558,23.68807 z"
         sodipodi:ry="23.688078"
         sodipodi:rx="25.455845"
         sodipodi:cy="129.97224"
         sodipodi:cx="1161.7765"
         id="path5142-7"
         style="opacity:0.98999999;fill:none;stroke:#000000;stroke-width:0.73265851;stroke-miterlimit:4;stroke-opacity:1;stroke-dasharray:none;display:inline"
         sodipodi:type="arc" />
      <rect
         ry="10.621719"
         rx="10.62172"
         y="67.702629"
         x="0.37997243"
         height="984.27942"
         width="984.27942"
         id="rect4077"
         style="opacity:0.98999999;fill:none;stroke:#000000;stroke-width:0.75994486;stroke-miterlimit:4;stroke-opacity:1;stroke-dasharray:none" />
      <path
         sodipodi:type="arc"
         style="opacity:0.98999999;fill:none;stroke:#000000;stroke-width:0.70866144;stroke-miterlimit:4;stroke-opacity:1;stroke-dasharray:none;display:inline"
         id="path4968-3"
         sodipodi:cx="17.5"
         sodipodi:cy="695.08997"
         sodipodi:rx="11.785714"
         sodipodi:ry="10"
         d="m 29.285714,695.08997 c 0,5.52284 -5.276644,10 -11.785714,10 -6.50907,0 -11.7857141,-4.47716 -11.7857141,-10 0,-5.52285 5.2766441,-10 11.7857141,-10 6.50907,0 11.785714,4.47715 11.785714,10 z"
         transform="matrix(0.52405523,0,0,-0.61763652,947.52195,524.98205)" />
      <path
         sodipodi:type="arc"
         style="opacity:0.98999999;fill:none;stroke:#000000;stroke-width:0.70866144;stroke-miterlimit:4;stroke-opacity:1;stroke-dasharray:none;display:inline"
         id="path4954-9"
         sodipodi:cx="17.5"
         sodipodi:cy="695.08997"
         sodipodi:rx="11.785714"
         sodipodi:ry="10"
         d="m 29.285714,695.08997 c 0,5.52284 -5.276644,10 -11.785714,10 -6.50907,0 -11.7857141,-4.47716 -11.7857141,-10 0,-5.52285 5.2766441,-10 11.7857141,-10 6.50907,0 11.785714,4.47715 11.785714,10 z"
         transform="matrix(0,-0.52405523,-0.61763652,0,457.6594,104.84007)" />
      <path
         transform="matrix(-2.2506008,0,0,2.4756609,618.0316,-2052.6417)"
         d="m 16.667517,1048.8267 c 0,1.3947 -1.243717,2.5253 -2.777919,2.5253 -1.534203,0 -2.77792,-1.1306 -2.77792,-2.5253 0,-1.3948 1.243717,-2.5254 2.77792,-2.5254 1.534202,0 2.777919,1.1306 2.777919,2.5254 z"
         sodipodi:ry="2.5253813"
         sodipodi:rx="2.7779195"
         sodipodi:cy="1048.8267"
         sodipodi:cx="13.889598"
         id="path4253-6"
         style="opacity:0.98999999;fill:none;stroke:#000000;stroke-width:0.10672953;stroke-miterlimit:4;stroke-opacity:1;stroke-dasharray:none;display:inline"
         sodipodi:type="arc" />
      <path
         transform="matrix(-1.151505,0,0,1.0764068,603.24827,-719.42834)"
         d="m 23.738585,1014.9865 c 0,3.2079 -2.430901,5.8084 -5.42957,5.8084 -2.998668,0 -5.429569,-2.6005 -5.429569,-5.8084 0,-3.2079 2.430901,-5.8084 5.429569,-5.8084 2.998669,0 5.42957,2.6005 5.42957,5.8084 z"
         sodipodi:ry="5.8083773"
         sodipodi:rx="5.4295697"
         sodipodi:cy="1014.9865"
         sodipodi:cx="18.309015"
         id="path4763-3"
         style="opacity:0.98999999;fill:none;stroke:#000000;stroke-width:0.22594742;stroke-miterlimit:4;stroke-opacity:1;stroke-dasharray:none;display:inline"
         sodipodi:type="arc" />
      <path
         transform="matrix(-3.8085688,0,0,5.5012662,649.83115,-5244.7425)"
         d="m 66.67007,1048.9529 c 0,0.6276 -0.734924,1.1364 -1.641498,1.1364 -0.906574,0 -1.641498,-0.5088 -1.641498,-1.1364 0,-0.6276 0.734924,-1.1364 1.641498,-1.1364 0.906574,0 1.641498,0.5088 1.641498,1.1364 z"
         sodipodi:ry="1.1364216"
         sodipodi:rx="1.6414979"
         sodipodi:cy="1048.9529"
         sodipodi:cx="65.028572"
         id="path4765-9"
         style="opacity:0.98999999;fill:none;stroke:#000000;stroke-width:0.05513921;stroke-miterlimit:4;stroke-opacity:1;stroke-dasharray:none;display:inline"
         sodipodi:type="arc" />
      <path
         transform="matrix(-3.094558,0,0,2.9125251,599.88331,-2551.6393)"
         d="m 65.912452,1022.689 c 0,1.1855 -0.904521,2.1466 -2.020305,2.1466 -1.115784,0 -2.020305,-0.9611 -2.020305,-2.1466 0,-1.1855 0.904521,-2.1465 2.020305,-2.1465 1.115784,0 2.020305,0.961 2.020305,2.1465 z"
         sodipodi:ry="2.1465743"
         sodipodi:rx="2.0203052"
         sodipodi:cy="1022.689"
         sodipodi:cx="63.892147"
         id="path4767-6"
         style="opacity:0.98999999;fill:none;stroke:#000000;stroke-width:0.08394035;stroke-miterlimit:4;stroke-opacity:1;stroke-dasharray:none;display:inline"
         sodipodi:type="arc" />
      <path
         transform="matrix(-2.2506008,0,0,2.4756609,772.51984,-2288.2717)"
         d="m 16.667517,1048.8267 c 0,1.3947 -1.243717,2.5253 -2.777919,2.5253 -1.534203,0 -2.77792,-1.1306 -2.77792,-2.5253 0,-1.3948 1.243717,-2.5254 2.77792,-2.5254 1.534202,0 2.777919,1.1306 2.777919,2.5254 z"
         sodipodi:ry="2.5253813"
         sodipodi:rx="2.7779195"
         sodipodi:cy="1048.8267"
         sodipodi:cx="13.889598"
         id="path4253"
         style="opacity:0.98999999;fill:none;stroke:#000000;stroke-width:0.10672953;stroke-miterlimit:4;stroke-opacity:1;stroke-dasharray:none;display:inline"
         sodipodi:type="arc" />
      <path
         transform="matrix(-1.151505,0,0,1.0764068,757.73651,-955.05822)"
         d="m 23.738585,1014.9865 c 0,3.2079 -2.430901,5.8084 -5.42957,5.8084 -2.998668,0 -5.429569,-2.6005 -5.429569,-5.8084 0,-3.2079 2.430901,-5.8084 5.429569,-5.8084 2.998669,0 5.42957,2.6005 5.42957,5.8084 z"
         sodipodi:ry="5.8083773"
         sodipodi:rx="5.4295697"
         sodipodi:cy="1014.9865"
         sodipodi:cx="18.309015"
         id="path4763"
         style="opacity:0.98999999;fill:none;stroke:#000000;stroke-width:0.22594742;stroke-miterlimit:4;stroke-opacity:1;stroke-dasharray:none;display:inline"
         sodipodi:type="arc" />
      <path
         transform="matrix(-3.8085688,0,0,5.5012662,804.31939,-5480.3724)"
         d="m 66.67007,1048.9529 c 0,0.6276 -0.734924,1.1364 -1.641498,1.1364 -0.906574,0 -1.641498,-0.5088 -1.641498,-1.1364 0,-0.6276 0.734924,-1.1364 1.641498,-1.1364 0.906574,0 1.641498,0.5088 1.641498,1.1364 z"
         sodipodi:ry="1.1364216"
         sodipodi:rx="1.6414979"
         sodipodi:cy="1048.9529"
         sodipodi:cx="65.028572"
         id="path4765"
         style="opacity:0.98999999;fill:none;stroke:#000000;stroke-width:0.05513921;stroke-miterlimit:4;stroke-opacity:1;stroke-dasharray:none;display:inline"
         sodipodi:type="arc" />
      <path
         transform="matrix(-3.094558,0,0,2.9125251,754.37155,-2787.2692)"
         d="m 65.912452,1022.689 c 0,1.1855 -0.904521,2.1466 -2.020305,2.1466 -1.115784,0 -2.020305,-0.9611 -2.020305,-2.1466 0,-1.1855 0.904521,-2.1465 2.020305,-2.1465 1.115784,0 2.020305,0.961 2.020305,2.1465 z"
         sodipodi:ry="2.1465743"
         sodipodi:rx="2.0203052"
         sodipodi:cy="1022.689"
         sodipodi:cx="63.892147"
         id="path4767"
         style="opacity:0.98999999;fill:none;stroke:#000000;stroke-width:0.08394035;stroke-miterlimit:4;stroke-opacity:1;stroke-dasharray:none;display:inline"
         sodipodi:type="arc" />
      <rect
         y="131.24146"
         x="8.9975491"
         height="70.587578"
         width="10.351358"
         id="rect3508-6"
         style="opacity:0.98999999;fill:none;stroke:#000000;stroke-width:0.27856296;stroke-miterlimit:4;stroke-opacity:1;stroke-dasharray:none;display:inline" />
      <rect
         y="343.83987"
         x="8.9975491"
         height="70.587578"
         width="10.351358"
         id="rect3508-6-1"
         style="opacity:0.98999999;fill:none;stroke:#000000;stroke-width:0.27856296;stroke-miterlimit:4;stroke-opacity:1;stroke-dasharray:none;display:inline" />
      <rect
         y="769.03674"
         x="8.9975491"
         height="70.587578"
         width="10.351358"
         id="rect3508-6-1-0"
         style="opacity:0.98999999;fill:none;stroke:#000000;stroke-width:0.27856296;stroke-miterlimit:4;stroke-opacity:1;stroke-dasharray:none;display:inline" />
      <rect
         y="556.43829"
         x="8.9975491"
         height="70.587578"
         width="10.351358"
         id="rect3508-6-1-1"
         style="opacity:0.98999999;fill:none;stroke:#000000;stroke-width:0.27856296;stroke-miterlimit:4;stroke-opacity:1;stroke-dasharray:none;display:inline" />
      <rect
         transform="matrix(0,1,-1,0,0,0)"
         y="-127.41977"
         x="76.320198"
         height="70.587578"
         width="10.351358"
         id="rect3508-2"
         style="opacity:0.98999999;fill:none;stroke:#000000;stroke-width:0.27856296;stroke-miterlimit:4;stroke-opacity:1;stroke-dasharray:none;display:inline" />
      <rect
         transform="matrix(0,1,-1,0,0,0)"
         y="-283.32529"
         x="76.320198"
         height="70.587578"
         width="10.351358"
         id="rect3508-2-9"
         style="opacity:0.98999999;fill:none;stroke:#000000;stroke-width:0.27856296;stroke-miterlimit:4;stroke-opacity:1;stroke-dasharray:none;display:inline" />
      <rect
         transform="matrix(0,1,-1,0,0,0)"
         y="-495.92371"
         x="76.320198"
         height="70.587578"
         width="10.351358"
         id="rect3508-2-1"
         style="opacity:0.98999999;fill:none;stroke:#000000;stroke-width:0.27856296;stroke-miterlimit:4;stroke-opacity:1;stroke-dasharray:none;display:inline" />
      <rect
         transform="matrix(0,1,-1,0,0,0)"
         y="-708.52216"
         x="76.320198"
         height="70.587578"
         width="10.351358"
         id="rect3508-2-7"
         style="opacity:0.98999999;fill:none;stroke:#000000;stroke-width:0.27856296;stroke-miterlimit:4;stroke-opacity:1;stroke-dasharray:none;display:inline" />
      <rect
         transform="matrix(0,1,-1,0,0,0)"
         y="-921.12054"
         x="76.320198"
         height="70.587578"
         width="10.351358"
         id="rect3508-2-97"
         style="opacity:0.98999999;fill:none;stroke:#000000;stroke-width:0.27856296;stroke-miterlimit:4;stroke-opacity:1;stroke-dasharray:none;display:inline" />
      <rect
         transform="matrix(0,1,-1,0,0,0)"
         y="-283.32529"
         x="1033.0131"
         height="70.587578"
         width="10.351358"
         id="rect3508-2-4"
         style="opacity:0.98999999;fill:none;stroke:#000000;stroke-width:0.27856296;stroke-miterlimit:4;stroke-opacity:1;stroke-dasharray:none;display:inline" />
      <rect
         transform="matrix(0,1,-1,0,0,0)"
         y="-495.92371"
         x="1033.0131"
         height="70.587578"
         width="10.351358"
         id="rect3508-2-2"
         style="opacity:0.98999999;fill:none;stroke:#000000;stroke-width:0.27856296;stroke-miterlimit:4;stroke-opacity:1;stroke-dasharray:none;display:inline" />
      <rect
         transform="matrix(0,1,-1,0,0,0)"
         y="-708.52216"
         x="1033.0131"
         height="70.587578"
         width="10.351358"
         id="rect3508-2-79"
         style="opacity:0.98999999;fill:none;stroke:#000000;stroke-width:0.27856296;stroke-miterlimit:4;stroke-opacity:1;stroke-dasharray:none;display:inline" />
      <rect
         transform="matrix(0,1,-1,0,0,0)"
         y="-921.12054"
         x="1033.0131"
         height="70.587578"
         width="10.351358"
         id="rect3508-2-40"
         style="opacity:0.98999999;fill:none;stroke:#000000;stroke-width:0.27856296;stroke-miterlimit:4;stroke-opacity:1;stroke-dasharray:none;display:inline" />
      <rect
         transform="matrix(0,1,-1,0,0,0)"
         y="-283.32529"
         x="625.53278"
         height="70.587578"
         width="10.351358"
         id="rect3508-2-4-8"
         style="opacity:0.98999999;fill:none;stroke:#000000;stroke-width:0.27856296;stroke-miterlimit:4;stroke-opacity:1;stroke-dasharray:none;display:inline" />
      <rect
         transform="matrix(0,1,-1,0,0,0)"
         y="-495.92371"
         x="625.53278"
         height="70.587578"
         width="10.351358"
         id="rect3508-2-4-3"
         style="opacity:0.98999999;fill:none;stroke:#000000;stroke-width:0.27856296;stroke-miterlimit:4;stroke-opacity:1;stroke-dasharray:none;display:inline" />
      <rect
         transform="matrix(0,1,-1,0,0,0)"
         y="-708.52216"
         x="625.53278"
         height="70.587578"
         width="10.351358"
         id="rect3508-2-4-38"
         style="opacity:0.98999999;fill:none;stroke:#000000;stroke-width:0.27856296;stroke-miterlimit:4;stroke-opacity:1;stroke-dasharray:none;display:inline" />
      <rect
         transform="matrix(0,1,-1,0,0,0)"
         y="-921.12054"
         x="625.53278"
         height="70.587578"
         width="10.351358"
         id="rect3508-2-4-0"
         style="opacity:0.98999999;fill:none;stroke:#000000;stroke-width:0.27856296;stroke-miterlimit:4;stroke-opacity:1;stroke-dasharray:none;display:inline" />
      <rect
         y="910.76904"
         x="8.9975491"
         height="70.587578"
         width="10.351358"
         id="rect3508-6-1-0-49"
         style="opacity:0.98999999;fill:none;stroke:#000000;stroke-width:0.27856296;stroke-miterlimit:4;stroke-opacity:1;stroke-dasharray:none;display:inline" />
      <rect
         y="131.24149"
         x="164.01723"
         height="70.587578"
         width="10.351358"
         id="rect3508-6-13"
         style="opacity:0.98999999;fill:none;stroke:#000000;stroke-width:0.27856296;stroke-miterlimit:4;stroke-opacity:1;stroke-dasharray:none;display:inline" />
      <rect
         y="343.83994"
         x="164.01723"
         height="70.587578"
         width="10.351358"
         id="rect3508-6-1-5"
         style="opacity:0.98999999;fill:none;stroke:#000000;stroke-width:0.27856296;stroke-miterlimit:4;stroke-opacity:1;stroke-dasharray:none;display:inline" />
      <rect
         y="769.03674"
         x="164.01723"
         height="70.587578"
         width="10.351358"
         id="rect3508-6-1-0-71"
         style="opacity:0.98999999;fill:none;stroke:#000000;stroke-width:0.27856296;stroke-miterlimit:4;stroke-opacity:1;stroke-dasharray:none;display:inline" />
      <rect
         y="556.43835"
         x="164.01723"
         height="70.587578"
         width="10.351358"
         id="rect3508-6-1-1-1"
         style="opacity:0.98999999;fill:none;stroke:#000000;stroke-width:0.27856296;stroke-miterlimit:4;stroke-opacity:1;stroke-dasharray:none;display:inline" />
      <rect
         y="910.76904"
         x="164.01723"
         height="70.587578"
         width="10.351358"
         id="rect3508-6-1-0-49-3"
         style="opacity:0.98999999;fill:none;stroke:#000000;stroke-width:0.27856296;stroke-miterlimit:4;stroke-opacity:1;stroke-dasharray:none;display:inline" />
      <rect
         y="131.24149"
         x="965.69049"
         height="70.587578"
         width="10.351358"
         id="rect3508-6-2"
         style="opacity:0.98999999;fill:none;stroke:#000000;stroke-width:0.27856296;stroke-miterlimit:4;stroke-opacity:1;stroke-dasharray:none;display:inline" />
      <rect
         y="343.83987"
         x="965.69049"
         height="70.587578"
         width="10.351358"
         id="rect3508-6-1-6"
         style="opacity:0.98999999;fill:none;stroke:#000000;stroke-width:0.27856296;stroke-miterlimit:4;stroke-opacity:1;stroke-dasharray:none;display:inline" />
      <rect
         y="769.03674"
         x="965.69049"
         height="70.587578"
         width="10.351358"
         id="rect3508-6-1-0-1"
         style="opacity:0.98999999;fill:none;stroke:#000000;stroke-width:0.27856296;stroke-miterlimit:4;stroke-opacity:1;stroke-dasharray:none;display:inline" />
      <rect
         y="556.43829"
         x="965.69049"
         height="70.587578"
         width="10.351358"
         id="rect3508-6-1-1-6"
         style="opacity:0.98999999;fill:none;stroke:#000000;stroke-width:0.27856296;stroke-miterlimit:4;stroke-opacity:1;stroke-dasharray:none;display:inline" />
      <rect
         y="910.76904"
         x="965.69049"
         height="70.587578"
         width="10.351358"
         id="rect3508-6-1-0-49-4"
         style="opacity:0.98999999;fill:none;stroke:#000000;stroke-width:0.27856296;stroke-miterlimit:4;stroke-opacity:1;stroke-dasharray:none;display:inline" />
      <rect
         transform="matrix(0,1,-1,0,0,0)"
         y="-127.41977"
         x="1033.0131"
         height="70.587578"
         width="10.351358"
         id="rect3508-2-70"
         style="opacity:0.98999999;fill:none;stroke:#000000;stroke-width:0.27856296;stroke-miterlimit:4;stroke-opacity:1;stroke-dasharray:none;display:inline" />
    </g>
  </g>
</svg>
