<?xml version="1.0" encoding="UTF-8" standalone="no"?>
<!-- Created with Inkscape (http://www.inkscape.org/) -->

<svg
   xmlns:dc="http://purl.org/dc/elements/1.1/"
   xmlns:cc="http://creativecommons.org/ns#"
   xmlns:rdf="http://www.w3.org/1999/02/22-rdf-syntax-ns#"
   xmlns:svg="http://www.w3.org/2000/svg"
   xmlns="http://www.w3.org/2000/svg"
   xmlns:sodipodi="http://sodipodi.sourceforge.net/DTD/sodipodi-0.dtd"
   xmlns:inkscape="http://www.inkscape.org/namespaces/inkscape"
   width="1052.3622"
   height="744.09448"
   id="svg5297"
   version="1.1"
   inkscape:version="0.48.3.1 r9886"
   sodipodi:docname="New document 12">
  <defs
     id="defs5299" />
  <sodipodi:namedview
     id="base"
     pagecolor="#ffffff"
     bordercolor="#666666"
     borderopacity="1.0"
     inkscape:pageopacity="0.0"
     inkscape:pageshadow="2"
     inkscape:zoom="0.175"
     inkscape:cx="508.32342"
     inkscape:cy="543.38279"
     inkscape:document-units="mm"
     inkscape:current-layer="layer1"
     showgrid="false"
     units="mm"
     inkscape:window-width="723"
     inkscape:window-height="474"
     inkscape:window-x="0"
     inkscape:window-y="73"
     inkscape:window-maximized="0" />
  <metadata
     id="metadata5302">
    <rdf:RDF>
      <cc:Work
         rdf:about="">
        <dc:format>image/svg+xml</dc:format>
        <dc:type
           rdf:resource="http://purl.org/dc/dcmitype/StillImage" />
        <dc:title></dc:title>
      </cc:Work>
    </rdf:RDF>
  </metadata>
  <g
     inkscape:label="Layer 1"
     inkscape:groupmode="layer"
     id="layer1"
     transform="translate(0,-308.2677)">
    <path
       transform="matrix(0.14681868,0,0,0.20020757,112.31135,791.76056)"
       d="m 214.28572,632.66589 a 42.857143,31.428572 0 1 1 -85.71429,0 42.857143,31.428572 0 1 1 85.71429,0 z"
       sodipodi:ry="31.428572"
       sodipodi:rx="42.857143"
       sodipodi:cy="632.66589"
       sodipodi:cx="171.42857"
       id="path4944"
       style="fill:none;stroke:#000000;stroke-width:4.13340712;stroke-miterlimit:4;stroke-opacity:1;stroke-dasharray:none;display:inline"
       sodipodi:type="arc" />
    <path
       transform="matrix(0.14681868,0,0,0.20020757,112.57996,366.29452)"
       d="m 214.28572,632.66589 a 42.857143,31.428572 0 1 1 -85.71429,0 42.857143,31.428572 0 1 1 85.71429,0 z"
       sodipodi:ry="31.428572"
       sodipodi:rx="42.857143"
       sodipodi:cy="632.66589"
       sodipodi:cx="171.42857"
       id="path4946"
       style="fill:none;stroke:#000000;stroke-width:4.13340712;stroke-miterlimit:4;stroke-opacity:1;stroke-dasharray:none;display:inline"
       sodipodi:type="arc" />
    <rect
       ry="3.5433121"
       rx="3.5433018"
       y="512.52289"
       x="128.06796"
       height="388.60767"
       width="18.821066"
       id="rect4948"
       style="fill:none;stroke:#000000;stroke-width:0.89035088;stroke-miterlimit:4;stroke-opacity:1;stroke-dasharray:none;display:inline" />
    <path
       transform="matrix(0,0.52405523,-0.61763652,0,454.11607,372.6204)"
       d="m 29.285714,695.08997 a 11.785714,10 0 1 1 -23.5714281,0 11.785714,10 0 1 1 23.5714281,0 z"
       sodipodi:ry="10"
       sodipodi:rx="11.785714"
       sodipodi:cy="695.08997"
       sodipodi:cx="17.5"
       id="path4952"
       style="fill:none;stroke:#000000;stroke-width:0.70866144;stroke-miterlimit:4;stroke-opacity:1;stroke-dasharray:none;display:inline"
       sodipodi:type="arc" />
    <path
       transform="matrix(0,0.52405523,-0.61763652,0,454.11607,1018.3881)"
       d="m 29.285714,695.08997 a 11.785714,10 0 1 1 -23.5714281,0 11.785714,10 0 1 1 23.5714281,0 z"
       sodipodi:ry="10"
       sodipodi:rx="11.785714"
       sodipodi:cy="695.08997"
       sodipodi:cx="17.5"
       id="path4954"
       style="fill:none;stroke:#000000;stroke-width:0.70866144;stroke-miterlimit:4;stroke-opacity:1;stroke-dasharray:none;display:inline"
       sodipodi:type="arc" />
    <path
       transform="matrix(0,0.52405523,-0.61763652,0,605.59245,372.6204)"
       d="m 29.285714,695.08997 a 11.785714,10 0 1 1 -23.5714281,0 11.785714,10 0 1 1 23.5714281,0 z"
       sodipodi:ry="10"
       sodipodi:rx="11.785714"
       sodipodi:cy="695.08997"
       sodipodi:cx="17.5"
       id="path4956"
       style="fill:none;stroke:#000000;stroke-width:0.70866144;stroke-miterlimit:4;stroke-opacity:1;stroke-dasharray:none;display:inline"
       sodipodi:type="arc" />
    <path
       transform="matrix(0,0.52405523,-0.61763652,0,605.59245,1018.3881)"
       d="m 29.285714,695.08997 a 11.785714,10 0 1 1 -23.5714281,0 11.785714,10 0 1 1 23.5714281,0 z"
       sodipodi:ry="10"
       sodipodi:rx="11.785714"
       sodipodi:cy="695.08997"
       sodipodi:cx="17.5"
       id="path4958"
       style="fill:none;stroke:#000000;stroke-width:0.70866144;stroke-miterlimit:4;stroke-opacity:1;stroke-dasharray:none;display:inline"
       sodipodi:type="arc" />
    <path
       transform="matrix(0,0.52405523,-0.61763652,0,605.59249,543.5849)"
       d="m 29.285714,695.08997 a 11.785714,10 0 1 1 -23.5714281,0 11.785714,10 0 1 1 23.5714281,0 z"
       sodipodi:ry="10"
       sodipodi:rx="11.785714"
       sodipodi:cy="695.08997"
       sodipodi:cx="17.5"
       id="path4960"
       style="fill:none;stroke:#000000;stroke-width:0.70866144;stroke-miterlimit:4;stroke-opacity:1;stroke-dasharray:none;display:inline"
       sodipodi:type="arc" />
    <path
       transform="matrix(0,0.52405523,-0.61763652,0,605.59249,741.12427)"
       d="m 29.285714,695.08997 a 11.785714,10 0 1 1 -23.5714281,0 11.785714,10 0 1 1 23.5714281,0 z"
       sodipodi:ry="10"
       sodipodi:rx="11.785714"
       sodipodi:cy="695.08997"
       sodipodi:cx="17.5"
       id="path4962"
       style="fill:none;stroke:#000000;stroke-width:0.70866144;stroke-miterlimit:4;stroke-opacity:1;stroke-dasharray:none;display:inline"
       sodipodi:type="arc" />
    <path
       transform="matrix(0.52405523,0,0,0.61763652,195.45501,598.24609)"
       d="m 29.285714,695.08997 a 11.785714,10 0 1 1 -23.5714281,0 11.785714,10 0 1 1 23.5714281,0 z"
       sodipodi:ry="10"
       sodipodi:rx="11.785714"
       sodipodi:cy="695.08997"
       sodipodi:cx="17.5"
       id="path4966"
       style="fill:none;stroke:#000000;stroke-width:0.70866144;stroke-miterlimit:4;stroke-opacity:1;stroke-dasharray:none;display:inline"
       sodipodi:type="arc" />
    <path
       transform="matrix(0.52405523,0,0,0.61763652,841.22273,598.24609)"
       d="m 29.285714,695.08997 a 11.785714,10 0 1 1 -23.5714281,0 11.785714,10 0 1 1 23.5714281,0 z"
       sodipodi:ry="10"
       sodipodi:rx="11.785714"
       sodipodi:cy="695.08997"
       sodipodi:cx="17.5"
       id="path4968"
       style="fill:none;stroke:#000000;stroke-width:0.70866144;stroke-miterlimit:4;stroke-opacity:1;stroke-dasharray:none;display:inline"
       sodipodi:type="arc" />
    <path
       transform="matrix(0,-0.14681868,0.20020757,0,614.59518,814.26341)"
       d="m 214.28572,632.66589 a 42.857143,31.428572 0 1 1 -85.71429,0 42.857143,31.428572 0 1 1 85.71429,0 z"
       sodipodi:ry="31.428572"
       sodipodi:rx="42.857143"
       sodipodi:cy="632.66589"
       sodipodi:cx="171.42857"
       id="path4970"
       style="fill:none;stroke:#000000;stroke-width:4.13340712;stroke-miterlimit:4;stroke-opacity:1;stroke-dasharray:none;display:inline"
       sodipodi:type="arc" />
    <path
       transform="matrix(0,-0.14681868,0.20020757,0,189.12914,813.9948)"
       d="m 214.28572,632.66589 a 42.857143,31.428572 0 1 1 -85.71429,0 42.857143,31.428572 0 1 1 85.71429,0 z"
       sodipodi:ry="31.428572"
       sodipodi:rx="42.857143"
       sodipodi:cy="632.66589"
       sodipodi:cx="171.42857"
       id="path4972"
       style="fill:none;stroke:#000000;stroke-width:4.13340712;stroke-miterlimit:4;stroke-opacity:1;stroke-dasharray:none;display:inline"
       sodipodi:type="arc" />
    <rect
       transform="matrix(0,-1,1,0,0,0)"
       ry="3.5433116"
       rx="3.5433021"
       y="335.35748"
       x="-798.50684"
       height="388.60767"
       width="18.821066"
       id="rect4974"
       style="fill:none;stroke:#000000;stroke-width:0.89035088;stroke-miterlimit:4;stroke-opacity:1;stroke-dasharray:none;display:inline" />
    <path
       transform="matrix(0.52405523,0,0,0.61763652,195.45502,320.98231)"
       d="m 29.285714,695.08997 a 11.785714,10 0 1 1 -23.5714281,0 11.785714,10 0 1 1 23.5714281,0 z"
       sodipodi:ry="10"
       sodipodi:rx="11.785714"
       sodipodi:cy="695.08997"
       sodipodi:cx="17.5"
       id="path4976"
       style="fill:none;stroke:#000000;stroke-width:0.70866144;stroke-miterlimit:4;stroke-opacity:1;stroke-dasharray:none;display:inline"
       sodipodi:type="arc" />
    <path
       transform="matrix(0.52405523,0,0,0.61763652,841.22273,320.98231)"
       d="m 29.285714,695.08997 a 11.785714,10 0 1 1 -23.5714281,0 11.785714,10 0 1 1 23.5714281,0 z"
       sodipodi:ry="10"
       sodipodi:rx="11.785714"
       sodipodi:cy="695.08997"
       sodipodi:cx="17.5"
       id="path4978"
       style="fill:none;stroke:#000000;stroke-width:0.70866144;stroke-miterlimit:4;stroke-opacity:1;stroke-dasharray:none;display:inline"
       sodipodi:type="arc" />
    <path
       transform="matrix(-0.52405523,0,0,-0.61763652,859.56456,811.10429)"
       d="m 29.285714,695.08997 a 11.785714,10 0 1 1 -23.5714281,0 11.785714,10 0 1 1 23.5714281,0 z"
       sodipodi:ry="10"
       sodipodi:rx="11.785714"
       sodipodi:cy="695.08997"
       sodipodi:cx="17.5"
       id="path4982"
       style="fill:none;stroke:#000000;stroke-width:0.70866144;stroke-miterlimit:4;stroke-opacity:1;stroke-dasharray:none;display:inline"
       sodipodi:type="arc" />
    <path
       transform="matrix(-0.52405523,0,0,-0.61763652,213.79685,811.10429)"
       d="m 29.285714,695.08997 a 11.785714,10 0 1 1 -23.5714281,0 11.785714,10 0 1 1 23.5714281,0 z"
       sodipodi:ry="10"
       sodipodi:rx="11.785714"
       sodipodi:cy="695.08997"
       sodipodi:cx="17.5"
       id="path4984"
       style="fill:none;stroke:#000000;stroke-width:0.70866144;stroke-miterlimit:4;stroke-opacity:1;stroke-dasharray:none;display:inline"
       sodipodi:type="arc" />
    <path
       transform="matrix(0,0.14681868,-0.20020759,0,440.42442,460.44135)"
       d="m 214.28572,632.66589 a 42.857143,31.428572 0 1 1 -85.71429,0 42.857143,31.428572 0 1 1 85.71429,0 z"
       sodipodi:ry="31.428572"
       sodipodi:rx="42.857143"
       sodipodi:cy="632.66589"
       sodipodi:cx="171.42857"
       id="path4986"
       style="fill:none;stroke:#000000;stroke-width:4.13340712;stroke-miterlimit:4;stroke-opacity:1;stroke-dasharray:none;display:inline"
       sodipodi:type="arc" />
    <path
       transform="matrix(0,0.14681868,-0.20020759,0,865.8905,460.70996)"
       d="m 214.28572,632.66589 a 42.857143,31.428572 0 1 1 -85.71429,0 42.857143,31.428572 0 1 1 85.71429,0 z"
       sodipodi:ry="31.428572"
       sodipodi:rx="42.857143"
       sodipodi:cy="632.66589"
       sodipodi:cx="171.42857"
       id="path4988"
       style="fill:none;stroke:#000000;stroke-width:4.13340712;stroke-miterlimit:4;stroke-opacity:1;stroke-dasharray:none;display:inline"
       sodipodi:type="arc" />
    <rect
       transform="matrix(0,1,-1,0,0,0)"
       ry="3.5433121"
       rx="3.5433021"
       y="-719.66217"
       x="476.19794"
       height="388.60773"
       width="18.821066"
       id="rect4990"
       style="fill:none;stroke:#000000;stroke-width:0.89035094;stroke-miterlimit:4;stroke-opacity:1;stroke-dasharray:none;display:inline" />
    <path
       transform="matrix(-0.52405523,0,0,-0.61763652,859.56456,982.06883)"
       d="m 29.285714,695.08997 a 11.785714,10 0 1 1 -23.5714281,0 11.785714,10 0 1 1 23.5714281,0 z"
       sodipodi:ry="10"
       sodipodi:rx="11.785714"
       sodipodi:cy="695.08997"
       sodipodi:cx="17.5"
       id="path4992"
       style="fill:none;stroke:#000000;stroke-width:0.70866144;stroke-miterlimit:4;stroke-opacity:1;stroke-dasharray:none;display:inline"
       sodipodi:type="arc" />
    <path
       transform="matrix(-0.52405523,0,0,-0.61763652,213.79685,982.06883)"
       d="m 29.285714,695.08997 a 11.785714,10 0 1 1 -23.5714281,0 11.785714,10 0 1 1 23.5714281,0 z"
       sodipodi:ry="10"
       sodipodi:rx="11.785714"
       sodipodi:cy="695.08997"
       sodipodi:cx="17.5"
       id="path4994"
       style="fill:none;stroke:#000000;stroke-width:0.70866144;stroke-miterlimit:4;stroke-opacity:1;stroke-dasharray:none;display:inline"
       sodipodi:type="arc" />
    <path
       transform="matrix(1.7734621,0,0,1.4919601,-30.592549,249.37613)"
       d="m 71.215755,159.97377 a 13.384521,15.909903 0 1 1 -26.769042,0 13.384521,15.909903 0 1 1 26.769042,0 z"
       sodipodi:ry="15.909903"
       sodipodi:rx="13.384521"
       sodipodi:cy="159.97377"
       sodipodi:cx="57.831234"
       id="path5014"
       style="fill:none;stroke:#000000;stroke-width:0.43961808;stroke-miterlimit:4;stroke-opacity:1;stroke-dasharray:none;display:inline"
       sodipodi:type="arc" />
    <path
       transform="matrix(1.040077,0,0,1.4340456,9.607371,246.61462)"
       d="m 82.5,119.09448 a 22.75,16.5 0 1 1 -45.5,0 22.75,16.5 0 1 1 45.5,0 z"
       sodipodi:ry="16.5"
       sodipodi:rx="22.75"
       sodipodi:cy="119.09448"
       sodipodi:cx="59.75"
       id="path5016"
       style="fill:none;stroke:#000000;stroke-width:0.70866144;stroke-miterlimit:4;stroke-opacity:1;stroke-dasharray:none;display:inline"
       sodipodi:type="arc" />
    <path
       transform="matrix(0.59548024,0,0,1.0135833,19.349711,277.96067)"
       d="m 128,704.59448 a 40,23.5 0 1 1 -80,0 40,23.5 0 1 1 80,0 z"
       sodipodi:ry="23.5"
       sodipodi:rx="40"
       sodipodi:cy="704.59448"
       sodipodi:cx="88"
       id="path5018"
       style="fill:none;stroke:#000000;stroke-width:0.70866144;stroke-miterlimit:4;stroke-opacity:1;stroke-dasharray:none;display:inline"
       sodipodi:type="arc" />
    <path
       transform="matrix(0.81696512,0,0,1.5794659,26.818891,-28.148375)"
       d="m 84,601.09448 a 29,15 0 1 1 -58,0 29,15 0 1 1 58,0 z"
       sodipodi:ry="15"
       sodipodi:rx="29"
       sodipodi:cy="601.09448"
       sodipodi:cx="55"
       id="path5020"
       style="fill:none;stroke:#000000;stroke-width:0.70866144;stroke-miterlimit:4;stroke-opacity:1;stroke-dasharray:none;display:inline"
       sodipodi:type="arc" />
    <path
       transform="matrix(1.1990252,0,0,1.0658002,-147.04419,287.34104)"
       d="m 822.01164,124.31538 a 19.79899,22.273863 0 1 1 -39.59798,0 19.79899,22.273863 0 1 1 39.59798,0 z"
       sodipodi:ry="22.273863"
       sodipodi:rx="19.79899"
       sodipodi:cy="124.31538"
       sodipodi:cx="802.21265"
       id="path5022"
       style="fill:none;stroke:#000000;stroke-width:0.62806857;stroke-miterlimit:4;stroke-opacity:1;stroke-dasharray:none;display:inline"
       sodipodi:type="arc" />
    <path
       transform="matrix(1.5613874,0,0,1.4919925,-444.43037,232.11184)"
       d="m 776.40324,125.7296 a 15.202796,15.909903 0 1 1 -30.4056,0 15.202796,15.909903 0 1 1 30.4056,0 z"
       sodipodi:ry="15.909903"
       sodipodi:rx="15.202796"
       sodipodi:cy="125.7296"
       sodipodi:cx="761.20044"
       id="path5024"
       style="fill:none;stroke:#000000;stroke-width:0.467843;stroke-miterlimit:4;stroke-opacity:1;stroke-dasharray:none;display:inline"
       sodipodi:type="arc" />
    <path
       transform="matrix(1.4721703,0,0,1.1041277,-101.57283,278.35356)"
       d="m 248.25,128.09448 a 16.125,21.5 0 1 1 -32.25,0 16.125,21.5 0 1 1 32.25,0 z"
       sodipodi:ry="21.5"
       sodipodi:rx="16.125"
       sodipodi:cy="128.09448"
       sodipodi:cx="232.125"
       id="path5026"
       style="fill:none;stroke:#000000;stroke-width:0.55805516;stroke-miterlimit:4;stroke-opacity:1;stroke-dasharray:none;display:inline"
       sodipodi:type="arc" />
    <path
       transform="matrix(1.2096604,0,0,1.0210574,-18.215179,293.90121)"
       d="m 291.75,123.34448 a 19.625,23.25 0 1 1 -39.25,0 19.625,23.25 0 1 1 39.25,0 z"
       sodipodi:ry="23.25"
       sodipodi:rx="19.625"
       sodipodi:cy="123.34448"
       sodipodi:cx="272.125"
       id="path5028"
       style="fill:none;stroke:#000000;stroke-width:0.63867855;stroke-miterlimit:4;stroke-opacity:1;stroke-dasharray:none;display:inline"
       sodipodi:type="arc" />
    <path
       transform="matrix(0.8290039,0,0,0.89532422,109.4913,356.11768)"
       d="m 794.08094,557.06476 a 28.637825,26.516504 0 1 1 -57.27565,0 28.637825,26.516504 0 1 1 57.27565,0 z"
       sodipodi:ry="26.516504"
       sodipodi:rx="28.637825"
       sodipodi:cy="557.06476"
       sodipodi:cx="765.44312"
       id="path5030"
       style="fill:none;stroke:#000000;stroke-width:0.82091445;stroke-miterlimit:4;stroke-opacity:1;stroke-dasharray:none;display:inline"
       sodipodi:type="arc" />
    <path
       transform="matrix(0.77185237,0,0,0.69949126,209.86825,468.96264)"
       d="m 814.58703,551.76141 a 30.759146,33.941124 0 1 1 -61.51829,0 30.759146,33.941124 0 1 1 61.51829,0 z"
       sodipodi:ry="33.941124"
       sodipodi:rx="30.759146"
       sodipodi:cy="551.76141"
       sodipodi:cx="783.82788"
       id="path5032"
       style="fill:none;stroke:#000000;stroke-width:0.96074468;stroke-miterlimit:4;stroke-opacity:1;stroke-dasharray:none;display:inline"
       sodipodi:type="arc" />
    <path
       transform="matrix(0.92643274,0,0,1.2174276,-14.880199,171.70924)"
       d="m 301,561.09448 a 25.625,19.5 0 1 1 -51.25,0 25.625,19.5 0 1 1 51.25,0 z"
       sodipodi:ry="19.5"
       sodipodi:rx="25.625"
       sodipodi:cy="561.09448"
       sodipodi:cx="275.375"
       id="path5034"
       style="fill:none;stroke:#000000;stroke-width:0.66788298;stroke-miterlimit:4;stroke-opacity:1;stroke-dasharray:none;display:inline"
       sodipodi:type="arc" />
    <path
       transform="matrix(0.8403773,0,0,0.96900648,83.116601,312.60627)"
       d="m 299.5,559.59448 a 28.25,24.5 0 1 1 -56.5,0 28.25,24.5 0 1 1 56.5,0 z"
       sodipodi:ry="24.5"
       sodipodi:rx="28.25"
       sodipodi:cy="559.59448"
       sodipodi:cx="271.25"
       id="path5036"
       style="fill:none;stroke:#000000;stroke-width:0.78419411;stroke-miterlimit:4;stroke-opacity:1;stroke-dasharray:none;display:inline"
       sodipodi:type="arc" />
    <rect
       style="fill:none;stroke:#000000;stroke-width:0.70799547;stroke-miterlimit:4;stroke-opacity:1;stroke-dasharray:none;display:inline"
       id="rect5046"
       width="853.229"
       height="673.40619"
       x="10.983919"
       y="367.97208"
       rx="3.5403693"
       ry="3.5395854" />
  </g>
</svg>
