<?xml version="1.0" encoding="UTF-8" standalone="no"?>
<!-- Created with Inkscape (http://www.inkscape.org/) -->

<svg
   xmlns:dc="http://purl.org/dc/elements/1.1/"
   xmlns:cc="http://creativecommons.org/ns#"
   xmlns:rdf="http://www.w3.org/1999/02/22-rdf-syntax-ns#"
   xmlns:svg="http://www.w3.org/2000/svg"
   xmlns="http://www.w3.org/2000/svg"
   xmlns:sodipodi="http://sodipodi.sourceforge.net/DTD/sodipodi-0.dtd"
   xmlns:inkscape="http://www.inkscape.org/namespaces/inkscape"
   width="1052.3622"
   height="744.09448"
   id="svg5148"
   version="1.1"
   inkscape:version="0.48.3.1 r9886"
   sodipodi:docname="New document 8">
  <defs
     id="defs5150" />
  <sodipodi:namedview
     id="base"
     pagecolor="#ffffff"
     bordercolor="#666666"
     borderopacity="1.0"
     inkscape:pageopacity="0.0"
     inkscape:pageshadow="2"
     inkscape:zoom="0.35"
     inkscape:cx="375"
     inkscape:cy="520"
     inkscape:document-units="mm"
     inkscape:current-layer="layer1"
     showgrid="false"
     units="mm"
     inkscape:window-width="1280"
     inkscape:window-height="727"
     inkscape:window-x="0"
     inkscape:window-y="34"
     inkscape:window-maximized="1" />
  <metadata
     id="metadata5153">
    <rdf:RDF>
      <cc:Work
         rdf:about="">
        <dc:format>image/svg+xml</dc:format>
        <dc:type
           rdf:resource="http://purl.org/dc/dcmitype/StillImage" />
        <dc:title></dc:title>
      </cc:Work>
    </rdf:RDF>
  </metadata>
  <g
     inkscape:label="Layer 1"
     inkscape:groupmode="layer"
     id="layer1"
     transform="translate(0,-308.26769)">
    <g
       id="g5217"
       transform="translate(-181.46231,343.74156)">
      <rect
         ry="3.5433121"
         rx="3.5433018"
         y="24.228533"
         x="192.44423"
         height="673.41016"
         width="346.5401"
         id="rect5096"
         style="fill:none;stroke:#000000;stroke-width:0.70399565;stroke-miterlimit:4;stroke-opacity:1;stroke-dasharray:none;display:inline" />
      <path
         transform="matrix(0.81804913,0,0,0.8735101,-295.76801,-96.043035)"
         d="m 769.36905,219.42679 c 0,8.77177 -7.59303,15.8827 -16.9595,15.8827 -9.36648,0 -16.9595,-7.11093 -16.9595,-15.8827 0,-8.77178 7.59302,-15.88271 16.9595,-15.88271 9.36647,0 16.9595,7.11093 16.9595,15.88271 z"
         sodipodi:ry="15.882706"
         sodipodi:rx="16.959499"
         sodipodi:cy="219.42679"
         sodipodi:cx="752.40955"
         id="path5098"
         style="fill:none;stroke:#000000;stroke-width:0.70866144;stroke-miterlimit:4;stroke-opacity:1;stroke-dasharray:none;display:inline"
         sodipodi:type="arc" />
      <path
         transform="matrix(0.83034795,0,0,0.83649865,-461.36615,-90.278675)"
         d="m 915.1649,222.24443 c 0,3.54809 -2.8976,6.42438 -6.47197,6.42438 -3.57437,0 -6.47197,-2.87629 -6.47197,-6.42438 0,-3.54809 2.8976,-6.42438 6.47197,-6.42438 3.57437,0 6.47197,2.87629 6.47197,6.42438 z"
         sodipodi:ry="6.4243808"
         sodipodi:rx="6.4719687"
         sodipodi:cy="222.24443"
         sodipodi:cx="908.69293"
         id="path5100"
         style="fill:none;stroke:#000000;stroke-width:0.70866144;stroke-miterlimit:4;stroke-opacity:1;stroke-dasharray:none;display:inline"
         sodipodi:type="arc" />
      <path
         transform="matrix(0.52405528,0,0,0.61763652,197.0945,254.50451)"
         d="m 29.285714,695.08997 c 0,5.52284 -5.276644,10 -11.785714,10 -6.50907,0 -11.7857141,-4.47716 -11.7857141,-10 0,-5.52285 5.2766441,-10 11.7857141,-10 6.50907,0 11.785714,4.47715 11.785714,10 z"
         sodipodi:ry="10"
         sodipodi:rx="11.785714"
         sodipodi:cy="695.08997"
         sodipodi:cx="17.5"
         id="path5102"
         style="fill:none;stroke:#000000;stroke-width:0.70866144;stroke-miterlimit:4;stroke-opacity:1;stroke-dasharray:none;display:inline"
         sodipodi:type="arc" />
      <path
         transform="matrix(0.52405523,0,0,0.61763652,197.0945,-391.26321)"
         d="m 29.285714,695.08997 c 0,5.52284 -5.276644,10 -11.785714,10 -6.50907,0 -11.7857141,-4.47716 -11.7857141,-10 0,-5.52285 5.2766441,-10 11.7857141,-10 6.50907,0 11.785714,4.47715 11.785714,10 z"
         sodipodi:ry="10"
         sodipodi:rx="11.785714"
         sodipodi:cy="695.08997"
         sodipodi:cx="17.5"
         id="path5104"
         style="fill:none;stroke:#000000;stroke-width:0.70866144;stroke-miterlimit:4;stroke-opacity:1;stroke-dasharray:none;display:inline"
         sodipodi:type="arc" />
      <path
         transform="matrix(0.52405523,0,0,0.61763652,515.99214,-391.26321)"
         d="m 29.285714,695.08997 c 0,5.52284 -5.276644,10 -11.785714,10 -6.50907,0 -11.7857141,-4.47716 -11.7857141,-10 0,-5.52285 5.2766441,-10 11.7857141,-10 6.50907,0 11.785714,4.47715 11.785714,10 z"
         sodipodi:ry="10"
         sodipodi:rx="11.785714"
         sodipodi:cy="695.08997"
         sodipodi:cx="17.5"
         id="path5106"
         style="fill:none;stroke:#000000;stroke-width:0.70866144;stroke-miterlimit:4;stroke-opacity:1;stroke-dasharray:none;display:inline"
         sodipodi:type="arc" />
      <path
         transform="matrix(0.52405523,0,0,0.61763652,515.99214,254.50451)"
         d="m 29.285714,695.08997 c 0,5.52284 -5.276644,10 -11.785714,10 -6.50907,0 -11.7857141,-4.47716 -11.7857141,-10 0,-5.52285 5.2766441,-10 11.7857141,-10 6.50907,0 11.785714,4.47715 11.785714,10 z"
         sodipodi:ry="10"
         sodipodi:rx="11.785714"
         sodipodi:cy="695.08997"
         sodipodi:cx="17.5"
         id="path5108"
         style="fill:none;stroke:#000000;stroke-width:0.70866144;stroke-miterlimit:4;stroke-opacity:1;stroke-dasharray:none;display:inline"
         sodipodi:type="arc" />
      <path
         transform="matrix(0.52405523,0,0,0.61763652,197.0945,-220.29864)"
         d="m 29.285714,695.08997 c 0,5.52284 -5.276644,10 -11.785714,10 -6.50907,0 -11.7857141,-4.47716 -11.7857141,-10 0,-5.52285 5.2766441,-10 11.7857141,-10 6.50907,0 11.785714,4.47715 11.785714,10 z"
         sodipodi:ry="10"
         sodipodi:rx="11.785714"
         sodipodi:cy="695.08997"
         sodipodi:cx="17.5"
         id="path5110"
         style="fill:none;stroke:#000000;stroke-width:0.70866144;stroke-miterlimit:4;stroke-opacity:1;stroke-dasharray:none;display:inline"
         sodipodi:type="arc" />
      <path
         transform="matrix(0.52405523,0,0,0.61763652,197.0945,-22.759272)"
         d="m 29.285714,695.08997 c 0,5.52284 -5.276644,10 -11.785714,10 -6.50907,0 -11.7857141,-4.47716 -11.7857141,-10 0,-5.52285 5.2766441,-10 11.7857141,-10 6.50907,0 11.785714,4.47715 11.785714,10 z"
         sodipodi:ry="10"
         sodipodi:rx="11.785714"
         sodipodi:cy="695.08997"
         sodipodi:cx="17.5"
         id="path5112"
         style="fill:none;stroke:#000000;stroke-width:0.70866144;stroke-miterlimit:4;stroke-opacity:1;stroke-dasharray:none;display:inline"
         sodipodi:type="arc" />
      <path
         transform="matrix(1.2174152,0,0,1.0101957,-885.80846,-48.778602)"
         d="m 980.75,285.84448 c 0,12.97869 -8.73045,23.5 -19.5,23.5 -10.76955,0 -19.5,-10.52131 -19.5,-23.5 0,-12.97869 8.73045,-23.5 19.5,-23.5 10.76955,0 19.5,10.52131 19.5,23.5 z"
         sodipodi:ry="23.5"
         sodipodi:rx="19.5"
         sodipodi:cy="285.84448"
         sodipodi:cx="961.25"
         id="path5138"
         style="fill:none;stroke:#000000;stroke-width:0.64003253;stroke-miterlimit:4;stroke-opacity:1;stroke-dasharray:none;display:inline"
         sodipodi:type="arc" />
      <path
         transform="matrix(0.99436029,0,0,0.93099419,-643.46344,-24.458842)"
         d="m 1028.25,284.09448 c 0,14.08326 -10.6892,25.5 -23.875,25.5 -13.1858,0 -23.875,-11.41674 -23.875,-25.5 0,-14.08326 10.6892,-25.5 23.875,-25.5 13.1858,0 23.875,11.41674 23.875,25.5 z"
         sodipodi:ry="25.5"
         sodipodi:rx="23.875"
         sodipodi:cy="284.09448"
         sodipodi:cx="1004.375"
         id="path5140"
         style="fill:none;stroke:#000000;stroke-width:0.73613107;stroke-miterlimit:4;stroke-opacity:1;stroke-dasharray:none;display:inline"
         sodipodi:type="arc" />
      <path
         transform="matrix(0.93305734,0,0,1.0026885,-596.5772,-55.953032)"
         d="m 1187.2323,129.97224 c 0,13.08257 -11.3969,23.68808 -25.4558,23.68808 -14.0589,0 -25.4559,-10.60551 -25.4559,-23.68808 0,-13.08256 11.397,-23.68807 25.4559,-23.68807 14.0589,0 25.4558,10.60551 25.4558,23.68807 z"
         sodipodi:ry="23.688078"
         sodipodi:rx="25.455845"
         sodipodi:cy="129.97224"
         sodipodi:cx="1161.7765"
         id="path5142"
         style="fill:none;stroke:#000000;stroke-width:0.73265851;stroke-miterlimit:4;stroke-opacity:1;stroke-dasharray:none;display:inline"
         sodipodi:type="arc" />
      <path
         transform="matrix(1.0658455,0,0,0.8188812,-752.73145,-1.4400818)"
         d="m 1185.8181,179.11617 c 0,16.01149 -9.9724,28.99137 -22.2739,28.99137 -12.3015,0 -22.2739,-12.97988 -22.2739,-28.99137 0,-16.0115 9.9724,-28.99138 22.2739,-28.99138 12.3015,0 22.2739,12.97988 22.2739,28.99138 z"
         sodipodi:ry="28.991379"
         sodipodi:rx="22.273863"
         sodipodi:cy="179.11617"
         sodipodi:cx="1163.5442"
         id="path5144"
         style="fill:none;stroke:#000000;stroke-width:0.75782186;stroke-miterlimit:4;stroke-opacity:1;stroke-dasharray:none;display:inline"
         sodipodi:type="arc" />
    </g>
  </g>
</svg>
